# Blender v2.76 (sub 0) OBJ File: 'cap.blend'
# www.blender.org
o Point
v -0.000000 0.062500 -0.500000
v -0.191342 0.062500 -0.461940
v -0.353554 0.062500 -0.353553
v -0.461940 0.062500 -0.191342
v -0.500000 0.062500 0.000000
v -0.461940 0.062500 0.191342
v -0.353554 0.062500 0.353553
v -0.191342 0.062500 0.461940
v -0.000000 0.062500 0.500000
v 0.191342 0.062500 0.461940
v 0.353553 0.062500 0.353554
v 0.461940 0.062500 0.191342
v 0.500000 0.062500 0.000000
v 0.461940 0.062500 -0.191342
v 0.353553 0.062500 -0.353553
v 0.191341 0.062500 -0.461940
v -0.191342 0.125000 -0.461940
v -0.000000 0.125000 -0.500000
v -0.353554 0.125000 -0.353553
v -0.461940 0.125000 -0.191342
v -0.500000 0.125000 0.000000
v -0.461940 0.125000 0.191342
v -0.353554 0.125000 0.353553
v -0.191342 0.125000 0.461940
v -0.000000 0.125000 0.500000
v 0.191342 0.125000 0.461940
v 0.353553 0.125000 0.353554
v 0.461940 0.125000 0.191342
v 0.500000 0.125000 0.000000
v 0.461940 0.125000 -0.191342
v 0.353553 0.125000 -0.353553
v 0.191341 0.125000 -0.461940
v -0.191342 0.125000 -0.461940
v -0.000000 0.125000 -0.500000
v -0.353554 0.125000 -0.353553
v -0.461940 0.125000 -0.191342
v -0.500000 0.125000 0.000000
v -0.461940 0.125000 0.191342
v -0.353554 0.125000 0.353553
v -0.191342 0.125000 0.461940
v -0.000000 0.125000 0.500000
v 0.191342 0.125000 0.461940
v 0.353553 0.125000 0.353554
v 0.461940 0.125000 0.191342
v 0.500000 0.125000 0.000000
v 0.461940 0.125000 -0.191342
v 0.353553 0.125000 -0.353553
v 0.191341 0.125000 -0.461940
vt 0.500000 0.054694
vt 0.814879 0.814879
vt 0.500000 0.945306
vt 0.329589 0.911409
vt 0.185121 0.814879
vt 0.088591 0.670412
vt 0.054694 0.500000
vt 0.088591 0.329589
vt 0.185121 0.185121
vt 0.329588 0.088591
vt 0.670411 0.088591
vt 0.814879 0.185121
vt 0.911409 0.329588
vt 0.945306 0.500000
vt 0.911409 0.670411
vt 0.670411 0.911409
vt 0.957692 0.298664
vt 0.000100 0.510860
vt 0.999900 0.489140
vt 0.033997 0.318730
vt 0.966003 0.681270
vt 0.138838 0.154196
vt 0.861161 0.845803
vt 0.298663 0.042308
vt 0.701336 0.957691
vt 0.489140 0.000100
vt 0.318729 0.966003
vt 0.510860 0.999900
vt 0.681270 0.033997
vt 0.154196 0.861161
vt 0.845804 0.138838
vt 0.042309 0.701337
vt 0.861161 0.154196
vt 0.033997 0.681271
vt 0.966003 0.318729
vt 0.000100 0.489141
vt 0.999900 0.510859
vt 0.042308 0.298664
vt 0.957691 0.701336
vt 0.154196 0.138839
vt 0.845804 0.861161
vt 0.318729 0.033997
vt 0.489141 0.999900
vt 0.681271 0.966002
vt 0.510859 0.000100
vt 0.298664 0.957691
vt 0.701336 0.042308
vt 0.138839 0.845804
vn 0.000000 1.000000 0.000000
vn 0.923900 0.000000 0.382700
vn 0.707100 0.000000 0.707100
vn -1.000000 0.000000 0.000000
vn -0.923900 0.000000 -0.382700
vn 1.000000 0.000000 0.000000
vn -0.923900 0.000000 0.382700
vn 0.923900 0.000000 -0.382700
vn -0.707100 0.000000 0.707100
vn 0.707100 0.000000 -0.707100
vn -0.382700 0.000000 0.923900
vn 0.382700 0.000000 -0.923900
vn 0.000000 0.000000 1.000000
vn -0.382700 0.000000 -0.923900
vn 0.000000 0.000000 -1.000000
vn 0.382700 0.000000 0.923900
vn -0.707100 0.000000 -0.707100
s off
f 41/1/1 47/2/1 34/3/1
f 34/3/1 33/4/1 35/5/1
f 35/5/1 36/6/1 37/7/1
f 37/7/1 38/8/1 39/9/1
f 39/9/1 40/10/1 41/1/1
f 41/1/1 42/11/1 43/12/1
f 43/12/1 44/13/1 45/14/1
f 45/14/1 46/15/1 47/2/1
f 47/2/1 48/16/1 34/3/1
f 34/3/1 35/5/1 37/7/1
f 37/7/1 39/9/1 34/3/1
f 41/1/1 43/12/1 45/14/1
f 45/14/1 47/2/1 41/1/1
f 34/3/1 39/9/1 41/1/1
s 1
f 12/17/2 28/13/2 27/12/3
f 5/18/4 21/7/4 20/6/5
f 13/19/6 29/14/6 28/13/2
f 6/20/7 22/8/7 21/7/4
f 14/21/8 30/15/8 29/14/6
f 7/22/9 23/9/9 22/8/7
f 15/23/10 31/2/10 30/15/8
f 8/24/11 24/10/11 23/9/9
f 16/25/12 32/16/12 31/2/10
f 9/26/13 25/1/13 24/10/11
f 2/27/14 17/4/14 18/3/15
f 1/28/15 18/3/15 32/16/12
f 10/29/16 26/11/16 25/1/13
f 3/30/17 19/5/17 17/4/14
f 11/31/3 27/12/3 26/11/16
f 4/32/5 20/6/5 19/5/17
f 11/33/3 12/17/2 27/12/3
f 4/34/5 5/18/4 20/6/5
f 12/35/2 13/19/6 28/13/2
f 5/36/4 6/20/7 21/7/4
f 13/37/6 14/21/8 29/14/6
f 6/38/7 7/22/9 22/8/7
f 14/39/8 15/23/10 30/15/8
f 7/40/9 8/24/11 23/9/9
f 15/41/10 16/25/12 31/2/10
f 8/42/11 9/26/13 24/10/11
f 1/43/15 2/27/14 18/3/15
f 16/44/12 1/28/15 32/16/12
f 9/45/13 10/29/16 25/1/13
f 2/46/14 3/30/17 17/4/14
f 10/47/16 11/31/3 26/11/16
f 3/48/17 4/32/5 19/5/17
o Base
v 0.000000 0.000000 -2.500000
v -0.956709 0.000000 -2.309699
v -1.767767 0.000000 -1.767767
v -2.309699 0.000000 -0.956709
v -2.500000 0.000000 0.000000
v -2.309699 0.000000 0.956709
v -1.767767 0.000000 1.767767
v -0.956709 0.000000 2.309699
v -0.000000 0.000000 2.500000
v 0.956708 0.000000 2.309699
v 1.767766 0.000000 1.767768
v 2.309699 0.000000 0.956709
v 2.500000 0.000000 -0.000000
v 2.309699 0.000000 -0.956709
v 1.767766 0.000000 -1.767768
v 0.956707 0.000000 -2.309699
v -0.669696 0.125000 -1.616789
v -0.000000 0.125000 -1.750000
v -1.237437 0.125000 -1.237437
v -1.616789 0.125000 -0.669696
v -1.750000 0.125000 0.000000
v -1.616789 0.125000 0.669696
v -1.237437 0.125000 1.237437
v -0.669696 0.125000 1.616789
v -0.000000 0.125000 1.750000
v 0.669696 0.125000 1.616789
v 1.237437 0.125000 1.237437
v 1.616789 0.125000 0.669696
v 1.750000 0.125000 -0.000000
v 1.616789 0.125000 -0.669696
v 1.237437 0.125000 -1.237437
v 0.669695 0.125000 -1.616789
v -0.000000 0.125000 -1.000000
v -0.382684 0.125000 -0.923880
v -0.707107 0.125000 -0.707107
v -0.923880 0.125000 -0.382683
v -1.000000 0.125000 0.000000
v -0.923880 0.125000 0.382683
v -0.707107 0.125000 0.707107
v -0.382684 0.125000 0.923880
v -0.000000 0.125000 1.000000
v 0.382683 0.125000 0.923880
v 0.707106 0.125000 0.707107
v 0.923880 0.125000 0.382684
v 1.000000 0.125000 -0.000000
v 0.923879 0.125000 -0.382684
v 0.707106 0.125000 -0.707107
v 0.382683 0.125000 -0.923880
v -0.382684 0.062500 -0.923880
v -0.000000 0.062500 -1.000000
v -0.707107 0.062500 -0.707107
v -0.923880 0.062500 -0.382683
v -1.000000 0.062500 0.000000
v -0.923880 0.062500 0.382683
v -0.707107 0.062500 0.707107
v -0.382684 0.062500 0.923880
v -0.000000 0.062500 1.000000
v 0.382683 0.062500 0.923880
v 0.707106 0.062500 0.707107
v 0.923880 0.062500 0.382684
v 1.000000 0.062500 -0.000000
v 0.923879 0.062500 -0.382684
v 0.707106 0.062500 -0.707107
v 0.382683 0.062500 -0.923880
v 0.000000 0.000000 -2.500000
v -0.956709 0.000000 -2.309699
v -1.767767 0.000000 -1.767767
v -2.309699 0.000000 -0.956709
v -2.500000 0.000000 0.000000
v -2.309699 0.000000 0.956709
v -1.767767 0.000000 1.767767
v -0.956709 0.000000 2.309699
v -0.000000 0.000000 2.500000
v 0.956708 0.000000 2.309699
v 1.767766 0.000000 1.767768
v 2.309699 0.000000 0.956709
v 2.500000 0.000000 -0.000000
v 2.309699 0.000000 -0.956709
v 1.767766 0.000000 -1.767768
v 0.956707 0.000000 -2.309699
v -0.000000 0.125000 -1.000000
v -0.382684 0.125000 -0.923880
v -0.707107 0.125000 -0.707107
v -0.923880 0.125000 -0.382683
v -1.000000 0.125000 0.000000
v -0.923880 0.125000 0.382683
v -0.707107 0.125000 0.707107
v -0.382684 0.125000 0.923880
v -0.000000 0.125000 1.000000
v 0.382683 0.125000 0.923880
v 0.707106 0.125000 0.707107
v 0.923880 0.125000 0.382684
v 1.000000 0.125000 -0.000000
v 0.923879 0.125000 -0.382684
v 0.707106 0.125000 -0.707107
v 0.382683 0.125000 -0.923880
v -0.382684 0.062500 -0.923880
v -0.000000 0.062500 -1.000000
v -0.707107 0.062500 -0.707107
v -0.923880 0.062500 -0.382683
v -1.000000 0.062500 0.000000
v -0.923880 0.062500 0.382683
v -0.707107 0.062500 0.707107
v -0.382684 0.062500 0.923880
v -0.000000 0.062500 1.000000
v 0.382683 0.062500 0.923880
v 0.707106 0.062500 0.707107
v 0.923880 0.062500 0.382684
v 1.000000 0.062500 -0.000000
v 0.923879 0.062500 -0.382684
v 0.707106 0.062500 -0.707107
v 0.382683 0.062500 -0.923880
vt 0.502470 0.301463
vt 0.643500 0.641943
vt 0.502468 0.700360
vt 0.502469 0.996482
vt 0.152047 0.851333
vt 0.152048 0.150490
vt 0.426143 0.685177
vt 0.361437 0.641942
vt 0.318203 0.577236
vt 0.303021 0.500910
vt 0.318203 0.424585
vt 0.361438 0.359879
vt 0.426144 0.316645
vt 0.578795 0.316645
vt 0.643501 0.359880
vt 0.686736 0.424586
vt 0.701918 0.500912
vt 0.686735 0.577238
vt 0.578794 0.685178
vt 0.312822 0.043063
vt 0.852891 0.150489
vt 0.502469 0.005340
vt 0.692116 0.043063
vt 0.960317 0.311264
vt 0.998040 0.500911
vt 0.960317 0.690558
vt 0.852890 0.851333
vt 0.692115 0.958759
vt 0.312822 0.958759
vt 0.044621 0.690558
vt 0.006898 0.500911
vt 0.044621 0.311265
vt 0.746187 0.257361
vt 0.820838 0.369167
vt 0.684425 0.425637
vt 0.502469 0.006303
vt 0.502587 0.156361
vt 0.370725 0.182543
vt 0.313191 0.957869
vt 0.370506 0.819189
vt 0.502351 0.845462
vt 0.502469 0.995519
vt 0.634213 0.819280
vt 0.691748 0.043953
vt 0.634432 0.182633
vt 0.152728 0.850652
vt 0.258751 0.744462
vt 0.852210 0.151171
vt 0.045511 0.690189
vt 0.184101 0.632656
vt 0.959427 0.311633
vt 0.007861 0.500911
vt 0.157918 0.500793
vt 0.997077 0.500911
vt 0.847020 0.501030
vt 0.045511 0.311633
vt 0.184191 0.368948
vt 0.959427 0.690190
vt 0.820747 0.632874
vt 0.152729 0.151170
vt 0.258919 0.257193
vt 0.852209 0.850652
vt 0.746019 0.744629
vt 0.313191 0.043953
vt 0.691747 0.957869
vt 0.699381 0.500998
vt 0.684359 0.576346
vt 0.641645 0.640210
vt 0.577744 0.682867
vt 0.502382 0.697823
vt 0.427034 0.682801
vt 0.363170 0.640087
vt 0.320513 0.576186
vt 0.305557 0.500824
vt 0.320580 0.425476
vt 0.363293 0.361612
vt 0.427195 0.318955
vt 0.502556 0.303999
vt 0.577904 0.319022
vt 0.641768 0.361735
vt 0.714144 0.498480
vt 0.305977 0.422153
vt 0.698961 0.579670
vt 0.351074 0.352954
vt 0.653865 0.648869
vt 0.419219 0.306280
vt 0.585719 0.695543
vt 0.500038 0.289237
vt 0.423711 0.697403
vt 0.504900 0.712586
vt 0.581227 0.304419
vt 0.354512 0.652307
vt 0.650427 0.349516
vt 0.307838 0.584162
vt 0.697101 0.417661
vt 0.290795 0.503342
vt 0.698962 0.422154
vt 0.290795 0.498479
vt 0.714144 0.503344
vt 0.307838 0.417660
vt 0.697100 0.584163
vt 0.354513 0.349515
vt 0.650425 0.652308
vt 0.423712 0.304419
vt 0.500036 0.712586
vt 0.581226 0.697404
vt 0.504902 0.289237
vt 0.419217 0.695542
vt 0.585721 0.306281
vt 0.351073 0.648867
vt 0.653866 0.352955
vt 0.305977 0.579668
vn 0.000000 1.000000 0.000000
vn 0.000000 -1.000000 0.000000
vn 0.065500 0.995700 0.065500
vn 0.085600 0.995700 0.035500
vn -0.607100 0.753700 -0.251500
vn 0.000000 0.986400 0.164400
vn 0.000000 0.995700 0.092700
vn -0.035500 0.995700 0.085600
vn -0.062900 0.986400 -0.151900
vn -0.035500 0.995700 -0.085600
vn 0.000000 0.995700 -0.092700
vn 0.000000 0.986400 -0.164400
vn 0.035500 0.995700 -0.085600
vn 0.062900 0.986400 0.151900
vn 0.035500 0.995700 0.085600
vn -0.116200 0.986400 -0.116200
vn -0.065500 0.995700 -0.065500
vn 0.116200 0.986400 0.116200
vn -0.151900 0.986400 -0.062900
vn -0.085600 0.995700 -0.035500
vn 0.151900 0.986400 0.062900
vn -0.164400 0.986400 0.000000
vn -0.092700 0.995700 0.000000
vn 0.164400 0.986400 0.000000
vn 0.092700 0.995700 0.000000
vn -0.151900 0.986400 0.062900
vn -0.085600 0.995700 0.035500
vn 0.151900 0.986400 -0.062900
vn 0.085600 0.995700 -0.035500
vn -0.116200 0.986400 0.116200
vn -0.065500 0.995700 0.065500
vn 0.116200 0.986400 -0.116200
vn 0.065500 0.995700 -0.065500
vn -0.062900 0.986400 0.151900
vn 0.062900 0.986400 -0.151900
vn -0.657100 0.753700 0.000000
vn -0.607100 0.753700 0.251500
vn -0.464600 0.753700 0.464600
vn -0.251500 0.753700 0.607100
vn 0.000000 0.753700 0.657100
vn 0.251500 0.753700 0.607100
vn 0.464600 0.753700 0.464600
vn 0.607100 0.753700 0.251500
vn 0.657100 0.753700 0.000000
vn 0.607100 0.753700 -0.251500
vn 0.464600 0.753700 -0.464600
vn 0.251500 0.753700 -0.607100
vn 0.000000 0.753700 -0.657100
vn -0.251500 0.753700 -0.607100
vn -0.464600 0.753700 -0.464600
vn -1.000000 0.000000 0.000000
vn -0.923900 0.000000 -0.382700
vn 0.923900 0.000000 -0.382700
vn 1.000000 0.000000 0.000000
vn -0.923900 0.000000 0.382700
vn 0.707100 0.000000 -0.707100
vn -0.707100 0.000000 0.707100
vn 0.382700 0.000000 -0.923900
vn -0.382700 0.000000 0.923900
vn 0.000000 0.000000 -1.000000
vn 0.382700 0.000000 0.923900
vn 0.000000 0.000000 1.000000
vn -0.382700 0.000000 -0.923900
vn 0.707100 0.000000 0.707100
vn -0.707100 0.000000 -0.707100
vn 0.923900 0.000000 0.382700
s off
f 153/49/18 159/50/18 146/51/18
f 121/52/19 119/53/19 115/54/19
f 146/51/18 145/55/18 147/56/18
f 147/56/18 148/57/18 146/51/18
f 149/58/18 150/59/18 153/49/18
f 151/60/18 152/61/18 153/49/18
f 153/49/18 154/62/18 155/63/18
f 155/63/18 156/64/18 153/49/18
f 157/65/18 158/66/18 159/50/18
f 159/50/18 160/67/18 146/51/18
f 146/51/18 148/57/18 149/58/18
f 150/59/18 151/60/18 153/49/18
f 153/49/18 156/64/18 157/65/18
f 157/65/18 159/50/18 153/49/18
f 146/51/18 149/58/18 153/49/18
f 115/54/19 114/68/19 127/69/19
f 113/70/19 128/71/19 127/69/19
f 127/69/19 126/72/19 125/73/19
f 125/73/19 124/74/19 123/75/19
f 123/75/19 122/76/19 121/52/19
f 121/52/19 120/77/19 119/53/19
f 119/53/19 118/78/19 117/79/19
f 117/79/19 116/80/19 115/54/19
f 114/68/19 113/70/19 127/69/19
f 127/69/19 125/73/19 115/54/19
f 123/75/19 121/52/19 115/54/19
f 119/53/19 117/79/19 115/54/19
f 115/54/19 125/73/19 123/75/19
s 1
f 75/81/20 76/82/21 92/83/22
f 57/84/23 73/85/24 72/86/25
f 50/87/26 65/88/27 66/89/28
f 49/90/29 66/89/28 80/91/30
f 58/92/31 74/93/32 73/85/24
f 51/94/33 67/95/34 65/88/27
f 59/96/35 75/81/20 74/93/32
f 52/97/36 68/98/37 67/95/34
f 59/96/35 60/99/38 76/82/21
f 52/97/36 53/100/39 69/101/40
f 60/99/38 61/102/41 77/103/42
f 54/104/43 70/105/44 69/101/40
f 62/106/45 78/107/46 77/103/42
f 54/104/43 55/108/47 71/109/48
f 62/106/45 63/110/49 79/111/50
f 55/108/47 56/112/51 72/86/25
f 63/110/49 64/113/52 80/91/30
f 76/82/21 77/103/42 93/114/53
f 78/107/46 94/115/54 93/114/53
f 79/111/50 95/116/55 94/115/54
f 80/91/30 96/117/56 95/116/55
f 66/89/28 81/118/57 96/117/56
f 66/89/28 65/88/27 82/119/58
f 67/95/34 83/120/59 82/119/58
f 68/98/37 84/121/60 83/120/59
f 68/98/37 69/101/40 85/122/61
f 70/105/44 86/123/62 85/122/61
f 70/105/44 71/109/48 87/124/63
f 71/109/48 72/86/25 88/125/64
f 73/85/24 89/126/65 88/125/64
f 73/85/24 74/93/32 90/127/66
f 75/81/20 91/128/67 90/127/66
f 93/129/53 109/65/68 108/64/69
f 86/130/62 102/59/70 101/58/71
f 94/131/54 110/66/72 109/65/68
f 87/132/63 103/60/73 102/59/70
f 95/133/55 111/50/74 110/66/72
f 88/134/64 104/61/75 103/60/73
f 96/135/56 112/67/76 111/50/74
f 89/136/65 105/49/77 104/61/75
f 82/137/58 97/55/78 98/51/79
f 81/138/57 98/51/79 112/67/76
f 90/139/66 106/62/80 105/49/77
f 83/140/59 99/56/81 97/55/78
f 91/141/67 107/63/82 106/62/80
f 84/142/60 100/57/83 99/56/81
f 92/143/22 108/64/69 107/63/82
f 85/144/61 101/58/71 100/57/83
f 91/128/67 75/81/20 92/83/22
f 56/112/51 57/84/23 72/86/25
f 49/90/29 50/87/26 66/89/28
f 64/113/52 49/90/29 80/91/30
f 57/84/23 58/92/31 73/85/24
f 50/87/26 51/94/33 65/88/27
f 58/92/31 59/96/35 74/93/32
f 51/94/33 52/97/36 67/95/34
f 75/81/20 59/96/35 76/82/21
f 68/98/37 52/97/36 69/101/40
f 76/82/21 60/99/38 77/103/42
f 53/100/39 54/104/43 69/101/40
f 61/102/41 62/106/45 77/103/42
f 70/105/44 54/104/43 71/109/48
f 78/107/46 62/106/45 79/111/50
f 71/109/48 55/108/47 72/86/25
f 79/111/50 63/110/49 80/91/30
f 92/83/22 76/82/21 93/114/53
f 77/103/42 78/107/46 93/114/53
f 78/107/46 79/111/50 94/115/54
f 79/111/50 80/91/30 95/116/55
f 80/91/30 66/89/28 96/117/56
f 81/118/57 66/89/28 82/119/58
f 65/88/27 67/95/34 82/119/58
f 67/95/34 68/98/37 83/120/59
f 84/121/60 68/98/37 85/122/61
f 69/101/40 70/105/44 85/122/61
f 86/123/62 70/105/44 87/124/63
f 87/124/63 71/109/48 88/125/64
f 72/86/25 73/85/24 88/125/64
f 89/126/65 73/85/24 90/127/66
f 74/93/32 75/81/20 90/127/66
f 92/145/22 93/129/53 108/64/69
f 85/146/61 86/130/62 101/58/71
f 93/147/53 94/131/54 109/65/68
f 86/148/62 87/132/63 102/59/70
f 94/149/54 95/133/55 110/66/72
f 87/150/63 88/134/64 103/60/73
f 95/151/55 96/135/56 111/50/74
f 88/152/64 89/136/65 104/61/75
f 81/153/57 82/137/58 98/51/79
f 96/154/56 81/138/57 112/67/76
f 89/155/65 90/139/66 105/49/77
f 82/156/58 83/140/59 97/55/78
f 90/157/66 91/141/67 106/62/80
f 83/158/59 84/142/60 99/56/81
f 91/159/67 92/143/22 107/63/82
f 84/160/60 85/144/61 100/57/83
l 130 129
l 131 130
l 132 131
l 133 132
l 134 133
l 135 134
l 136 135
l 137 136
l 138 137
l 139 138
l 140 139
l 141 140
l 142 141
l 143 142
l 144 143
l 129 144
