# Blender v2.76 (sub 0) OBJ File: 'IT-cylinder.blend'
# www.blender.org
mtllib IT-cylinder.mtl
o Cylinder
v -1.000000 -0.000000 -1.000000
v 1.000000 0.000000 -1.000000
v -1.000000 -0.258819 -0.965926
v 1.000000 -0.258819 -0.965926
v -1.000000 -0.500000 -0.866025
v 1.000000 -0.500000 -0.866025
v -1.000000 -0.707107 -0.707107
v 1.000000 -0.707107 -0.707107
v -1.000000 -0.866026 -0.500000
v 1.000000 -0.866025 -0.500000
v -1.000000 -0.965926 -0.258819
v 1.000000 -0.965926 -0.258819
v -1.000000 -1.000000 -0.000000
v 1.000000 -1.000000 -0.000000
v -1.000000 -0.965926 0.258819
v 1.000000 -0.965926 0.258819
v -1.000000 -0.866026 0.500000
v 1.000000 -0.866025 0.500000
v -1.000000 -0.707107 0.707107
v 1.000000 -0.707107 0.707107
v -1.000000 -0.500000 0.866025
v 1.000000 -0.500000 0.866025
v -1.000000 -0.258819 0.965926
v 1.000000 -0.258819 0.965926
v -1.000000 -0.000000 1.000000
v 1.000000 -0.000000 1.000000
v -1.000000 0.258819 0.965926
v 1.000000 0.258819 0.965926
v -1.000000 0.500000 0.866026
v 1.000000 0.500000 0.866026
v -1.000000 0.707106 0.707107
v 1.000000 0.707106 0.707107
v -1.000000 0.866025 0.500000
v 1.000000 0.866025 0.500000
v -1.000000 0.965926 0.258819
v 1.000000 0.965926 0.258819
v -1.000000 1.000000 0.000000
v 1.000000 1.000000 0.000000
v -1.000000 0.965926 -0.258819
v 1.000000 0.965926 -0.258819
v -1.000000 0.866026 -0.499999
v 1.000000 0.866026 -0.499999
v -1.000000 0.707107 -0.707106
v 1.000000 0.707107 -0.707106
v -1.000000 0.500000 -0.866025
v 1.000000 0.500001 -0.866025
v -1.000000 0.258820 -0.965926
v 1.000000 0.258820 -0.965926
vt 0.500637 0.979002
vt 0.499362 0.020998
vt 0.914510 0.259947
vt 0.891331 0.152796
vt 0.879419 0.124038
vt 0.929229 0.103407
vt 0.962516 0.375409
vt 0.979002 0.499363
vt 0.962846 0.623360
vt 0.915147 0.738949
vt 0.839156 0.838255
vt 0.740053 0.914510
vt 0.624590 0.962516
vt 0.376640 0.962846
vt 0.261050 0.915147
vt 0.161744 0.839156
vt 0.085490 0.740053
vt 0.037484 0.624590
vt 0.020997 0.500637
vt 0.037154 0.376640
vt 0.084853 0.261050
vt 0.160844 0.161744
vt 0.259947 0.085490
vt 0.375410 0.037484
vt 0.623360 0.037155
vt 0.738949 0.084853
vt 0.838255 0.160844
vt 0.934974 0.109152
vt 0.941140 0.132164
vt 0.939037 0.116189
vt 0.941140 0.124038
vt 0.939037 0.140013
vt 0.934974 0.147050
vt 0.929229 0.152796
vt 0.922191 0.156859
vt 0.914343 0.158962
vt 0.906217 0.158962
vt 0.898368 0.156859
vt 0.885585 0.147050
vt 0.881522 0.140013
vt 0.879419 0.132164
vt 0.881522 0.116189
vt 0.885585 0.109152
vt 0.891331 0.103407
vt 0.898368 0.099344
vt 0.906217 0.097241
vt 0.914343 0.097241
vt 0.922192 0.099344
vt 0.932758 0.028405
vt 0.938478 0.028405
vt 0.938478 0.072229
vt 0.944199 0.028405
vt 0.944199 0.072229
vt 0.949919 0.028405
vt 0.949919 0.072229
vt 0.955639 0.028405
vt 0.955639 0.072229
vt 0.961359 0.028405
vt 0.967079 0.028405
vt 0.967079 0.072229
vt 0.829796 0.028405
vt 0.835516 0.028405
vt 0.835516 0.072229
vt 0.841236 0.028405
vt 0.841236 0.072229
vt 0.846956 0.028405
vt 0.846956 0.072229
vt 0.852676 0.028405
vt 0.852676 0.072229
vt 0.858396 0.028405
vt 0.858396 0.072229
vt 0.864117 0.028405
vt 0.864117 0.072229
vt 0.869837 0.028405
vt 0.869837 0.072229
vt 0.875557 0.028405
vt 0.875557 0.072229
vt 0.881277 0.028405
vt 0.881277 0.072229
vt 0.886997 0.028405
vt 0.892717 0.028405
vt 0.892717 0.072229
vt 0.898438 0.028405
vt 0.898438 0.072229
vt 0.904158 0.028405
vt 0.904158 0.072229
vt 0.909878 0.028405
vt 0.909878 0.072229
vt 0.915598 0.028405
vt 0.915598 0.072229
vt 0.921318 0.028405
vt 0.927038 0.028405
vt 0.932758 0.072229
vt 0.927038 0.072229
vt 0.961359 0.072229
vt 0.829796 0.072229
vt 0.886997 0.072229
vt 0.921318 0.072229
vn 1.000000 0.000000 -0.000000
vn -1.000000 0.000000 0.000000
vn 0.678900 0.000000 -0.734200
vn 0.678900 -0.190000 -0.709200
vn -0.678900 -0.190000 -0.709200
vn 0.678900 -0.367100 -0.635900
vn -0.678900 -0.367100 -0.635900
vn 0.678900 -0.519200 -0.519200
vn -0.678900 -0.519200 -0.519200
vn 0.678900 -0.635900 -0.367100
vn -0.678900 -0.635900 -0.367100
vn 0.678900 -0.709200 -0.190000
vn 0.678900 -0.734200 0.000000
vn -0.678900 -0.734200 0.000000
vn 0.678900 -0.709200 0.190000
vn -0.678900 -0.709200 0.190000
vn 0.678900 -0.635900 0.367100
vn -0.678900 -0.635900 0.367100
vn 0.678900 -0.519200 0.519200
vn -0.678900 -0.519200 0.519200
vn 0.678900 -0.367100 0.635900
vn -0.678900 -0.367100 0.635900
vn 0.678900 -0.190000 0.709200
vn -0.678900 -0.190000 0.709200
vn 0.678900 0.000000 0.734200
vn -0.678900 0.000000 0.734200
vn 0.678900 0.190000 0.709200
vn -0.678900 0.190000 0.709200
vn 0.678900 0.367100 0.635900
vn -0.678900 0.367100 0.635900
vn 0.678900 0.519200 0.519200
vn -0.678900 0.519200 0.519200
vn 0.678900 0.635900 0.367100
vn 0.678900 0.709200 0.190000
vn -0.678900 0.709200 0.190000
vn 0.678900 0.734200 0.000000
vn -0.678900 0.734200 0.000000
vn 0.678900 0.709200 -0.190000
vn -0.678900 0.709200 -0.190000
vn 0.678900 0.635900 -0.367100
vn -0.678900 0.635900 -0.367100
vn 0.678900 0.519200 -0.519200
vn -0.678900 0.519200 -0.519200
vn 0.678900 0.367100 -0.635900
vn 0.678900 0.190000 -0.709200
vn -0.678900 0.000000 -0.734200
vn -0.678900 0.190000 -0.709200
vn -0.678900 -0.709200 -0.190000
vn -0.678900 0.635900 0.367100
vn -0.678900 0.367100 -0.635900
usemtl Material.001
s off
f 38/1/1 14/2/1 6/3/1
f 23/4/2 31/5/2 47/6/2
f 6/3/1 4/7/1 2/8/1
f 2/8/1 48/9/1 46/10/1
f 46/10/1 44/11/1 42/12/1
f 42/12/1 40/13/1 46/10/1
f 38/1/1 36/14/1 34/15/1
f 34/15/1 32/16/1 30/17/1
f 30/17/1 28/18/1 26/19/1
f 26/19/1 24/20/1 22/21/1
f 22/21/1 20/22/1 14/2/1
f 18/23/1 16/24/1 14/2/1
f 14/2/1 12/25/1 6/3/1
f 10/26/1 8/27/1 6/3/1
f 6/3/1 2/8/1 46/10/1
f 46/10/1 40/13/1 38/1/1
f 38/1/1 34/15/1 30/17/1
f 30/17/1 26/19/1 38/1/1
f 20/22/1 18/23/1 14/2/1
f 12/25/1 10/26/1 6/3/1
f 6/3/1 46/10/1 38/1/1
f 38/1/1 26/19/1 22/21/1
f 22/21/1 14/2/1 38/1/1
f 47/6/2 1/28/2 7/29/2
f 3/30/2 5/31/2 7/29/2
f 7/29/2 9/32/2 11/33/2
f 11/33/2 13/34/2 15/35/2
f 15/35/2 17/36/2 19/37/2
f 19/37/2 21/38/2 23/4/2
f 23/4/2 25/39/2 27/40/2
f 27/40/2 29/41/2 23/4/2
f 31/5/2 33/42/2 35/43/2
f 35/43/2 37/44/2 39/45/2
f 39/45/2 41/46/2 43/47/2
f 43/47/2 45/48/2 47/6/2
f 1/28/2 3/30/2 7/29/2
f 7/29/2 11/33/2 15/35/2
f 15/35/2 19/37/2 23/4/2
f 23/4/2 29/41/2 31/5/2
f 31/5/2 35/43/2 47/6/2
f 39/45/2 43/47/2 47/6/2
f 47/6/2 7/29/2 15/35/2
f 15/35/2 23/4/2 47/6/2
f 35/43/2 39/45/2 47/6/2
s 1
f 2/49/3 4/50/4 3/51/5
f 4/50/4 6/52/6 5/53/7
f 6/52/6 8/54/8 7/55/9
f 8/54/8 10/56/10 9/57/11
f 9/57/11 10/56/10 12/58/12
f 12/58/12 14/59/13 13/60/14
f 14/61/13 16/62/15 15/63/16
f 16/62/15 18/64/17 17/65/18
f 18/64/17 20/66/19 19/67/20
f 20/66/19 22/68/21 21/69/22
f 22/68/21 24/70/23 23/71/24
f 24/70/23 26/72/25 25/73/26
f 26/72/25 28/74/27 27/75/28
f 28/74/27 30/76/29 29/77/30
f 30/76/29 32/78/31 31/79/32
f 31/79/32 32/78/31 34/80/33
f 34/80/33 36/81/34 35/82/35
f 36/81/34 38/83/36 37/84/37
f 38/83/36 40/85/38 39/86/39
f 40/85/38 42/87/40 41/88/41
f 42/87/40 44/89/42 43/90/43
f 43/90/43 44/89/42 46/91/44
f 48/92/45 2/49/3 1/93/46
f 46/91/44 48/92/45 47/94/47
f 1/93/46 2/49/3 3/51/5
f 3/51/5 4/50/4 5/53/7
f 5/53/7 6/52/6 7/55/9
f 7/55/9 8/54/8 9/57/11
f 11/95/48 9/57/11 12/58/12
f 11/95/48 12/58/12 13/60/14
f 13/96/14 14/61/13 15/63/16
f 15/63/16 16/62/15 17/65/18
f 17/65/18 18/64/17 19/67/20
f 19/67/20 20/66/19 21/69/22
f 21/69/22 22/68/21 23/71/24
f 23/71/24 24/70/23 25/73/26
f 25/73/26 26/72/25 27/75/28
f 27/75/28 28/74/27 29/77/30
f 29/77/30 30/76/29 31/79/32
f 33/97/49 31/79/32 34/80/33
f 33/97/49 34/80/33 35/82/35
f 35/82/35 36/81/34 37/84/37
f 37/84/37 38/83/36 39/86/39
f 39/86/39 40/85/38 41/88/41
f 41/88/41 42/87/40 43/90/43
f 45/98/50 43/90/43 46/91/44
f 47/94/47 48/92/45 1/93/46
f 45/98/50 46/91/44 47/94/47
