# Blender v2.76 (sub 0) OBJ File: 'naval_new_main.blend'
# www.blender.org
o Cube_Cube.001
v -0.600000 1.750000 0.650000
v -0.600000 2.000000 -0.750000
v 0.600000 1.750000 0.650000
v 0.600000 2.000000 -0.750000
v -0.600000 0.750000 1.000000
v 0.600000 0.750000 1.000000
v 1.000000 2.000000 -0.750000
v 1.000000 0.250000 -1.000000
v 1.000000 1.500000 0.550000
v 1.000000 0.250000 1.000000
v 1.000000 0.750000 0.900000
v -1.000000 0.750000 0.900000
v -1.000000 1.500000 0.550000
v -1.000000 2.000000 -0.750000
v -1.000000 0.250000 -1.000000
v -1.000000 0.250000 1.000000
v -0.250000 2.000000 -0.750000
v 0.250000 2.000000 -0.750000
v -0.250000 0.750000 1.000000
v 0.250000 0.750000 1.000000
v 0.250000 1.750000 0.650000
v -0.250000 1.750000 0.650000
v 0.250000 1.916667 -0.283333
v -0.250000 1.916667 -0.283333
v 0.250000 0.916667 -0.283333
v -0.250000 0.916667 -0.283333
vt 0.132064 0.342798
vt 0.077037 0.342798
vt 0.077037 0.251057
vt 0.210673 0.093653
vt 0.210673 0.014951
vt 0.265700 0.014951
vt 0.092759 0.464903
vt 0.210673 0.406760
vt 0.289282 0.722392
vt 0.892123 0.480467
vt 0.663112 0.706002
vt 0.783176 0.405289
vt 0.132064 0.093653
vt 0.077037 0.014951
vt 0.265700 0.342798
vt 0.210673 0.342798
vt 0.210673 0.251057
vt 0.671324 0.014951
vt 0.671324 0.347195
vt 0.356887 0.347195
vt 0.634813 0.709341
vt 0.356887 0.584749
vt 0.356887 0.501688
vt 0.132064 0.014951
vt 0.847321 0.985049
vt 0.847321 0.770800
vt 0.925930 0.770800
vt 0.847321 0.735904
vt 0.706710 0.172273
vt 0.699623 0.014951
vt 0.855533 0.036346
vt 0.819021 0.950884
vt 0.663112 0.972279
vt 0.670199 0.814957
vt 0.969337 0.501688
vt 0.985850 0.709341
vt 0.969337 0.584749
vt 0.132064 0.251057
vt 0.265700 0.251057
vt 0.289282 0.390148
vt 0.014150 0.680862
vt 0.707580 0.377097
vt 0.941038 0.706002
vt 0.356886 0.014951
vt 0.356887 0.443546
vt 0.634813 0.377097
vt 0.356886 0.377097
vt 0.356887 0.709341
vt 0.356887 0.642892
vt 0.925930 0.985049
vt 0.925930 0.735904
vt 0.855533 0.251326
vt 0.819021 0.735904
vt 0.969337 0.642892
vt 0.969337 0.443546
vt 0.985850 0.377097
vt 0.014150 0.014951
vt 0.328587 0.326557
vt 0.328587 0.360246
vt 0.328587 0.243539
vt 0.328587 0.014951
vt 0.014150 0.243539
vt 0.014150 0.326557
vt 0.014150 0.360246
vn 0.000000 0.330400 0.943900
vn 0.000000 0.984400 0.175800
vn 1.000000 0.000000 0.000000
vn -1.000000 0.000000 0.000000
vn 0.000000 -1.000000 0.000000
vn 0.000000 0.141400 -0.989900
vn 0.000000 0.991700 0.128800
vn 0.000000 0.000000 1.000000
vn -0.372900 0.362700 0.854100
vn -0.262600 0.268500 0.926800
vn -0.233400 0.272100 0.933500
vn -0.238100 0.190500 0.952400
vn -0.440600 0.379600 0.813500
vn 0.558400 0.774300 0.297800
vn -0.558400 0.774300 0.297800
vn 0.233400 0.272100 0.933500
vn 0.262600 0.268500 0.926800
vn 0.372900 0.362700 0.854100
vn 0.440600 0.379600 0.813500
vn 0.238100 0.190500 0.952400
s off
f 20/1/1 6/2/1 3/3/1
f 24/4/2 17/5/2 2/6/2
f 9/7/3 11/8/3 8/9/3
f 13/10/4 15/11/4 12/12/4
f 23/13/2 3/3/2 4/14/2
f 5/15/1 19/16/1 22/17/1
f 16/18/5 15/19/5 8/20/5
f 15/21/6 17/22/6 18/23/6
f 24/4/2 23/13/2 18/24/2
f 20/25/7 25/26/7 26/27/7
f 26/27/8 25/26/8 23/28/8
f 21/29/4 23/30/4 25/31/4
f 26/32/3 24/33/3 22/34/3
f 19/35/8 10/36/8 20/37/8
f 21/38/1 20/1/1 3/3/1
f 2/6/2 1/39/2 24/4/2
f 22/17/2 24/4/2 1/39/2
f 10/40/3 8/9/3 11/8/3
f 7/41/3 9/7/3 8/9/3
f 16/42/4 12/12/4 15/11/4
f 13/10/4 14/43/4 15/11/4
f 4/14/2 18/24/2 23/13/2
f 23/13/2 21/38/2 3/3/2
f 1/39/1 5/15/1 22/17/1
f 10/44/5 16/18/5 8/20/5
f 18/23/6 4/45/6 8/46/6
f 7/47/6 8/46/6 4/45/6
f 15/21/6 14/48/6 2/49/6
f 2/49/6 17/22/6 15/21/6
f 18/23/6 8/46/6 15/21/6
f 17/5/2 24/4/2 18/24/2
f 19/50/7 20/25/7 26/27/7
f 24/51/8 26/27/8 23/28/8
f 20/52/4 21/29/4 25/31/4
f 19/53/3 26/32/3 22/34/3
f 6/54/8 20/37/8 10/36/8
f 19/35/8 5/55/8 16/56/8
f 16/56/8 10/36/8 19/35/8
s 1
f 4/14/2 3/3/2 7/57/2
f 1/39/9 12/58/10 5/15/11
f 12/58/10 16/59/12 5/15/11
f 12/58/10 1/39/9 13/60/13
f 2/6/2 14/61/2 1/39/2
f 7/57/14 3/3/14 9/62/14
f 13/60/15 1/39/15 14/61/15
f 6/2/16 11/63/17 3/3/18
f 11/63/17 9/62/19 3/3/18
f 10/64/20 11/63/17 6/2/16
