# Blender v2.76 (sub 0) OBJ File: ''
# www.blender.org
o Plane
v -2.500000 0.000000 2.500000
v 2.500000 0.000000 2.500000
v -2.500000 0.000000 -2.500000
v 2.500000 0.000000 -2.500000
v -2.500000 0.000000 -2.500000
v -2.500000 0.000000 2.500000
v 2.500000 0.000000 -2.500000
v 2.500000 0.000000 2.500000
vt 0.999900 0.000100
vt 0.999900 0.999900
vt 0.000100 0.999900
vt 0.000100 0.000100
vn 0.000000 1.000000 0.000000
vn 0.000000 -1.000000 0.000000
s off
f 2/1/1 4/2/1 3/3/1
f 7/4/2 8/1/2 6/2/2
f 1/4/1 2/1/1 3/3/1
f 5/3/2 7/4/2 6/2/2
