# Blender v2.76 (sub 0) OBJ File: 'rbmk_element.blend'
# www.blender.org
o Cube_Cube.001
v -0.500000 0.000000 0.500000
v -0.500000 1.000000 0.500000
v -0.500000 0.000000 -0.500000
v -0.500000 1.000000 -0.500000
v 0.500000 0.000000 0.500000
v 0.500000 1.000000 0.500000
v 0.500000 0.000000 -0.500000
v 0.500000 1.000000 -0.500000
v -0.437400 1.000000 0.312500
v -0.437400 1.000000 0.187500
v -0.312400 1.000000 0.437500
v -0.312400 1.000000 0.062500
v -0.187400 1.000000 0.437500
v -0.187400 1.000000 0.062500
v -0.062400 1.000000 0.312500
v -0.062400 1.000000 0.187500
v -0.437400 0.000000 -0.187500
v -0.437400 0.000000 -0.312500
v -0.312400 0.000000 -0.062500
v -0.312400 0.000000 -0.437500
v -0.187400 0.000000 -0.062500
v -0.187400 0.000000 -0.437500
v -0.062400 0.000000 -0.187500
v -0.062400 0.000000 -0.312500
v -0.062400 1.000000 -0.312500
v -0.062400 1.000000 -0.187500
v -0.187400 1.000000 -0.437500
v -0.187400 1.000000 -0.062500
v -0.312400 1.000000 -0.437500
v -0.312400 1.000000 -0.062500
v -0.437400 1.000000 -0.312500
v -0.437400 1.000000 -0.187500
v -0.062400 0.000000 0.187500
v -0.062400 0.000000 0.312500
v -0.187400 0.000000 0.062500
v -0.187400 0.000000 0.437500
v -0.312400 0.000000 0.062500
v -0.312400 0.000000 0.437500
v -0.437400 0.000000 0.187500
v -0.437400 0.000000 0.312500
v 0.062600 1.000000 0.312500
v 0.062600 1.000000 0.187500
v 0.187600 1.000000 0.437500
v 0.187600 1.000000 0.062500
v 0.312600 1.000000 0.437500
v 0.312600 1.000000 0.062500
v 0.437600 1.000000 0.312500
v 0.437600 1.000000 0.187500
v 0.062600 0.000000 -0.187500
v 0.062600 0.000000 -0.312500
v 0.187600 0.000000 -0.062500
v 0.187600 0.000000 -0.437500
v 0.312600 0.000000 -0.062500
v 0.312600 0.000000 -0.437500
v 0.437600 0.000000 -0.187500
v 0.437600 0.000000 -0.312500
v 0.437600 1.000000 -0.312500
v 0.437600 1.000000 -0.187500
v 0.312600 1.000000 -0.437500
v 0.312600 1.000000 -0.062500
v 0.187600 1.000000 -0.437500
v 0.187600 1.000000 -0.062500
v 0.062600 1.000000 -0.312500
v 0.062600 1.000000 -0.187500
v 0.437600 0.000000 0.187500
v 0.437600 0.000000 0.312500
v 0.312600 0.000000 0.062500
v 0.312600 0.000000 0.437500
v 0.187600 0.000000 0.062500
v 0.187600 0.000000 0.437500
v 0.062600 0.000000 0.187500
v 0.062600 0.000000 0.312500
v -0.374900 0.000000 0.312500
v -0.374900 0.000000 0.187500
v -0.312400 0.000000 0.375000
v -0.312400 0.000000 0.125000
v -0.187400 0.000000 0.375000
v -0.187400 0.000000 0.125000
v -0.124900 0.000000 0.312500
v -0.124900 0.000000 0.187500
v -0.374900 1.000000 0.312500
v -0.312400 1.000000 0.375000
v -0.374900 1.000000 0.187500
v -0.312400 1.000000 0.125000
v -0.187400 1.000000 0.375000
v -0.187400 1.000000 0.125000
v -0.124900 1.000000 0.312500
v -0.124900 1.000000 0.187500
v -0.374900 0.000000 -0.187500
v -0.374900 0.000000 -0.312500
v -0.312400 0.000000 -0.125000
v -0.312400 0.000000 -0.375000
v -0.187400 0.000000 -0.125000
v -0.187400 0.000000 -0.375000
v -0.124900 0.000000 -0.187500
v -0.124900 0.000000 -0.312500
v -0.374900 1.000000 -0.187500
v -0.312400 1.000000 -0.125000
v -0.374900 1.000000 -0.312500
v -0.312400 1.000000 -0.375000
v -0.187400 1.000000 -0.125000
v -0.187400 1.000000 -0.375000
v -0.124900 1.000000 -0.187500
v -0.124900 1.000000 -0.312500
v 0.125100 0.000000 -0.187500
v 0.125100 0.000000 -0.312500
v 0.187600 0.000000 -0.125000
v 0.187600 0.000000 -0.375000
v 0.312600 0.000000 -0.125000
v 0.312600 0.000000 -0.375000
v 0.375100 0.000000 -0.187500
v 0.375100 0.000000 -0.312500
v 0.125100 1.000000 -0.187500
v 0.187600 1.000000 -0.125000
v 0.125100 1.000000 -0.312500
v 0.187600 1.000000 -0.375000
v 0.312600 1.000000 -0.125000
v 0.312600 1.000000 -0.375000
v 0.375100 1.000000 -0.187500
v 0.375100 1.000000 -0.312500
v 0.125100 0.000000 0.312500
v 0.125100 0.000000 0.187500
v 0.187600 0.000000 0.375000
v 0.187600 0.000000 0.125000
v 0.312600 0.000000 0.375000
v 0.312600 0.000000 0.125000
v 0.375100 0.000000 0.312500
v 0.375100 0.000000 0.187500
v 0.125100 1.000000 0.312500
v 0.187600 1.000000 0.375000
v 0.125100 1.000000 0.187500
v 0.187600 1.000000 0.125000
v 0.312600 1.000000 0.375000
v 0.312600 1.000000 0.125000
v 0.375100 1.000000 0.312500
v 0.375100 1.000000 0.187500
vt 0.000000 0.500000
vt -0.000000 -0.000000
vt 0.500000 -0.000000
vt 0.000058 0.000058
vt 0.500000 1.000000
vt 0.500000 0.500000
vt 0.562500 0.500000
vt 0.562500 1.000000
vt 0.218750 0.593750
vt 0.281250 0.593750
vt 0.281250 0.656250
vt 0.218750 0.843750
vt 0.281250 0.843750
vt 0.281250 0.906250
vt 0.406250 0.781250
vt 0.343750 0.781250
vt 0.343750 0.718750
vt 0.156250 0.781250
vt 0.093750 0.781250
vt 0.093750 0.718750
vt 0.156250 0.718750
vt 0.000000 1.000000
vt 0.156250 0.968750
vt 0.031250 0.656250
vt 0.031250 0.843750
vt 0.343750 0.531250
vt 0.156250 0.531250
vt 0.031250 0.593750
vt 0.093750 0.531250
vt 0.468750 0.843750
vt 0.468750 0.656250
vt 0.406250 0.531250
vt 0.468750 0.593750
vt 0.406250 0.968750
vt 0.468750 0.906250
vt 0.031250 0.906250
vt 0.093750 0.968750
vt 0.218750 0.656250
vt 0.218750 0.906250
vt 0.406250 0.718750
vt 0.343750 0.968750
vt 0.656250 0.968750
vt 0.687500 0.875000
vt 0.781250 0.906250
vt 0.750000 0.875000
vt 0.781250 0.968750
vt 0.687500 1.000000
vt 0.593750 0.500000
vt 0.593750 1.000000
vt 0.656250 0.500000
vt 0.656250 1.000000
vt 0.750000 1.000000
vt 0.656250 0.906250
vn -1.000000 0.000000 0.000000
vn 0.000000 0.000000 -1.000000
vn 1.000000 0.000000 0.000000
vn 0.000000 0.000000 1.000000
vn 0.707100 0.000000 0.707100
vn -0.707100 0.000000 0.707100
vn -0.707100 0.000000 -0.707100
vn 0.707100 0.000000 -0.707100
vn 0.000000 1.000000 0.000000
vn 0.000000 -1.000000 0.000000
s off
f 4/1/1 3/2/1 1/3/1
f 8/1/2 7/4/2 3/3/2
f 6/1/3 5/4/3 7/3/3
f 2/1/4 1/2/4 5/3/4
f 10/5/5 39/6/5 37/7/5
f 9/5/3 40/6/3 39/7/3
f 12/5/4 37/6/4 35/7/4
f 14/5/6 35/6/6 33/7/6
f 33/6/1 34/7/1 15/8/1
f 34/6/7 36/7/7 13/8/7
f 36/6/2 38/7/2 11/8/2
f 38/6/8 40/7/8 9/8/8
f 31/5/5 18/6/5 20/7/5
f 32/5/3 17/6/3 18/7/3
f 29/5/4 20/6/4 22/7/4
f 27/5/6 22/6/6 24/7/6
f 24/6/1 23/7/1 26/8/1
f 23/6/7 21/7/7 28/8/7
f 21/6/2 19/7/2 30/8/2
f 19/6/8 17/7/8 32/8/8
f 42/5/5 71/6/5 69/7/5
f 41/5/3 72/6/3 71/7/3
f 44/5/4 69/6/4 67/7/4
f 46/5/6 67/6/6 65/7/6
f 65/6/1 66/7/1 47/8/1
f 66/6/7 68/7/7 45/8/7
f 68/6/2 70/7/2 43/8/2
f 70/6/8 72/7/8 41/8/8
f 63/5/5 50/6/5 52/7/5
f 64/5/3 49/6/3 50/7/3
f 61/5/4 52/6/4 54/7/4
f 59/5/6 54/6/6 56/7/6
f 56/6/1 55/7/1 58/8/1
f 55/6/7 53/7/7 60/8/7
f 53/6/2 51/7/2 62/8/2
f 51/6/8 49/7/8 64/8/8
f 15/9/9 41/10/9 42/11/9
f 26/12/9 64/13/9 63/14/9
f 60/15/9 62/16/9 44/17/9
f 28/18/9 30/19/9 12/20/9
f 62/16/9 26/12/9 14/21/9
f 4/22/9 27/23/9 8/5/9
f 2/1/9 10/24/9 32/25/9
f 43/26/9 13/27/9 6/6/9
f 9/28/9 2/1/9 11/29/9
f 58/30/9 48/31/9 6/6/9
f 45/32/9 6/6/9 47/33/9
f 59/34/9 57/35/9 8/5/9
f 31/36/9 29/37/9 4/22/9
f 69/21/10 51/18/10 53/19/10
f 71/38/10 72/9/10 34/10/10
f 50/39/10 49/12/10 23/13/10
f 37/40/10 19/15/10 21/16/10
f 23/13/10 51/18/10 71/38/10
f 1/6/10 36/26/10 5/1/10
f 5/1/10 65/24/10 55/25/10
f 52/23/10 22/41/10 7/22/10
f 17/30/10 39/31/10 1/6/10
f 18/35/10 3/5/10 20/34/10
f 40/33/10 38/32/10 1/6/10
f 68/29/10 66/28/10 5/1/10
f 54/37/10 7/22/10 56/36/10
f 76/42/10 80/43/10 77/44/10
f 88/45/9 84/46/9 81/47/9
f 75/48/6 82/49/6 81/8/6
f 78/48/8 86/49/8 88/8/8
f 80/50/3 88/51/3 87/49/3
f 77/50/4 85/51/4 82/49/4
f 73/50/1 81/51/1 83/49/1
f 79/48/5 87/49/5 85/8/5
f 76/50/2 84/51/2 86/49/2
f 74/48/7 83/49/7 84/8/7
f 92/42/10 96/43/10 93/44/10
f 104/45/9 100/46/9 97/47/9
f 91/48/6 98/49/6 97/8/6
f 94/48/8 102/49/8 104/8/8
f 96/50/3 104/51/3 103/49/3
f 93/50/4 101/51/4 98/49/4
f 89/50/1 97/51/1 99/49/1
f 95/48/5 103/49/5 101/8/5
f 92/50/2 100/51/2 102/49/2
f 90/48/7 99/49/7 100/8/7
f 108/42/10 112/43/10 109/44/10
f 120/45/9 116/46/9 113/47/9
f 107/48/6 114/49/6 113/8/6
f 110/48/8 118/49/8 120/8/8
f 112/50/3 120/51/3 119/49/3
f 109/50/4 117/51/4 114/49/4
f 105/50/1 113/51/1 115/49/1
f 111/48/5 119/49/5 117/8/5
f 108/50/2 116/51/2 118/49/2
f 106/48/7 115/49/7 116/8/7
f 124/42/10 128/43/10 125/44/10
f 136/45/9 132/46/9 129/47/9
f 123/48/6 130/49/6 129/8/6
f 126/48/8 134/49/8 136/8/8
f 128/50/3 136/51/3 135/49/3
f 125/50/4 133/51/4 130/49/4
f 121/50/1 129/51/1 131/49/1
f 127/48/5 135/49/5 133/8/5
f 124/50/2 132/51/2 134/49/2
f 122/48/7 131/49/7 132/8/7
f 2/6/1 4/1/1 1/3/1
f 4/6/2 8/1/2 3/3/2
f 8/6/3 6/1/3 7/3/3
f 6/6/4 2/1/4 5/3/4
f 12/8/5 10/5/5 37/7/5
f 10/8/3 9/5/3 39/7/3
f 14/8/4 12/5/4 35/7/4
f 16/8/6 14/5/6 33/7/6
f 16/5/1 33/6/1 15/8/1
f 15/5/7 34/6/7 13/8/7
f 13/5/2 36/6/2 11/8/2
f 11/5/8 38/6/8 9/8/8
f 29/8/5 31/5/5 20/7/5
f 31/8/3 32/5/3 18/7/3
f 27/8/4 29/5/4 22/7/4
f 25/8/6 27/5/6 24/7/6
f 25/5/1 24/6/1 26/8/1
f 26/5/7 23/6/7 28/8/7
f 28/5/2 21/6/2 30/8/2
f 30/5/8 19/6/8 32/8/8
f 44/8/5 42/5/5 69/7/5
f 42/8/3 41/5/3 71/7/3
f 46/8/4 44/5/4 67/7/4
f 48/8/6 46/5/6 65/7/6
f 48/5/1 65/6/1 47/8/1
f 47/5/7 66/6/7 45/8/7
f 45/5/2 68/6/2 43/8/2
f 43/5/8 70/6/8 41/8/8
f 61/8/5 63/5/5 52/7/5
f 63/8/3 64/5/3 50/7/3
f 59/8/4 61/5/4 54/7/4
f 57/8/6 59/5/6 56/7/6
f 57/5/1 56/6/1 58/8/1
f 58/5/7 55/6/7 60/8/7
f 60/5/2 53/6/2 62/8/2
f 62/5/8 51/6/8 64/8/8
f 16/38/9 15/9/9 42/11/9
f 25/39/9 26/12/9 63/14/9
f 46/40/9 60/15/9 44/17/9
f 14/21/9 28/18/9 12/20/9
f 14/21/9 16/38/9 42/11/9
f 42/11/9 44/17/9 62/16/9
f 62/16/9 64/13/9 26/12/9
f 26/12/9 28/18/9 14/21/9
f 14/21/9 42/11/9 62/16/9
f 59/34/9 8/5/9 61/41/9
f 4/22/9 29/37/9 27/23/9
f 27/23/9 25/39/9 63/14/9
f 61/41/9 8/5/9 27/23/9
f 27/23/9 63/14/9 61/41/9
f 31/36/9 4/22/9 32/25/9
f 2/1/9 9/28/9 10/24/9
f 10/24/9 12/20/9 30/19/9
f 32/25/9 4/22/9 2/1/9
f 10/24/9 30/19/9 32/25/9
f 2/1/9 6/6/9 13/27/9
f 43/26/9 41/10/9 15/9/9
f 6/6/9 45/32/9 43/26/9
f 13/27/9 11/29/9 2/1/9
f 43/26/9 15/9/9 13/27/9
f 6/6/9 8/5/9 58/30/9
f 58/30/9 60/15/9 46/40/9
f 8/5/9 57/35/9 58/30/9
f 48/31/9 47/33/9 6/6/9
f 58/30/9 46/40/9 48/31/9
f 67/20/10 69/21/10 53/19/10
f 33/11/10 71/38/10 34/10/10
f 24/14/10 50/39/10 23/13/10
f 35/17/10 37/40/10 21/16/10
f 71/38/10 33/11/10 35/17/10
f 35/17/10 21/16/10 23/13/10
f 23/13/10 49/12/10 51/18/10
f 51/18/10 69/21/10 71/38/10
f 71/38/10 35/17/10 23/13/10
f 68/29/10 5/1/10 70/27/10
f 1/6/10 38/32/10 36/26/10
f 36/26/10 34/10/10 72/9/10
f 70/27/10 5/1/10 36/26/10
f 36/26/10 72/9/10 70/27/10
f 56/36/10 7/22/10 55/25/10
f 5/1/10 66/28/10 65/24/10
f 65/24/10 67/20/10 53/19/10
f 55/25/10 7/22/10 5/1/10
f 65/24/10 53/19/10 55/25/10
f 3/5/10 7/22/10 22/41/10
f 52/23/10 50/39/10 24/14/10
f 7/22/10 54/37/10 52/23/10
f 22/41/10 20/34/10 3/5/10
f 52/23/10 24/14/10 22/41/10
f 1/6/10 3/5/10 17/30/10
f 17/30/10 19/15/10 37/40/10
f 3/5/10 18/35/10 17/30/10
f 39/31/10 40/33/10 1/6/10
f 17/30/10 37/40/10 39/31/10
f 77/44/10 75/46/10 73/52/10
f 73/52/10 74/47/10 76/42/10
f 76/42/10 78/53/10 80/43/10
f 80/43/10 79/45/10 77/44/10
f 77/44/10 73/52/10 76/42/10
f 81/47/9 82/42/9 85/53/9
f 85/53/9 87/43/9 88/45/9
f 88/45/9 86/44/9 84/46/9
f 84/46/9 83/52/9 81/47/9
f 81/47/9 85/53/9 88/45/9
f 73/7/6 75/48/6 81/8/6
f 80/7/8 78/48/8 88/8/8
f 79/48/3 80/50/3 87/49/3
f 75/48/4 77/50/4 82/49/4
f 74/48/1 73/50/1 83/49/1
f 77/7/5 79/48/5 85/8/5
f 78/48/2 76/50/2 86/49/2
f 76/7/7 74/48/7 84/8/7
f 93/44/10 91/46/10 89/52/10
f 89/52/10 90/47/10 92/42/10
f 92/42/10 94/53/10 96/43/10
f 96/43/10 95/45/10 93/44/10
f 93/44/10 89/52/10 92/42/10
f 97/47/9 98/42/9 101/53/9
f 101/53/9 103/43/9 104/45/9
f 104/45/9 102/44/9 100/46/9
f 100/46/9 99/52/9 97/47/9
f 97/47/9 101/53/9 104/45/9
f 89/7/6 91/48/6 97/8/6
f 96/7/8 94/48/8 104/8/8
f 95/48/3 96/50/3 103/49/3
f 91/48/4 93/50/4 98/49/4
f 90/48/1 89/50/1 99/49/1
f 93/7/5 95/48/5 101/8/5
f 94/48/2 92/50/2 102/49/2
f 92/7/7 90/48/7 100/8/7
f 109/44/10 107/46/10 105/52/10
f 105/52/10 106/47/10 108/42/10
f 108/42/10 110/53/10 112/43/10
f 112/43/10 111/45/10 109/44/10
f 109/44/10 105/52/10 108/42/10
f 113/47/9 114/42/9 117/53/9
f 117/53/9 119/43/9 120/45/9
f 120/45/9 118/44/9 116/46/9
f 116/46/9 115/52/9 113/47/9
f 113/47/9 117/53/9 120/45/9
f 105/7/6 107/48/6 113/8/6
f 112/7/8 110/48/8 120/8/8
f 111/48/3 112/50/3 119/49/3
f 107/48/4 109/50/4 114/49/4
f 106/48/1 105/50/1 115/49/1
f 109/7/5 111/48/5 117/8/5
f 110/48/2 108/50/2 118/49/2
f 108/7/7 106/48/7 116/8/7
f 125/44/10 123/46/10 121/52/10
f 121/52/10 122/47/10 124/42/10
f 124/42/10 126/53/10 128/43/10
f 128/43/10 127/45/10 125/44/10
f 125/44/10 121/52/10 124/42/10
f 129/47/9 130/42/9 133/53/9
f 133/53/9 135/43/9 136/45/9
f 136/45/9 134/44/9 132/46/9
f 132/46/9 131/52/9 129/47/9
f 129/47/9 133/53/9 136/45/9
f 121/7/6 123/48/6 129/8/6
f 128/7/8 126/48/8 136/8/8
f 127/48/3 128/50/3 135/49/3
f 123/48/4 125/50/4 130/49/4
f 122/48/1 121/50/1 131/49/1
f 125/7/5 127/48/5 133/8/5
f 126/48/2 124/50/2 134/49/2
f 124/7/7 122/48/7 132/8/7
