# Blender v2.76 (sub 0) OBJ File: 'rbmk_rods.blend'
# www.blender.org
o Cube.001_Cube.002
v -0.500000 1.125000 0.500000
v -0.500000 1.250000 0.500000
v -0.500000 1.125000 -0.500000
v -0.500000 1.250000 -0.500000
v 0.500000 1.125000 0.500000
v 0.500000 1.250000 0.500000
v 0.500000 1.125000 -0.500000
v 0.500000 1.250000 -0.500000
v -0.375000 1.125000 0.375000
v -0.375000 1.125000 0.125000
v -0.125000 1.125000 0.375000
v -0.125000 1.125000 0.125000
v -0.375000 0.125000 0.375000
v -0.375000 0.125000 0.125000
v -0.125000 0.125000 0.375000
v -0.125000 0.125000 0.125000
v 0.125000 1.125000 -0.125000
v 0.125000 1.125000 -0.375000
v 0.375000 1.125000 -0.125000
v 0.375000 1.125000 -0.375000
v 0.125000 0.125000 -0.125000
v 0.125000 0.125000 -0.375000
v 0.375000 0.125000 -0.125000
v 0.375000 0.125000 -0.375000
v -0.125000 0.125000 -0.375000
v -0.125000 0.125000 -0.125000
v -0.375000 0.125000 -0.375000
v -0.375000 0.125000 -0.125000
v -0.125000 1.125000 -0.375000
v -0.125000 1.125000 -0.125000
v -0.375000 1.125000 -0.375000
v -0.375000 1.125000 -0.125000
v 0.125000 1.125000 0.375000
v 0.125000 1.125000 0.125000
v 0.375000 1.125000 0.375000
v 0.375000 1.125000 0.125000
v 0.125000 0.125000 0.375000
v 0.125000 0.125000 0.125000
v 0.375000 0.125000 0.375000
v 0.375000 0.125000 0.125000
vt 1.000000 0.000000
vt 1.000000 0.062500
vt 0.500000 0.062500
vt 0.500000 0.000000
vt 0.000100 0.500100
vt 0.499900 0.500100
vt 0.499900 0.999900
vt 0.500000 1.000000
vt -0.000000 1.000000
vt -0.000000 0.500000
vt 0.500000 0.500000
vt 0.625000 0.500000
vt 0.000100 0.999900
vt 0.625000 1.000000
vn -1.000000 0.000000 0.000000
vn 0.000000 0.000000 -1.000000
vn 1.000000 0.000000 0.000000
vn 0.000000 0.000000 1.000000
vn 0.000000 -1.000000 0.000000
vn 0.000000 1.000000 0.000000
s off
f 4/1/1 3/2/1 1/3/1
f 8/1/2 7/2/2 3/3/2
f 6/3/3 5/4/3 7/1/3
f 2/3/4 1/4/4 5/1/4
f 3/5/5 7/6/5 5/7/5
f 8/8/6 4/9/6 2/10/6
f 9/8/4 13/11/4 15/12/4
f 10/8/1 14/11/1 13/12/1
f 12/8/2 16/11/2 14/12/2
f 11/8/3 15/11/3 16/12/3
f 17/8/4 21/11/4 23/12/4
f 18/8/1 22/11/1 21/12/1
f 20/8/2 24/11/2 22/12/2
f 19/8/3 23/11/3 24/12/3
f 30/8/3 26/11/3 25/12/3
f 29/8/2 25/11/2 27/12/2
f 31/8/1 27/11/1 28/12/1
f 32/8/4 28/11/4 26/12/4
f 33/8/4 37/11/4 39/12/4
f 34/8/1 38/11/1 37/12/1
f 36/8/2 40/11/2 38/12/2
f 35/8/3 39/11/3 40/12/3
f 2/4/1 4/1/1 1/3/1
f 4/4/2 8/1/2 3/3/2
f 8/2/3 6/3/3 7/1/3
f 6/2/4 2/3/4 5/1/4
f 1/13/5 3/5/5 5/7/5
f 6/11/6 8/8/6 2/10/6
f 11/14/4 9/8/4 15/12/4
f 9/14/1 10/8/1 13/12/1
f 10/14/2 12/8/2 14/12/2
f 12/14/3 11/8/3 16/12/3
f 19/14/4 17/8/4 23/12/4
f 17/14/1 18/8/1 21/12/1
f 18/14/2 20/8/2 22/12/2
f 20/14/3 19/8/3 24/12/3
f 29/14/3 30/8/3 25/12/3
f 31/14/2 29/8/2 27/12/2
f 32/14/1 31/8/1 28/12/1
f 30/14/4 32/8/4 26/12/4
f 35/14/4 33/8/4 39/12/4
f 33/14/1 34/8/1 37/12/1
f 34/14/2 36/8/2 38/12/2
f 36/14/3 35/8/3 40/12/3
