# Blender v2.76 (sub 0) OBJ File: 'derrick_new.blend'
# www.blender.org
o Plane
v -1.500000 0.000000 1.500000
v 1.500000 0.000000 1.500000
v -1.500000 0.000000 -1.500000
v 1.500000 0.000000 -1.500000
v -1.500000 0.000000 1.250000
v 1.500000 0.000000 1.250000
v -1.500000 0.000000 -1.250000
v 1.500000 0.000000 -1.250000
v 1.250000 0.000000 1.500000
v 1.250000 0.000000 -1.500000
v 1.250000 0.000000 1.250000
v 1.250000 0.000000 -1.250000
v -1.250000 0.000000 1.500000
v -1.250000 0.000000 -1.500000
v -1.250000 0.000000 1.250000
v -1.250000 0.000000 -1.250000
v 0.250000 6.000000 0.500000
v 0.250000 6.000000 0.250000
v 0.500000 6.000000 0.500000
v 0.500000 6.000000 0.250000
v -0.500000 6.000000 0.250000
v -0.500000 6.000000 0.500000
v -0.250000 6.000000 0.250000
v -0.250000 6.000000 0.500000
v -0.250000 6.000000 -0.250000
v -0.500000 6.000000 -0.250000
v -0.500000 6.000000 -0.500000
v -0.250000 6.000000 -0.500000
v 0.250000 6.000000 -0.250000
v 0.500000 6.000000 -0.250000
v 0.500000 6.000000 -0.500000
v 0.250000 6.000000 -0.500000
v -0.500000 0.000000 0.500000
v 0.500000 0.000000 0.500000
v -0.500000 0.000000 -0.500000
v 0.500000 0.000000 -0.500000
v -0.250000 0.250000 -0.250000
v -0.250000 0.250000 0.250000
v 0.250000 0.250000 0.250000
v 0.250000 0.250000 -0.250000
v 0.000000 0.250000 -0.250000
v 0.000000 6.250000 -0.250000
v 0.176777 0.250000 -0.176777
v 0.176777 6.250000 -0.176777
v 0.250000 0.250000 0.000000
v 0.250000 6.250000 0.000000
v 0.176777 0.250000 0.176777
v 0.176777 6.250000 0.176777
v -0.000000 0.250000 0.250000
v -0.000000 6.250000 0.250000
v -0.176777 0.250000 0.176777
v -0.176777 6.250000 0.176777
v -0.250000 0.250000 -0.000000
v -0.250000 6.250000 -0.000000
v -0.176777 0.250000 -0.176777
v -0.176777 6.250000 -0.176777
v 0.850000 2.400000 1.100000
v 0.650000 3.600000 0.900000
v 0.450000 4.800000 0.700000
v 0.450000 4.800000 0.450000
v 0.650000 3.600000 0.650000
v 0.850000 2.400000 0.850000
v 1.100000 2.400000 0.850000
v 0.900000 3.600000 0.650000
v 0.700000 4.800000 0.450000
v 0.850000 2.400000 -1.100000
v 0.650000 3.600000 -0.900000
v 0.450000 4.800000 -0.700000
v 0.850000 2.400000 -0.850000
v 0.650000 3.600000 -0.650000
v 0.450000 4.800000 -0.450000
v 1.100000 2.400000 -0.850000
v 0.900000 3.600000 -0.650000
v 0.700000 4.800000 -0.450000
v -0.850000 2.400000 -0.850000
v -0.650000 3.600000 -0.650000
v -0.450000 4.800000 -0.450000
v -0.700000 4.800000 -0.450000
v -0.900000 3.600000 -0.650000
v -1.100000 2.400000 -0.850000
v -0.450000 4.800000 -0.700000
v -0.650000 3.600000 -0.900000
v -0.850000 2.400000 -1.100000
v -0.850000 2.400000 0.850000
v -0.650000 3.600000 0.650000
v -0.450000 4.800000 0.450000
v -0.450000 4.800000 0.700000
v -0.650000 3.600000 0.900000
v -0.850000 2.400000 1.100000
v -0.700000 4.800000 0.450000
v -0.900000 3.600000 0.650000
v -1.100000 2.400000 0.850000
v 0.283333 2.400000 -0.850000
v -0.283333 2.400000 -0.850000
v 0.283333 2.400000 -1.100000
v -0.283333 2.400000 -1.100000
v 0.850000 2.400000 0.283333
v 0.850000 2.400000 -0.283333
v 1.100000 2.400000 0.283333
v 1.100000 2.400000 -0.283333
v 0.283333 2.400000 1.100000
v -0.283333 2.400000 1.100000
v 0.283333 2.400000 0.850000
v -0.283333 2.400000 0.850000
v -0.850000 2.400000 -0.283333
v -0.850000 2.400000 0.283333
v -1.100000 2.400000 -0.283333
v -1.100000 2.400000 0.283333
v -0.156250 0.343750 0.500000
v -0.156250 0.656250 0.500000
v -0.156250 0.343750 -0.500000
v -0.156250 0.656250 -0.500000
v 0.156250 0.343750 0.500000
v 0.156250 0.656250 0.500000
v 0.156250 0.343750 -0.500000
v 0.156250 0.656250 -0.500000
v 0.156250 0.656250 -0.156250
v 0.156250 0.343750 -0.156250
v 0.156250 0.656250 0.156250
v 0.156250 0.343750 0.156250
v -0.156250 0.656250 -0.156250
v -0.156250 0.343750 -0.156250
v -0.156250 0.656250 0.156250
v -0.156250 0.343750 0.156250
v 0.500000 0.343750 0.156250
v 0.500000 0.656250 0.156250
v -0.500000 0.343750 0.156250
v -0.500000 0.656250 0.156250
v 0.500000 0.343750 -0.156250
v 0.500000 0.656250 -0.156250
v -0.500000 0.343750 -0.156250
v -0.500000 0.656250 -0.156250
v -0.000000 6.250000 -0.125000
v 0.088388 6.250000 -0.088388
v 0.125000 6.250000 0.000000
v 0.088388 6.250000 0.088388
v -0.000000 6.250000 0.125000
v -0.088388 6.250000 0.088388
v -0.125000 6.250000 -0.000000
v -0.088388 6.250000 -0.088388
v 0.088388 7.000000 -0.088388
v -0.000000 7.000000 -0.125000
v 0.125000 7.000000 0.000000
v 0.088388 7.000000 0.088388
v -0.000000 7.000000 0.125000
v -0.088388 7.000000 0.088388
v -0.125000 7.000000 -0.000000
v -0.088388 7.000000 -0.088388
v -1.500000 0.000000 1.250000
v 1.500000 0.000000 1.250000
v -1.500000 0.000000 -1.250000
v 1.500000 0.000000 -1.250000
v 1.250000 0.000000 1.500000
v 1.250000 0.000000 -1.500000
v 1.250000 0.000000 1.250000
v 1.250000 0.000000 -1.250000
v -1.250000 0.000000 1.500000
v -1.250000 0.000000 -1.500000
v -1.250000 0.000000 1.250000
v -1.250000 0.000000 -1.250000
v 0.250000 6.000000 0.500000
v 0.250000 6.000000 0.250000
v 0.500000 6.000000 0.500000
v 0.500000 6.000000 0.250000
v -0.500000 6.000000 0.250000
v -0.500000 6.000000 0.500000
v -0.250000 6.000000 0.250000
v -0.250000 6.000000 0.500000
v -0.250000 6.000000 -0.250000
v -0.500000 6.000000 -0.250000
v -0.500000 6.000000 -0.500000
v -0.250000 6.000000 -0.500000
v 0.250000 6.000000 -0.250000
v 0.500000 6.000000 -0.250000
v 0.500000 6.000000 -0.500000
v 0.250000 6.000000 -0.500000
v 0.850000 2.400000 1.100000
v 0.650000 3.600000 0.900000
v 0.450000 4.800000 0.700000
v 0.450000 4.800000 0.450000
v 0.650000 3.600000 0.650000
v 0.850000 2.400000 0.850000
v 1.100000 2.400000 0.850000
v 0.900000 3.600000 0.650000
v 0.700000 4.800000 0.450000
v 0.850000 2.400000 -1.100000
v 0.650000 3.600000 -0.900000
v 0.450000 4.800000 -0.700000
v 0.850000 2.400000 -0.850000
v 0.650000 3.600000 -0.650000
v 0.450000 4.800000 -0.450000
v 1.100000 2.400000 -0.850000
v 0.900000 3.600000 -0.650000
v 0.700000 4.800000 -0.450000
v -0.850000 2.400000 -0.850000
v -0.650000 3.600000 -0.650000
v -0.450000 4.800000 -0.450000
v -0.700000 4.800000 -0.450000
v -0.900000 3.600000 -0.650000
v -1.100000 2.400000 -0.850000
v -0.450000 4.800000 -0.700000
v -0.650000 3.600000 -0.900000
v -0.850000 2.400000 -1.100000
v -0.850000 2.400000 0.850000
v -0.650000 3.600000 0.650000
v -0.450000 4.800000 0.450000
v -0.450000 4.800000 0.700000
v -0.650000 3.600000 0.900000
v -0.850000 2.400000 1.100000
v -0.700000 4.800000 0.450000
v -0.900000 3.600000 0.650000
v -1.100000 2.400000 0.850000
v 0.283333 2.400000 -0.850000
v -0.283333 2.400000 -0.850000
v 0.283333 2.400000 -1.100000
v -0.283333 2.400000 -1.100000
v 0.850000 2.400000 0.283333
v 0.850000 2.400000 -0.283333
v 1.100000 2.400000 0.283333
v 1.100000 2.400000 -0.283333
v 0.283333 2.400000 1.100000
v -0.283333 2.400000 1.100000
v 0.283333 2.400000 0.850000
v -0.283333 2.400000 0.850000
v -0.850000 2.400000 -0.283333
v -0.850000 2.400000 0.283333
v -1.100000 2.400000 -0.283333
v -1.100000 2.400000 0.283333
vt 0.458333 0.958333
vt 0.458333 1.000000
vt 0.416667 1.000000
vt 0.416667 0.958333
vt 0.583333 0.041667
vt 0.583333 0.000000
vt 0.625000 0.000000
vt 0.625000 0.166667
vt 0.583333 0.166667
vt 0.583333 0.125000
vt 0.750000 0.125000
vt 0.750000 0.166667
vt 0.708333 0.166667
vt 0.708333 -0.000000
vt 0.750000 -0.000000
vt 0.750000 0.041667
vt 0.041667 0.802083
vt 0.041667 1.000000
vt -0.000000 1.000000
vt 0.083333 0.802083
vt 0.083333 1.000000
vt 0.166667 0.604167
vt 0.166667 0.802083
vt 0.125000 1.000000
vt 0.625000 0.041667
vt 0.625000 0.125000
vt 0.708333 0.125000
vt 0.708333 0.041667
vt 0.416667 0.166667
vt 0.416667 -0.000000
vt 0.541667 0.208333
vt 0.541667 0.291667
vt 0.458333 0.291667
vt 0.458333 0.208333
vt 0.694455 0.361122
vt 0.705965 0.333333
vt 0.666667 0.294035
vt 0.041667 0.406250
vt 0.041667 0.604167
vt -0.000000 0.604167
vt -0.000000 0.802083
vt 0.083333 0.406250
vt 0.083333 0.604167
vt 0.625000 0.958333
vt 0.708333 0.958333
vt 0.708333 1.000000
vt 0.625000 1.000000
vt 0.041667 0.000000
vt -0.000000 0.406250
vt 0.125000 0.000000
vt -0.000000 0.000000
vt 0.083333 0.000000
vt 0.166667 1.000000
vt 0.541667 0.958333
vt 0.541667 1.000000
vt 0.468750 0.343750
vt 0.468750 0.291667
vt 0.520833 0.291667
vt 0.416667 0.510417
vt 0.416667 0.291667
vt 0.468750 0.510417
vt 0.666667 0.415667
vt 0.646833 0.395833
vt 0.686501 0.395833
vt 0.166667 0.406250
vt 0.166667 0.000000
vt 0.638878 0.305545
vt 0.627368 0.333333
vt 0.638878 0.361122
vt 0.666667 0.372632
vt 0.694455 0.305545
vt 0.520833 0.343750
vt 0.666667 0.376000
vt 0.680691 0.381809
vt 0.680691 0.409858
vt 0.652642 0.409858
vt 0.652642 0.381809
vt 0.354167 1.000000
vt 0.322917 1.000000
vt 0.322917 0.000000
vt 0.291667 1.000000
vt 0.291667 0.000000
vt 0.260417 1.000000
vt 0.260417 0.000000
vt 0.229167 1.000000
vt 0.229167 0.000000
vt 0.197917 1.000000
vt 0.197917 0.000000
vt 0.385417 1.000000
vt 0.354167 0.000000
vt 0.385417 0.000000
vt 0.666667 0.166667
vt 0.666667 0.291667
vt 0.645833 0.291667
vt 0.708333 0.291667
vt 0.687500 0.291667
vt 0.729167 0.166667
vt 0.729167 0.291667
vt 0.604167 0.166667
vt 0.604167 0.291667
vt 0.583333 0.291667
vt 0.645833 0.166667
vt 0.625000 0.291667
vt 0.687500 0.166667
vt 0.750000 0.291667
vn 0.000000 -1.000000 0.000000
vn 0.000000 1.000000 0.000000
vn 0.986400 -0.164400 0.000000
vn -0.986400 -0.164400 0.000000
vn 0.000000 -0.164400 0.986400
vn 0.000000 -0.164400 -0.986400
vn 0.986400 0.164400 0.000000
vn 0.000000 0.707100 -0.707100
vn 0.000000 0.707100 0.707100
vn 0.707100 0.707100 0.000000
vn -0.707100 0.707100 0.000000
vn -0.000000 -0.780900 -0.624700
vn 0.000000 0.675700 -0.737200
vn 0.000000 -0.675700 -0.737200
vn 0.000000 0.780900 -0.624700
vn -0.624700 0.780900 0.000000
vn -0.737200 -0.675700 0.000000
vn -0.737200 0.675700 0.000000
vn -0.624700 -0.780900 0.000000
vn 0.000000 0.780900 0.624700
vn 0.000000 -0.675700 0.737200
vn 0.000000 0.675700 0.737200
vn -0.000000 -0.780900 0.624700
vn 0.737200 0.675700 0.000000
vn 0.624700 -0.780900 0.000000
vn 0.624700 0.780900 -0.000000
vn 0.737200 -0.675700 0.000000
vn -0.000000 0.164400 0.986400
vn -0.986400 0.164400 0.000000
vn 0.000000 0.164400 -0.986400
vn 0.000000 -0.503900 0.863800
vn 0.000000 0.503900 0.863800
vn -0.863800 0.503900 0.000000
vn -0.863800 -0.503900 0.000000
vn 0.000000 -0.503900 -0.863800
vn 0.000000 0.503900 -0.863800
vn 0.863800 -0.503900 0.000000
vn 0.863800 0.503900 0.000000
vn 0.000000 0.373600 0.927600
vn 0.000000 0.373600 -0.927600
vn 0.927600 0.373600 0.000000
vn 0.927600 -0.373600 0.000000
vn 0.000000 0.000000 -1.000000
vn 0.000000 0.000000 1.000000
vn -1.000000 0.000000 0.000000
vn 1.000000 0.000000 0.000000
vn 0.000000 -0.373600 -0.927600
vn 0.000000 -0.373600 0.927600
vn -0.927600 -0.373600 0.000000
vn -0.927600 0.373600 0.000000
vn 0.000000 0.630200 -0.776400
vn 0.549000 0.630200 -0.549000
vn 0.707100 0.000000 -0.707100
vn 0.776400 0.630200 0.000000
vn 0.549000 0.630200 0.549000
vn 0.707100 0.000000 0.707100
vn 0.000000 0.630200 0.776400
vn -0.549000 0.630200 0.549000
vn -0.707100 0.000000 0.707100
vn -0.776400 0.630200 0.000000
vn -0.549000 0.630200 -0.549000
vn -0.707100 0.000000 -0.707100
s off
f 6/1/1 2/2/1 9/3/1
f 13/2/1 1/3/1 5/4/1
f 7/3/1 3/4/1 14/1/1
f 10/4/1 4/1/1 8/2/1
f 17/5/2 19/6/2 20/7/2
f 21/8/2 22/9/2 24/10/2
f 28/11/2 27/12/2 26/13/2
f 30/14/2 31/15/2 32/16/2
f 86/17/3 23/18/3 24/19/3
f 60/17/4 59/20/4 17/21/4
f 71/17/4 29/18/4 32/19/4
f 77/17/5 25/18/5 26/19/5
f 60/17/6 18/18/6 20/19/6
f 77/17/3 81/20/3 28/21/3
f 64/22/7 65/23/7 19/24/7
f 71/17/5 74/20/5 30/21/5
f 86/17/6 90/20/6 21/21/6
f 24/10/2 17/5/2 18/25/2
f 26/13/2 21/8/2 23/26/2
f 25/27/2 29/28/2 32/16/2
f 29/28/2 18/25/2 20/7/2
f 29/28/2 25/27/2 23/26/2
f 35/29/1 36/30/1 34/6/1
f 39/31/2 40/32/2 37/33/2
f 35/9/8 37/31/8 40/34/8
f 34/9/9 39/31/9 38/34/9
f 36/9/10 40/31/10 39/34/10
f 33/9/11 38/31/11 37/34/11
f 52/35/2 50/36/2 46/37/2
f 62/38/6 61/39/6 64/40/6
f 61/39/6 60/17/6 65/41/6
f 62/38/4 57/42/4 58/43/4
f 61/39/4 58/43/4 59/20/4
f 69/38/5 72/42/5 73/43/5
f 70/39/5 73/43/5 74/20/5
f 69/38/4 70/39/4 67/40/4
f 70/39/4 71/17/4 68/41/4
f 75/38/3 83/42/3 82/43/3
f 76/39/3 82/43/3 81/20/3
f 75/38/5 76/39/5 79/40/5
f 76/39/5 77/17/5 78/41/5
f 84/38/6 92/42/6 91/43/6
f 85/39/6 91/43/6 90/20/6
f 84/38/3 85/39/3 88/40/3
f 85/39/3 86/17/3 87/41/3
f 93/44/2 69/45/2 66/46/2
f 76/1/2 70/45/2 67/46/2
f 68/45/1 71/46/1 77/2/1
f 71/45/1 74/46/1 65/2/1
f 70/46/2 61/2/2 64/1/2
f 72/45/2 69/46/2 98/47/2
f 57/45/2 62/46/2 103/47/2
f 85/1/1 61/45/1 58/46/1
f 87/2/1 86/1/1 60/45/1
f 78/45/1 77/46/1 86/2/1
f 79/45/1 76/46/1 85/2/1
f 107/47/2 105/44/2 75/45/2
f 73/1/12 63/45/12 62/46/12
f 65/1/13 73/45/13 70/46/13
f 61/46/14 71/2/14 74/1/14
f 69/46/15 61/2/15 64/1/15
f 75/46/16 70/2/16 67/1/16
f 70/46/17 77/2/17 81/1/17
f 76/46/18 71/2/18 68/1/18
f 82/1/19 66/45/19 69/46/19
f 84/46/20 76/2/20 79/1/20
f 76/46/21 86/2/21 90/1/21
f 85/46/22 77/2/22 78/1/22
f 91/1/23 80/45/23 75/46/23
f 61/46/24 86/2/24 87/1/24
f 84/46/25 61/2/25 58/1/25
f 88/1/26 57/45/26 62/46/26
f 85/46/27 60/2/27 59/1/27
f 11/48/6 62/38/6 63/49/6
f 19/24/28 57/42/28 2/50/28
f 57/42/4 62/38/4 11/48/4
f 88/22/28 87/23/28 22/24/28
f 89/49/3 13/51/3 15/48/3
f 15/48/6 5/52/6 92/42/6
f 22/24/29 90/20/29 91/43/29
f 83/42/3 75/38/3 16/48/3
f 27/24/30 82/43/30 83/42/30
f 16/48/5 75/38/5 80/49/5
f 79/22/29 78/23/29 27/24/29
f 12/48/5 8/52/5 72/42/5
f 66/49/4 10/51/4 12/48/4
f 68/23/30 32/53/30 31/24/30
f 31/24/7 73/43/7 72/42/7
f 77/46/31 23/2/31 21/1/31
f 86/46/32 25/2/32 26/1/32
f 77/46/33 29/2/33 32/1/33
f 71/46/34 25/2/34 28/1/34
f 60/46/35 29/2/35 30/1/35
f 71/46/36 18/2/36 20/1/36
f 86/46/37 18/2/37 17/1/37
f 60/46/38 23/2/38 24/1/38
f 84/1/2 106/54/2 108/55/2
f 106/54/2 105/44/2 107/47/2
f 102/54/2 104/55/2 84/2/2
f 101/44/2 103/47/2 104/55/2
f 63/1/2 99/54/2 97/55/2
f 100/44/2 98/47/2 97/55/2
f 75/1/2 94/54/2 96/55/2
f 93/44/2 95/47/2 96/55/2
f 11/45/39 6/46/39 99/2/39
f 12/46/40 98/2/40 100/1/40
f 12/45/41 10/46/41 95/2/41
f 16/45/42 14/46/42 96/2/42
f 16/45/40 7/46/40 107/2/40
f 15/46/39 106/2/39 108/1/39
f 15/46/42 104/2/42 102/1/42
f 11/46/41 103/2/41 101/1/41
f 116/56/43 115/57/43 111/58/43
f 110/56/44 109/57/44 113/58/44
f 119/59/2 126/60/2 130/57/2
f 121/59/2 132/60/2 128/57/2
f 127/60/1 131/57/1 122/61/1
f 129/60/1 125/57/1 120/61/1
f 132/56/45 131/57/45 127/58/45
f 126/56/46 125/57/46 129/58/46
f 112/57/2 121/61/2 117/59/2
f 115/57/1 118/61/1 122/59/1
f 109/57/1 124/61/1 120/59/1
f 114/57/2 119/61/2 123/59/2
f 124/61/44 123/59/44 128/60/44
f 123/61/45 124/59/45 109/60/45
f 113/57/46 120/61/46 119/59/46
f 126/57/44 119/61/44 120/59/44
f 118/61/43 117/59/43 130/60/43
f 117/61/46 118/59/46 115/60/46
f 122/61/45 121/59/45 112/60/45
f 132/57/43 121/61/43 122/59/43
f 147/62/2 145/63/2 142/64/2
f 164/7/1 163/6/1 161/5/1
f 168/10/1 166/9/1 165/8/1
f 170/13/1 171/12/1 172/11/1
f 176/16/1 175/15/1 174/14/1
f 162/25/1 161/5/1 168/10/1
f 167/26/1 165/8/1 170/13/1
f 176/16/1 173/28/1 169/27/1
f 164/7/1 162/25/1 173/28/1
f 167/26/1 169/27/1 173/28/1
f 213/44/1 215/47/1 186/46/1
f 187/46/1 190/45/1 196/1/1
f 197/2/2 191/46/2 188/45/2
f 185/2/2 194/46/2 191/45/2
f 184/1/1 181/2/1 190/46/1
f 218/47/1 189/46/1 192/45/1
f 223/47/1 182/46/1 177/45/1
f 178/46/2 181/45/2 205/1/2
f 180/45/2 206/1/2 207/2/2
f 206/2/2 197/46/2 198/45/2
f 205/2/2 196/46/2 199/45/2
f 227/47/1 200/46/1 195/45/1
f 182/46/20 183/45/20 193/1/20
f 190/46/21 193/45/21 185/1/21
f 194/1/22 191/2/22 181/46/22
f 184/1/23 181/2/23 189/46/23
f 187/1/25 190/2/25 195/46/25
f 201/1/24 197/2/24 190/46/24
f 196/46/27 202/45/27 188/1/27
f 189/46/26 186/45/26 202/1/26
f 199/1/12 196/2/12 204/46/12
f 210/1/13 206/2/13 196/46/13
f 205/46/14 211/45/14 198/1/14
f 195/46/15 200/45/15 211/1/15
f 207/1/17 206/2/17 181/46/17
f 178/1/16 181/2/16 204/46/16
f 182/46/19 177/45/19 208/1/19
f 205/46/18 208/45/18 179/1/18
f 165/1/36 167/2/36 197/46/36
f 170/1/35 169/2/35 206/46/35
f 176/1/37 173/2/37 197/46/37
f 172/1/38 169/2/38 191/46/38
f 174/1/32 173/2/32 180/46/32
f 164/1/31 162/2/31 191/46/31
f 161/1/33 162/2/33 206/46/33
f 168/1/34 167/2/34 180/46/34
f 228/55/1 226/54/1 204/1/1
f 227/47/1 225/44/1 226/54/1
f 204/2/1 224/55/1 222/54/1
f 224/55/1 223/47/1 221/44/1
f 183/1/1 182/2/1 217/55/1
f 217/55/1 218/47/1 220/44/1
f 195/1/1 203/2/1 216/55/1
f 216/55/1 215/47/1 213/44/1
f 219/2/47 150/46/47 155/45/47
f 156/46/48 152/45/48 220/1/48
f 215/2/49 154/46/49 156/45/49
f 216/2/50 158/46/50 160/45/50
f 227/2/48 151/46/48 160/45/48
f 159/46/47 149/45/47 228/1/47
f 159/46/50 157/45/50 222/1/50
f 155/46/49 153/45/49 221/1/49
f 11/4/1 6/1/1 9/3/1
f 15/1/1 13/2/1 5/4/1
f 16/2/1 7/3/1 14/1/1
f 12/3/1 10/4/1 8/2/1
f 18/25/2 17/5/2 20/7/2
f 23/26/2 21/8/2 24/10/2
f 25/27/2 28/11/2 26/13/2
f 29/28/2 30/14/2 32/16/2
f 87/41/3 86/17/3 24/19/3
f 18/18/4 60/17/4 17/21/4
f 68/41/4 71/17/4 32/19/4
f 78/41/5 77/17/5 26/19/5
f 65/41/6 60/17/6 20/19/6
f 25/18/3 77/17/3 28/21/3
f 19/24/7 63/65/7 64/22/7
f 6/66/7 63/65/7 2/50/7
f 65/23/7 20/53/7 19/24/7
f 63/65/7 19/24/7 2/50/7
f 29/18/5 71/17/5 30/21/5
f 23/18/6 86/17/6 21/21/6
f 23/26/2 24/10/2 18/25/2
f 25/27/2 26/13/2 23/26/2
f 28/11/2 25/27/2 32/16/2
f 30/14/2 29/28/2 20/7/2
f 18/25/2 29/28/2 23/26/2
f 33/9/1 35/29/1 34/6/1
f 38/34/2 39/31/2 37/33/2
f 36/29/8 35/9/8 40/34/8
f 33/29/9 34/9/9 38/34/9
f 34/29/10 36/9/10 39/34/10
f 35/29/11 33/9/11 37/34/11
f 46/37/2 44/67/2 42/68/2
f 42/68/2 56/69/2 46/37/2
f 54/70/2 52/35/2 46/37/2
f 50/36/2 48/71/2 46/37/2
f 46/37/2 56/69/2 54/70/2
f 63/49/6 62/38/6 64/40/6
f 64/40/6 61/39/6 65/41/6
f 61/39/4 62/38/4 58/43/4
f 60/17/4 61/39/4 59/20/4
f 70/39/5 69/38/5 73/43/5
f 71/17/5 70/39/5 74/20/5
f 66/49/4 69/38/4 67/40/4
f 67/40/4 70/39/4 68/41/4
f 76/39/3 75/38/3 82/43/3
f 77/17/3 76/39/3 81/20/3
f 80/49/5 75/38/5 79/40/5
f 79/40/5 76/39/5 78/41/5
f 85/39/6 84/38/6 91/43/6
f 86/17/6 85/39/6 90/20/6
f 89/49/3 84/38/3 88/40/3
f 88/40/3 85/39/3 87/41/3
f 95/47/2 93/44/2 66/46/2
f 82/2/2 76/1/2 67/46/2
f 81/1/1 68/45/1 77/2/1
f 60/1/1 71/45/1 65/2/1
f 73/45/2 70/46/2 64/1/2
f 100/44/2 72/45/2 98/47/2
f 101/44/2 57/45/2 103/47/2
f 88/2/1 85/1/1 58/46/1
f 59/46/1 87/2/1 60/45/1
f 90/1/1 78/45/1 86/2/1
f 91/1/1 79/45/1 85/2/1
f 80/46/2 107/47/2 75/45/2
f 70/2/12 73/1/12 62/46/12
f 60/2/13 65/1/13 70/46/13
f 64/45/14 61/46/14 74/1/14
f 72/45/15 69/46/15 64/1/15
f 83/45/16 75/46/16 67/1/16
f 67/45/17 70/46/17 81/1/17
f 82/45/18 76/46/18 68/1/18
f 76/2/19 82/1/19 69/46/19
f 92/45/20 84/46/20 79/1/20
f 79/45/21 76/46/21 90/1/21
f 91/45/22 85/46/22 78/1/22
f 85/2/23 91/1/23 75/46/23
f 58/45/24 61/46/24 87/1/24
f 89/45/25 84/46/25 58/1/25
f 85/2/26 88/1/26 62/46/26
f 88/45/27 85/46/27 59/1/27
f 6/51/6 11/48/6 63/49/6
f 9/52/28 2/50/28 57/42/28
f 19/24/28 17/21/28 59/20/28
f 58/43/28 57/42/28 19/24/28
f 19/24/28 59/20/28 58/43/28
f 9/52/4 57/42/4 11/48/4
f 1/50/28 13/66/28 89/65/28
f 89/65/28 88/22/28 22/24/28
f 87/23/28 24/53/28 22/24/28
f 22/24/28 1/50/28 89/65/28
f 84/38/3 89/49/3 15/48/3
f 84/38/6 15/48/6 92/42/6
f 92/42/29 5/52/29 1/50/29
f 1/50/29 22/24/29 92/42/29
f 21/21/29 90/20/29 22/24/29
f 91/43/29 92/42/29 22/24/29
f 14/52/3 83/42/3 16/48/3
f 83/42/30 14/52/30 3/50/30
f 3/50/30 27/24/30 83/42/30
f 81/20/30 82/43/30 27/24/30
f 27/24/30 28/21/30 81/20/30
f 7/51/5 16/48/5 80/49/5
f 3/50/29 7/66/29 80/65/29
f 80/65/29 79/22/29 27/24/29
f 78/23/29 26/53/29 27/24/29
f 27/24/29 3/50/29 80/65/29
f 69/38/5 12/48/5 72/42/5
f 69/38/4 66/49/4 12/48/4
f 31/24/30 66/65/30 67/22/30
f 10/66/30 66/65/30 4/50/30
f 67/22/30 68/23/30 31/24/30
f 4/50/30 66/65/30 31/24/30
f 8/52/7 4/50/7 72/42/7
f 31/24/7 30/21/7 74/20/7
f 74/20/7 73/43/7 31/24/7
f 72/42/7 4/50/7 31/24/7
f 78/45/31 77/46/31 21/1/31
f 90/45/32 86/46/32 26/1/32
f 81/45/33 77/46/33 32/1/33
f 68/45/34 71/46/34 28/1/34
f 65/45/35 60/46/35 30/1/35
f 74/45/36 71/46/36 20/1/36
f 87/45/37 86/46/37 17/1/37
f 59/45/38 60/46/38 24/1/38
f 92/2/2 84/1/2 108/55/2
f 108/55/2 106/54/2 107/47/2
f 89/1/2 102/54/2 84/2/2
f 102/54/2 101/44/2 104/55/2
f 62/2/2 63/1/2 97/55/2
f 99/54/2 100/44/2 97/55/2
f 83/2/2 75/1/2 96/55/2
f 94/54/2 93/44/2 96/55/2
f 97/1/39 11/45/39 99/2/39
f 8/45/40 12/46/40 100/1/40
f 93/1/41 12/45/41 95/2/41
f 94/1/42 16/45/42 96/2/42
f 105/1/40 16/45/40 107/2/40
f 5/45/39 15/46/39 108/1/39
f 13/45/42 15/46/42 102/1/42
f 9/45/41 11/46/41 101/1/41
f 112/72/43 116/56/43 111/58/43
f 114/72/44 110/56/44 113/58/44
f 117/61/2 119/59/2 130/57/2
f 123/61/2 121/59/2 128/57/2
f 124/59/1 127/60/1 122/61/1
f 118/59/1 129/60/1 120/61/1
f 128/72/45 132/56/45 127/58/45
f 130/72/46 126/56/46 129/58/46
f 116/60/2 112/57/2 117/59/2
f 111/60/1 115/57/1 122/59/1
f 113/60/1 109/57/1 120/59/1
f 110/60/2 114/57/2 123/59/2
f 127/57/44 124/61/44 128/60/44
f 110/57/45 123/61/45 109/60/45
f 114/60/46 113/57/46 119/59/46
f 125/60/44 126/57/44 120/59/44
f 129/57/43 118/61/43 130/60/43
f 116/57/46 117/61/46 115/60/46
f 111/57/45 122/61/45 112/60/45
f 131/60/43 132/57/43 122/59/43
f 143/73/2 141/74/2 142/64/2
f 142/64/2 148/75/2 147/62/2
f 147/62/2 146/76/2 145/63/2
f 145/63/2 144/77/2 143/73/2
f 143/73/2 142/64/2 145/63/2
f 162/25/1 164/7/1 161/5/1
f 167/26/1 168/10/1 165/8/1
f 169/27/1 170/13/1 172/11/1
f 173/28/1 176/16/1 174/14/1
f 167/26/1 162/25/1 168/10/1
f 169/27/1 167/26/1 170/13/1
f 172/11/1 176/16/1 169/27/1
f 174/14/1 164/7/1 173/28/1
f 162/25/1 167/26/1 173/28/1
f 189/45/1 213/44/1 186/46/1
f 202/2/1 187/46/1 196/1/1
f 201/1/2 197/2/2 188/45/2
f 180/1/2 185/2/2 191/45/2
f 193/45/1 184/1/1 190/46/1
f 220/44/1 218/47/1 192/45/1
f 221/44/1 223/47/1 177/45/1
f 208/2/2 178/46/2 205/1/2
f 179/46/2 180/45/2 207/2/2
f 210/1/2 206/2/2 198/45/2
f 211/1/2 205/2/2 199/45/2
f 225/44/1 227/47/1 195/45/1
f 190/2/20 182/46/20 193/1/20
f 180/2/21 190/46/21 185/1/21
f 184/45/22 194/1/22 181/46/22
f 192/45/23 184/1/23 189/46/23
f 203/45/25 187/1/25 195/46/25
f 187/45/24 201/1/24 190/46/24
f 191/2/27 196/46/27 188/1/27
f 196/2/26 189/46/26 202/1/26
f 212/45/12 199/1/12 204/46/12
f 199/45/13 210/1/13 196/46/13
f 197/2/14 205/46/14 198/1/14
f 205/2/15 195/46/15 211/1/15
f 178/45/17 207/1/17 181/46/17
f 209/45/16 178/1/16 204/46/16
f 205/2/19 182/46/19 208/1/19
f 180/2/18 205/46/18 179/1/18
f 198/45/36 165/1/36 197/46/36
f 210/45/35 170/1/35 206/46/35
f 201/45/37 176/1/37 197/46/37
f 188/45/38 172/1/38 191/46/38
f 185/45/32 174/1/32 180/46/32
f 194/45/31 164/1/31 191/46/31
f 207/45/33 161/1/33 206/46/33
f 179/45/34 168/1/34 180/46/34
f 212/2/1 228/55/1 204/1/1
f 228/55/1 227/47/1 226/54/1
f 209/1/1 204/2/1 222/54/1
f 222/54/1 224/55/1 221/44/1
f 219/54/1 183/1/1 217/55/1
f 219/54/1 217/55/1 220/44/1
f 214/54/1 195/1/1 216/55/1
f 214/54/1 216/55/1 213/44/1
f 217/1/47 219/2/47 155/45/47
f 218/2/48 156/46/48 220/1/48
f 213/1/49 215/2/49 156/45/49
f 214/1/50 216/2/50 160/45/50
f 225/1/48 227/2/48 160/45/48
f 226/2/47 159/46/47 228/1/47
f 224/2/50 159/46/50 222/1/50
f 223/2/49 155/46/49 221/1/49
s 1
f 42/78/51 44/79/52 43/80/53
f 44/79/52 46/81/54 45/82/46
f 46/81/54 48/83/55 47/84/56
f 48/83/55 50/85/57 49/86/44
f 50/85/57 52/87/58 51/88/59
f 52/87/58 54/53/60 53/66/45
f 56/89/61 42/78/51 41/90/43
f 54/3/60 56/89/61 55/91/62
f 135/92/46 143/93/54 144/94/55
f 133/13/43 142/95/51 141/96/52
f 140/97/62 148/98/61 142/95/51
f 138/99/59 146/100/58 147/101/60
f 136/102/56 144/94/55 145/103/57
f 134/104/53 141/96/52 143/93/54
f 139/12/45 147/105/60 148/98/61
f 137/8/44 145/103/57 146/100/58
f 41/90/43 42/78/51 43/80/53
f 43/80/53 44/79/52 45/82/46
f 45/82/46 46/81/54 47/84/56
f 47/84/56 48/83/55 49/86/44
f 49/86/44 50/85/57 51/88/59
f 51/88/59 52/87/58 53/66/45
f 55/91/62 56/89/61 41/90/43
f 53/30/45 54/3/60 55/91/62
f 136/102/56 135/92/46 144/94/55
f 134/104/53 133/13/43 141/96/52
f 133/13/43 140/97/62 142/95/51
f 139/9/45 138/99/59 147/101/60
f 137/8/44 136/102/56 145/103/57
f 135/92/46 134/104/53 143/93/54
f 140/97/62 139/12/45 148/98/61
f 138/99/59 137/8/44 146/100/58
