# Blender v2.76 (sub 0) OBJ File: 'factory.blend'
# www.blender.org
o Cube_Cube.001
v -4.500000 0.000000 4.500000
v -4.500000 4.000000 4.500000
v -4.500000 0.000000 0.500000
v -4.500000 4.000000 0.500000
v 4.500000 0.000000 4.500000
v 4.500000 4.000000 4.500000
v 4.500000 0.000000 0.500000
v 4.500000 4.000000 0.500000
v -4.500000 0.000000 0.000000
v -4.500000 4.000000 0.000000
v -4.500000 0.000000 -4.000000
v -4.500000 4.000000 -4.000000
v -0.500000 0.000000 0.000000
v -0.500000 4.000000 0.000000
v -0.500000 0.000000 -4.000000
v -0.500000 4.000000 -4.000000
v -0.000000 7.000000 -2.750000
v 0.000000 0.000000 -3.000000
v 0.000000 0.000000 -1.500000
v -0.000000 7.000000 -1.250000
v 0.250000 0.000000 -1.433013
v 0.125000 7.000000 -1.216506
v 0.433013 0.000000 -1.250000
v 0.216506 7.000000 -1.125000
v 0.500000 0.000000 -1.000000
v 0.250000 7.000000 -1.000000
v 0.433013 0.000000 -0.750000
v 0.216506 7.000000 -0.875000
v 0.250000 0.000000 -0.566987
v 0.125000 7.000000 -0.783494
v 0.000000 0.000000 -0.500000
v 0.000000 7.000000 -0.750000
v -0.250000 0.000000 -0.566987
v -0.125000 7.000000 -0.783494
v -0.433013 0.000000 -0.750000
v -0.216506 7.000000 -0.875000
v -0.500000 0.000000 -1.000000
v -0.250000 7.000000 -1.000000
v -0.433013 0.000000 -1.250000
v -0.216506 7.000000 -1.125000
v -0.250000 0.000000 -1.433012
v -0.125000 7.000000 -1.216506
v 0.250000 0.000000 -2.933013
v 0.125000 7.000000 -2.716506
v 0.433013 0.000000 -2.750000
v 0.216506 7.000000 -2.625000
v 0.500000 0.000000 -2.500000
v 0.250000 7.000000 -2.500000
v 0.433013 0.000000 -2.250000
v 0.216506 7.000000 -2.375000
v 0.250000 0.000000 -2.066987
v 0.125000 7.000000 -2.283494
v 0.000000 0.000000 -2.000000
v 0.000000 7.000000 -2.250000
v -0.250000 0.000000 -2.066987
v -0.125000 7.000000 -2.283494
v -0.433013 0.000000 -2.250000
v -0.216506 7.000000 -2.375000
v -0.500000 0.000000 -2.500000
v -0.250000 7.000000 -2.500000
v -0.433013 0.000000 -2.750000
v -0.216506 7.000000 -2.625000
v -0.250000 0.000000 -2.933012
v -0.125000 7.000000 -2.716506
v 3.000000 0.500000 -4.000000
v 3.000000 0.375000 -3.966506
v 0.500000 0.500000 -4.250000
v 2.500000 0.500000 -4.250000
v 0.500000 0.250000 -4.183012
v 2.500000 0.250000 -4.183012
v 0.500000 0.066987 -4.000000
v 2.500000 0.066987 -4.000000
v 0.500000 -0.000000 -3.750000
v 2.500000 0.000000 -3.750000
v 0.500000 0.066987 -3.500000
v 2.500000 0.066987 -3.500000
v 0.500000 0.250000 -3.316987
v 2.500000 0.250000 -3.316987
v 0.500000 0.500000 -3.250000
v 2.500000 0.500000 -3.250000
v 0.500000 0.750000 -3.316987
v 2.500000 0.750000 -3.316987
v 0.500000 0.933012 -3.500000
v 2.500000 0.933013 -3.500000
v 0.500000 1.000000 -3.750000
v 2.500000 1.000000 -3.750000
v 0.500000 0.933013 -4.000000
v 2.500000 0.933013 -4.000000
v 0.500000 0.750000 -4.183012
v 2.500000 0.750000 -4.183012
v 3.000000 0.625000 -3.966506
v 3.000000 0.716506 -3.875000
v 3.000000 0.750000 -3.750000
v 3.000000 0.716506 -3.625000
v 3.000000 0.625000 -3.533494
v 3.000000 0.500000 -3.500000
v 3.000000 0.375000 -3.533494
v 3.000000 0.283494 -3.625000
v 3.000000 0.250000 -3.750000
v 3.000000 0.283494 -3.875000
v 0.000000 0.500000 -4.000000
v 0.000000 0.375000 -3.966506
v 0.000000 0.283494 -3.875000
v 0.000000 0.250000 -3.750000
v 0.000000 0.283494 -3.625000
v 0.000000 0.375000 -3.533494
v 0.000000 0.500000 -3.500000
v 0.000000 0.625000 -3.533494
v 0.000000 0.716506 -3.625000
v 0.000000 0.750000 -3.750000
v 0.000000 0.716506 -3.875000
v 0.000000 0.625000 -3.966506
v 2.000000 0.000000 -0.500000
v 2.000000 4.000000 -0.500000
v 2.000000 0.000000 -1.500000
v 2.000000 4.000000 -1.500000
v 3.000000 0.000000 -0.500000
v 3.000000 4.000000 -0.500000
v 3.000000 0.000000 -1.500000
v 3.000000 4.000000 -1.500000
v 1.133975 4.000000 -0.633975
v 2.133975 4.000000 -2.366025
v 2.866025 4.000000 0.366025
v 3.866025 4.000000 -1.366025
v 1.383975 5.000000 -1.066988
v 2.133975 5.000000 -2.366025
v 3.866025 5.000000 -1.366025
v 3.116025 5.000000 -0.066987
v 2.566988 4.250000 -2.116025
v 3.433013 4.250000 -1.616025
v 2.566988 4.750000 -2.116025
v 3.433013 4.750000 -1.616025
v 3.816988 4.250000 -4.281089
v 4.683013 4.250000 -3.781089
v 3.816988 4.750000 -4.281089
v 4.683013 4.750000 -3.781089
v 3.829247 4.250000 -3.552323
v 4.045753 4.250000 -3.427323
v 3.954247 4.250000 -3.768829
v 4.170753 4.250000 -3.643829
v 3.829247 2.250000 -3.552323
v 4.045753 2.250000 -3.427323
v 3.954247 2.250000 -3.768829
v 4.170753 2.250000 -3.643829
v -0.000000 7.000000 -2.750000
v 0.000000 0.000000 -3.000000
v 0.000000 0.000000 -1.500000
v -0.000000 7.000000 -1.250000
v 0.250000 0.000000 -1.433013
v 0.125000 7.000000 -1.216506
v 0.433013 0.000000 -1.250000
v 0.216506 7.000000 -1.125000
v 0.500000 0.000000 -1.000000
v 0.250000 7.000000 -1.000000
v 0.433013 0.000000 -0.750000
v 0.216506 7.000000 -0.875000
v 0.250000 0.000000 -0.566987
v 0.125000 7.000000 -0.783494
v 0.000000 0.000000 -0.500000
v 0.000000 7.000000 -0.750000
v -0.250000 0.000000 -0.566987
v -0.125000 7.000000 -0.783494
v -0.433013 0.000000 -0.750000
v -0.216506 7.000000 -0.875000
v -0.500000 0.000000 -1.000000
v -0.250000 7.000000 -1.000000
v -0.433013 0.000000 -1.250000
v -0.216506 7.000000 -1.125000
v -0.250000 0.000000 -1.433012
v -0.125000 7.000000 -1.216506
v 0.250000 0.000000 -2.933013
v 0.125000 7.000000 -2.716506
v 0.433013 0.000000 -2.750000
v 0.216506 7.000000 -2.625000
v 0.500000 0.000000 -2.500000
v 0.250000 7.000000 -2.500000
v 0.433013 0.000000 -2.250000
v 0.216506 7.000000 -2.375000
v 0.250000 0.000000 -2.066987
v 0.125000 7.000000 -2.283494
v 0.000000 0.000000 -2.000000
v 0.000000 7.000000 -2.250000
v -0.250000 0.000000 -2.066987
v -0.125000 7.000000 -2.283494
v -0.433013 0.000000 -2.250000
v -0.216506 7.000000 -2.375000
v -0.500000 0.000000 -2.500000
v -0.250000 7.000000 -2.500000
v -0.433013 0.000000 -2.750000
v -0.216506 7.000000 -2.625000
v -0.250000 0.000000 -2.933012
v -0.125000 7.000000 -2.716506
v 3.829247 2.250000 -3.552323
v 4.045753 2.250000 -3.427323
v 3.954247 2.250000 -3.768829
v 4.170753 2.250000 -3.643829
vt -0.000000 0.266667
vt 0.000000 -0.000000
vt 0.190476 0.000000
vt 0.190476 0.266667
vt 0.619048 0.000000
vt 0.619048 0.533333
vt 0.190476 0.533333
vt 0.809524 0.266667
vt 0.809524 -0.000000
vt 1.000000 0.000000
vt 0.619048 0.266667
vt 0.809524 0.533333
vt 0.190476 0.800000
vt 0.238095 0.533333
vt 0.333333 0.533333
vt 0.333333 0.666667
vt 0.333333 0.733333
vt 0.333333 0.866667
vt 0.261905 0.866667
vt 0.238095 0.733333
vt 0.261905 0.733333
vt 0.380952 0.866667
vt 0.333333 0.933333
vt 0.238095 0.933333
vt 0.452381 0.566667
vt 0.452381 0.533333
vt 0.500000 0.533333
vt 0.333333 0.566667
vt 0.452381 0.633333
vt 0.333333 0.633333
vt 0.190476 0.866667
vt 0.000000 0.866667
vt 1.000000 0.266667
vt 1.000000 0.533333
vt 0.827381 0.541667
vt 0.815476 0.600000
vt 0.785714 0.558333
vt 0.788690 0.629167
vt 0.794643 0.600000
vt 0.809524 0.620833
vt 0.785714 0.612500
vt 0.827381 0.591667
vt 0.785714 0.575000
vt 0.815476 0.533333
vt 0.464286 0.566667
vt 0.476190 0.566667
vt 0.476190 0.583333
vt 0.238095 0.800000
vt 0.238095 0.666667
vt 0.238095 0.866667
vt 0.380952 0.733333
vt 0.500000 0.566667
vt 0.791667 0.541667
vt 0.803571 0.533333
vt 0.833333 0.558333
vt 0.833333 0.575000
vt 0.803571 0.600000
vt 0.791667 0.591667
vt 0.806548 0.629167
vt 0.800595 0.633333
vt 0.794643 0.633333
vt 0.785714 0.620833
vt 0.788690 0.604167
vt 0.800595 0.600000
vt 0.806548 0.604167
vt 0.809524 0.612500
vt 0.464286 0.583333
vt 0.785714 1.000000
vt 0.773810 1.000000
vt 0.773810 0.533333
vt 0.750000 1.000000
vt 0.738095 1.000000
vt 0.738095 0.533333
vt 0.654762 1.000000
vt 0.642857 1.000000
vt 0.642857 0.533333
vt 0.726190 1.000000
vt 0.726190 0.533333
vt 0.714286 1.000000
vt 0.714286 0.533333
vt 0.678571 1.000000
vt 0.654762 0.533333
vt 0.702381 1.000000
vt 0.690476 1.000000
vt 0.678571 0.533333
vt 0.690476 0.533333
vt 0.702381 0.533333
vt 0.666667 1.000000
vt 0.666667 0.533333
vt 0.761905 1.000000
vt 0.761905 0.533333
vt 0.750000 0.533333
vt 0.785714 0.533333
vt 0.500000 0.595833
vt 0.500000 0.587500
vt 0.523810 0.583333
vt 0.642857 0.554167
vt 0.642857 0.562500
vt 0.619048 0.566667
vt 0.619048 0.683333
vt 0.619048 0.700000
vt 0.523810 0.700000
vt 0.500000 0.612500
vt 0.500000 0.604167
vt 0.523810 0.600000
vt 0.642857 0.570833
vt 0.642857 0.579167
vt 0.619048 0.583333
vt 0.619048 0.716667
vt 0.523810 0.716667
vt 0.523810 0.566667
vt 0.500000 0.562500
vt 0.500000 0.554167
vt 0.642857 0.587500
vt 0.642857 0.595833
vt 0.619048 0.733333
vt 0.523810 0.733333
vt 0.500000 0.545833
vt 0.500000 0.537500
vt 0.523810 0.533333
vt 0.642857 0.604167
vt 0.642857 0.612500
vt 0.619048 0.616667
vt 0.619048 0.550000
vt 0.523810 0.550000
vt 0.500000 0.729167
vt 0.500000 0.720833
vt 0.642857 0.620833
vt 0.642857 0.629167
vt 0.619048 0.633333
vt 0.500000 0.712500
vt 0.500000 0.704167
vt 0.642857 0.637500
vt 0.642857 0.645833
vt 0.500000 0.695833
vt 0.500000 0.687500
vt 0.523810 0.683333
vt 0.642857 0.654167
vt 0.642857 0.662500
vt 0.619048 0.666667
vt 0.619048 0.600000
vt 0.485119 0.633333
vt 0.479167 0.604167
vt 0.497024 0.629167
vt 0.642857 0.670833
vt 0.642857 0.679167
vt 0.523810 0.616667
vt 0.642857 0.704167
vt 0.642857 0.712500
vt 0.642857 0.687500
vt 0.642857 0.695833
vt 0.523810 0.633333
vt 0.642857 0.720833
vt 0.642857 0.729167
vt 0.479167 0.595833
vt 0.476190 0.579167
vt 0.497024 0.570833
vt 0.619048 0.650000
vt 0.523810 0.650000
vt 0.523810 0.666667
vt 0.500000 0.579167
vt 0.500000 0.570833
vt 0.642857 0.537500
vt 0.642857 0.545833
vt 0.500000 0.629167
vt 0.500000 0.620833
vt 0.500000 0.645833
vt 0.500000 0.637500
vt 0.500000 0.662500
vt 0.500000 0.654167
vt 0.500000 0.679167
vt 0.500000 0.670833
vt 0.452381 0.700000
vt 0.491071 0.633333
vt 0.479167 0.629167
vt 0.476190 0.620833
vt 0.476190 0.612500
vt 0.485119 0.600000
vt 0.491071 0.600000
vt 0.497024 0.604167
vt 0.497024 0.595833
vt 0.476190 0.587500
vt 0.479167 0.570833
vt 0.485119 0.566667
vt 0.491071 0.566667
vt 0.464286 0.700000
vn -1.000000 0.000000 0.000000
vn 0.000000 0.000000 -1.000000
vn 1.000000 0.000000 0.000000
vn 0.000000 0.000000 1.000000
vn 0.000000 1.000000 0.000000
vn 0.000000 -1.000000 0.000000
vn -0.447200 0.447200 0.774600
vn 0.500000 0.000000 -0.866000
vn 0.866000 0.000000 0.500000
vn -0.866000 -0.000000 -0.500000
vn -0.999400 0.035700 0.000000
vn -0.865400 0.035700 -0.499700
vn 0.000000 0.035700 -0.999400
vn 0.499700 0.035700 -0.865400
vn -0.865400 0.035700 0.499700
vn 0.865400 0.035700 -0.499700
vn -0.499700 0.035700 0.865400
vn 0.999400 0.035700 0.000000
vn 0.000000 0.035700 0.999400
vn 0.865400 0.035700 0.499700
vn 0.499700 0.035700 0.865400
vn -0.499700 0.035700 -0.865400
vn -0.812200 0.291700 0.505200
vn -0.812200 0.000000 0.583400
vn -0.221700 0.000000 0.975100
vn 0.812200 -0.505200 0.291700
vn 0.812200 -0.291700 0.505200
vn 0.221700 -0.487500 0.844400
vn 0.221700 0.000000 -0.975100
vn 0.221700 -0.487500 -0.844400
vn -0.221700 -0.487500 -0.844400
vn -0.812200 0.505200 0.291700
vn -0.221700 0.487500 0.844400
vn 0.812200 0.000000 0.583400
vn 0.221700 0.000000 0.975100
vn 0.221700 -0.844400 -0.487500
vn -0.221700 -0.844400 -0.487500
vn -0.221700 -0.487500 0.844400
vn -0.812200 -0.291700 0.505200
vn -0.812200 -0.505200 0.291700
vn 0.812200 0.291700 0.505200
vn 0.221700 -0.975100 0.000000
vn -0.221700 -0.975100 0.000000
vn -0.812200 -0.583400 0.000000
vn 0.812200 0.505200 0.291700
vn 0.221700 0.844400 0.487500
vn 0.221700 -0.844400 0.487500
vn -0.221700 -0.844400 0.487500
vn -0.812200 -0.505200 -0.291700
vn 0.812200 0.583400 0.000000
vn 0.221700 0.975100 0.000000
vn -0.812200 -0.291700 -0.505200
vn 0.812200 0.505200 -0.291700
vn -0.812200 0.000000 -0.583400
vn -0.221700 0.000000 -0.975100
vn 0.812200 0.291700 -0.505200
vn 0.221700 0.487500 -0.844400
vn 0.221700 0.487500 0.844400
vn 0.812200 0.000000 -0.583400
vn -0.221700 0.844400 0.487500
vn 0.812200 -0.291700 -0.505200
vn 0.812200 -0.505200 -0.291700
vn -0.221700 0.975100 0.000000
vn 0.812200 -0.583400 0.000000
vn 0.221700 0.844400 -0.487500
vn -0.221700 0.844400 -0.487500
vn -0.221700 0.487500 -0.844400
vn -0.812200 0.583400 0.000000
vn -0.812200 0.505200 -0.291700
vn -0.812200 0.291700 -0.505200
vn -0.258800 0.000000 -0.965900
vn -0.965900 0.000000 0.258800
vn 0.258800 0.000000 0.965900
vn 0.965900 0.000000 -0.258800
s off
f 4/1/1 3/2/1 1/3/1
f 8/4/2 7/3/2 3/5/2
f 6/1/3 5/2/3 7/3/3
f 2/4/4 1/3/4 5/5/4
f 8/6/5 4/7/5 2/4/5
f 12/8/1 11/9/1 9/10/1
f 16/11/2 15/5/2 11/9/2
f 14/8/3 13/9/3 15/10/3
f 10/11/4 9/5/4 13/9/4
f 16/12/5 12/6/5 10/11/5
f 116/13/1 115/7/1 113/14/1
f 120/13/2 119/7/2 115/14/2
f 118/13/3 117/7/3 119/14/3
f 114/13/4 113/7/4 117/14/4
f 121/14/6 122/15/6 124/16/6
f 127/17/5 126/18/5 125/19/5
f 123/20/7 128/21/7 125/19/7
f 122/22/8 126/18/8 127/17/8
f 124/16/9 127/17/9 128/21/9
f 122/23/10 121/24/10 125/19/10
f 133/25/8 135/26/8 136/27/8
f 131/15/10 135/26/10 133/25/10
f 129/28/6 133/25/6 134/29/6
f 130/15/9 134/26/9 136/25/9
f 131/30/5 132/28/5 136/25/5
f 7/31/6 5/32/6 1/1/6
f 15/33/6 13/34/6 9/12/6
f 175/35/6 183/36/6 191/37/6
f 168/38/5 160/39/5 152/40/5
f 186/41/5 182/39/5 174/40/5
f 153/42/6 161/43/6 169/44/6
f 193/45/6 195/46/6 196/47/6
f 2/4/1 4/1/1 1/3/1
f 4/11/2 8/4/2 3/5/2
f 8/4/3 6/1/3 7/3/3
f 6/11/4 2/4/4 5/5/4
f 6/11/5 8/6/5 2/4/5
f 10/33/1 12/8/1 9/10/1
f 12/8/2 16/11/2 11/9/2
f 16/33/3 14/8/3 15/10/3
f 14/8/4 10/11/4 13/9/4
f 14/8/5 16/12/5 10/11/5
f 114/48/1 116/13/1 113/14/1
f 116/48/2 120/13/2 115/14/2
f 120/48/3 118/13/3 119/14/3
f 118/48/4 114/13/4 117/14/4
f 123/49/6 121/14/6 124/16/6
f 128/21/5 127/17/5 125/19/5
f 121/50/7 123/20/7 125/19/7
f 124/51/8 122/22/8 127/17/8
f 123/49/9 124/16/9 128/21/9
f 126/18/10 122/23/10 125/19/10
f 134/52/8 133/25/8 136/27/8
f 129/28/10 131/15/10 133/25/10
f 130/30/6 129/28/6 134/29/6
f 132/28/9 130/15/9 136/25/9
f 135/29/5 131/30/5 136/25/5
f 3/4/6 7/31/6 1/1/6
f 11/8/6 15/33/6 9/12/6
f 191/37/6 146/53/6 171/54/6
f 171/54/6 173/44/6 191/37/6
f 175/35/6 177/55/6 179/56/6
f 179/56/6 181/42/6 183/36/6
f 183/36/6 185/57/6 187/58/6
f 187/58/6 189/43/6 191/37/6
f 191/37/6 173/44/6 175/35/6
f 175/35/6 179/56/6 183/36/6
f 183/36/6 187/58/6 191/37/6
f 152/40/5 150/59/5 148/60/5
f 148/60/5 170/61/5 168/38/5
f 168/38/5 166/62/5 164/41/5
f 164/41/5 162/63/5 160/39/5
f 160/39/5 158/64/5 156/65/5
f 156/65/5 154/66/5 160/39/5
f 152/40/5 148/60/5 168/38/5
f 168/38/5 164/41/5 160/39/5
f 160/39/5 154/66/5 152/40/5
f 174/40/5 172/59/5 145/60/5
f 145/60/5 192/61/5 174/40/5
f 190/38/5 188/62/5 186/41/5
f 186/41/5 184/63/5 182/39/5
f 182/39/5 180/64/5 178/65/5
f 178/65/5 176/66/5 174/40/5
f 174/40/5 192/61/5 190/38/5
f 190/38/5 186/41/5 174/40/5
f 182/39/5 178/65/5 174/40/5
f 169/44/6 147/35/6 149/55/6
f 149/55/6 151/56/6 169/44/6
f 153/42/6 155/36/6 157/57/6
f 157/57/6 159/58/6 161/43/6
f 161/43/6 163/37/6 165/53/6
f 165/53/6 167/54/6 169/44/6
f 169/44/6 151/56/6 153/42/6
f 153/42/6 157/57/6 161/43/6
f 161/43/6 165/53/6 169/44/6
f 194/67/6 193/45/6 196/47/6
s 1
f 60/68/11 62/69/12 61/70/12
f 20/71/13 22/72/14 21/73/14
f 58/74/15 60/75/11 59/76/11
f 22/72/14 24/77/16 23/78/16
f 56/74/17 58/75/15 57/76/15
f 24/77/16 26/79/18 25/80/18
f 54/81/19 56/74/17 55/82/17
f 25/80/18 26/79/18 28/83/20
f 52/84/21 54/81/19 53/85/19
f 28/83/20 30/84/21 29/86/21
f 50/83/20 52/84/21 51/86/21
f 30/84/21 32/81/19 31/85/19
f 48/79/18 50/83/20 49/87/20
f 32/81/19 34/88/17 33/89/17
f 46/77/16 48/79/18 47/80/18
f 33/89/17 34/88/17 36/74/15
f 62/69/12 64/90/22 63/91/22
f 44/72/14 46/77/16 45/78/16
f 36/74/15 38/75/11 37/76/11
f 63/91/22 64/90/22 17/71/13
f 18/92/13 17/71/13 44/72/14
f 37/93/11 38/68/11 40/69/12
f 41/91/22 42/90/22 20/71/13
f 40/69/12 42/90/22 41/91/22
f 108/94/23 107/95/24 79/96/25
f 98/97/26 97/98/27 78/99/28
f 68/100/29 70/101/30 69/102/31
f 109/103/32 108/104/23 81/105/33
f 97/106/27 96/107/34 80/108/35
f 70/101/30 72/109/36 71/110/37
f 77/111/38 106/112/39 105/113/40
f 80/108/35 96/114/34 95/115/41
f 72/109/36 74/116/42 73/117/43
f 105/118/40 104/119/44 73/120/43
f 95/121/41 94/122/45 84/123/46
f 74/6/42 76/124/47 75/125/48
f 104/126/44 103/127/49 71/110/37
f 94/128/45 93/129/50 86/130/51
f 76/124/47 78/99/28 77/111/38
f 103/131/49 102/132/52 69/102/31
f 86/130/51 93/133/50 92/134/53
f 78/99/28 80/108/35 79/96/25
f 102/135/52 101/136/54 67/137/55
f 92/138/53 91/139/56 90/140/57
f 80/108/35 82/141/58 81/105/33
f 104/142/44 108/143/23 102/144/52
f 90/140/57 91/145/56 65/146/59
f 82/141/58 84/123/46 83/147/60
f 70/101/30 66/148/61 100/149/62
f 65/150/59 66/151/61 70/101/30
f 84/123/46 86/130/51 85/152/63
f 100/153/62 99/154/64 74/116/42
f 94/155/45 96/156/34 100/157/62
f 86/130/51 88/158/65 87/159/66
f 90/140/57 68/100/29 67/137/55
f 88/158/65 90/140/57 89/160/67
f 107/161/24 106/162/39 77/111/38
f 74/6/42 99/163/64 98/164/26
f 110/165/68 109/166/32 83/147/60
f 111/167/69 110/168/68 85/152/63
f 89/160/67 112/169/70 111/170/69
f 101/171/54 112/172/70 89/160/67
f 139/173/71 143/25/71 141/45/72
f 137/173/72 141/25/72 142/45/73
f 138/173/73 142/25/73 144/45/74
f 140/173/74 144/25/74 143/45/71
f 59/93/11 60/68/11 61/70/12
f 19/92/13 20/71/13 21/73/14
f 57/82/15 58/74/15 59/76/11
f 21/73/14 22/72/14 23/78/16
f 55/82/17 56/74/17 57/76/15
f 23/78/16 24/77/16 25/80/18
f 53/85/19 54/81/19 55/82/17
f 27/87/20 25/80/18 28/83/20
f 51/86/21 52/84/21 53/85/19
f 27/87/20 28/83/20 29/86/21
f 49/87/20 50/83/20 51/86/21
f 29/86/21 30/84/21 31/85/19
f 47/80/18 48/79/18 49/87/20
f 31/85/19 32/81/19 33/89/17
f 45/78/16 46/77/16 47/80/18
f 35/82/15 33/89/17 36/74/15
f 61/70/12 62/69/12 63/91/22
f 43/73/14 44/72/14 45/78/16
f 35/82/15 36/74/15 37/76/11
f 18/92/13 63/91/22 17/71/13
f 43/73/14 18/92/13 44/72/14
f 39/70/12 37/93/11 40/69/12
f 19/92/13 41/91/22 20/71/13
f 39/70/12 40/69/12 41/91/22
f 81/105/33 108/94/23 79/96/25
f 76/124/47 98/97/26 78/99/28
f 67/137/55 68/100/29 69/102/31
f 83/147/60 109/103/32 81/105/33
f 78/99/28 97/106/27 80/108/35
f 69/102/31 70/101/30 71/110/37
f 75/125/48 77/111/38 105/113/40
f 82/141/58 80/108/35 95/115/41
f 71/110/37 72/109/36 73/117/43
f 75/125/48 105/118/40 73/120/43
f 82/141/58 95/121/41 84/123/46
f 73/120/43 74/6/42 75/125/48
f 73/117/43 104/126/44 71/110/37
f 84/123/46 94/128/45 86/130/51
f 75/125/48 76/124/47 77/111/38
f 71/110/37 103/131/49 69/102/31
f 88/158/65 86/130/51 92/134/53
f 77/111/38 78/99/28 79/96/25
f 69/102/31 102/135/52 67/137/55
f 88/158/65 92/138/53 90/140/57
f 79/96/25 80/108/35 81/105/33
f 112/103/70 101/166/54 102/144/52
f 102/144/52 103/174/49 104/142/44
f 104/142/44 105/175/40 106/176/39
f 106/176/39 107/177/24 104/142/44
f 108/143/23 109/178/32 112/103/70
f 110/179/68 111/180/69 112/103/70
f 112/103/70 102/144/52 108/143/23
f 104/142/44 107/177/24 108/143/23
f 109/178/32 110/179/68 112/103/70
f 68/100/29 90/140/57 65/146/59
f 81/105/33 82/141/58 83/147/60
f 72/109/36 70/101/30 100/149/62
f 68/100/29 65/150/59 70/101/30
f 83/147/60 84/123/46 85/152/63
f 72/109/36 100/153/62 74/116/42
f 100/157/62 66/161/61 92/179/53
f 65/95/59 91/181/56 92/179/53
f 92/179/53 93/178/50 94/155/45
f 94/155/45 95/182/41 96/156/34
f 96/156/34 97/183/27 98/184/26
f 98/184/26 99/185/64 96/156/34
f 66/161/61 65/95/59 92/179/53
f 92/179/53 94/155/45 100/157/62
f 96/156/34 99/185/64 100/157/62
f 85/152/63 86/130/51 87/159/66
f 89/160/67 90/140/57 67/137/55
f 87/159/66 88/158/65 89/160/67
f 79/96/25 107/161/24 77/111/38
f 76/124/47 74/6/42 98/164/26
f 85/152/63 110/165/68 83/147/60
f 87/159/66 111/167/69 85/152/63
f 87/159/66 89/160/67 111/170/69
f 67/137/55 101/171/54 89/160/67
f 137/186/72 139/173/71 141/45/72
f 138/186/73 137/173/72 142/45/73
f 140/186/74 138/173/73 144/45/74
f 139/186/71 140/173/74 143/45/71
