# Blender v2.76 (sub 0) OBJ File: 'flag_big.blend'
# www.blender.org
o Flag
v -0.000000 10.000000 -0.125000
v 0.000000 8.500000 -0.125000
v -0.000000 10.000000 -2.375000
v 0.000000 8.500000 -2.375000
vt 0.000000 0.000000
vt 1.000000 0.000000
vt 1.000000 1.000000
vt 0.000000 1.000000
vn 1.000000 0.000000 0.000000
s off
f 2/1/1 4/2/1 3/3/1
f 1/4/1 2/1/1 3/3/1
o Pole
v 0.000000 0.062500 -1.000000
v 0.000000 0.312500 -0.500000
v 0.500000 0.062500 -0.866025
v 0.250000 0.312500 -0.433013
v 0.866026 0.062500 -0.500000
v 0.433013 0.312500 -0.250000
v 1.000000 0.062500 -0.000000
v 0.500000 0.312500 0.000000
v 0.866025 0.062500 0.500000
v 0.433013 0.312500 0.250000
v 0.500000 0.062500 0.866025
v 0.250000 0.312500 0.433013
v 0.000000 0.062500 1.000000
v 0.000000 0.312500 0.500000
v -0.500000 0.062500 0.866025
v -0.250000 0.312500 0.433013
v -0.866025 0.062500 0.500000
v -0.433013 0.312500 0.250000
v -1.000000 0.062500 0.000000
v -0.500000 0.312500 0.000000
v -0.866026 0.062500 -0.500000
v -0.433013 0.312500 -0.250000
v -0.500001 0.062500 -0.866025
v -0.250000 0.312500 -0.433013
v -0.125000 0.250000 0.125000
v -0.125000 10.250000 0.125000
v -0.125000 0.250000 -0.125000
v -0.125000 10.250000 -0.125000
v 0.125000 0.250000 0.125000
v 0.125000 10.250000 0.125000
v 0.125000 0.250000 -0.125000
v 0.125000 10.250000 -0.125000
v 0.000000 0.062500 -1.000000
v 0.500000 0.062500 -0.866025
v 0.866026 0.062500 -0.500000
v 1.000000 0.062500 -0.000000
v 0.866025 0.062500 0.500000
v 0.500000 0.062500 0.866025
v 0.000000 0.062500 1.000000
v -0.500000 0.062500 0.866025
v -0.866025 0.062500 0.500000
v -1.000000 0.062500 0.000000
v -0.866026 0.062500 -0.500000
v -0.500001 0.062500 -0.866025
v -0.125000 10.250000 0.125000
v -0.125000 10.250000 -0.125000
v 0.125000 10.250000 0.125000
v 0.125000 10.250000 -0.125000
v 0.000000 0.187500 -1.000000
v 0.500000 0.187500 -0.866025
v 0.866026 0.187500 -0.500000
v 1.000000 0.187500 -0.000000
v 0.866025 0.187500 0.500000
v 0.500000 0.187500 0.866025
v 0.000000 0.187500 1.000000
v -0.500000 0.187500 0.866025
v -0.866025 0.187500 0.500000
v -1.000000 0.187500 0.000000
v -0.866026 0.187500 -0.500000
v -0.500001 0.187500 -0.866025
vt 0.985858 0.080000
vt 0.014142 0.080000
vt 0.257071 0.012678
vt 0.125000 1.000000
vt -0.000000 1.000000
vt -0.000000 0.980000
vt 0.500000 0.002263
vt 0.742929 0.012678
vt 0.920765 0.041132
vt 0.920765 0.118869
vt 0.742929 0.147322
vt 0.500000 0.157737
vt 0.257071 0.147322
vt 0.079235 0.118869
vt 0.079235 0.041131
vt 0.125000 0.980000
vt 0.433908 0.119368
vt 0.565705 0.119392
vt 0.631316 0.160050
vt 0.635691 0.159930
vt 0.680039 0.108837
vt 0.745928 0.090575
vt 0.998875 0.101764
vt 0.999960 0.101116
vt 0.745922 0.069488
vt 0.680020 0.051227
vt 0.867058 0.021773
vt 0.565883 0.040685
vt 0.635817 0.000214
vt 0.434092 0.040686
vt 0.368183 0.000042
vt 0.319961 0.051230
vt 0.135870 0.021304
vt 0.132904 0.021779
vt 0.254071 0.069492
vt 0.254078 0.090579
vt 0.000053 0.101124
vt 0.320242 0.108819
vt 0.362401 0.159814
vt 0.001459 0.101995
vt -0.000000 0.180000
vt 0.125000 0.180000
vt 0.375000 0.170000
vt 0.625000 0.170000
vt 0.625000 0.180000
vt 0.875000 0.170000
vt 0.875000 0.180000
vt 0.125000 0.170000
vt 0.375000 0.180000
vt 0.125000 0.160000
vt 0.375000 0.160000
vt 0.625000 0.160000
vt 0.367722 0.160002
vt 0.864360 0.138820
vt 0.867096 0.138288
vt 0.999946 0.058943
vt 0.998861 0.058295
vt 0.864092 0.021298
vt 0.631765 0.000040
vt 0.364132 0.000216
vt 0.001125 0.058303
vt 0.000040 0.058951
vt 0.134534 0.138411
vt 0.875000 0.160000
vn 0.000000 -1.000000 0.000000
vn 0.000000 1.000000 0.000000
vn 0.000000 0.989800 -0.142100
vn 0.071000 0.989800 -0.123100
vn 0.410700 0.570400 -0.711300
vn 0.123100 0.989800 -0.071000
vn 0.142100 0.989800 0.000000
vn 0.821400 0.570400 0.000000
vn 0.123100 0.989800 0.071000
vn 0.071000 0.989800 0.123100
vn 0.410700 0.570400 0.711300
vn 0.000000 0.989800 0.142100
vn 0.000000 0.570400 0.821400
vn -0.071000 0.989800 0.123100
vn -0.410700 0.570400 0.711300
vn -0.123100 0.989800 0.071000
vn -0.711300 0.570400 0.410700
vn -0.142100 0.989800 0.000000
vn -0.123100 0.989800 -0.071000
vn -0.711300 0.570400 -0.410700
vn -0.071000 0.989800 -0.123100
vn 0.000000 0.570400 -0.821400
vn -0.707100 0.000000 -0.707100
vn -0.707100 0.000000 0.707100
vn 0.707100 0.000000 -0.707100
vn 0.707100 0.000000 0.707100
vn -0.410700 0.570400 -0.711300
vn -0.500000 0.000000 -0.866000
vn 0.000000 0.000000 -1.000000
vn -0.821400 0.570400 0.000000
vn -0.866000 0.000000 -0.500000
vn -1.000000 0.000000 0.000000
vn -0.866000 0.000000 0.500000
vn -0.500000 0.000000 0.866000
vn 0.000000 0.000000 1.000000
vn 0.711300 0.570400 0.410700
vn 0.500000 0.000000 0.866000
vn 0.866000 0.000000 0.500000
vn 0.711300 0.570400 -0.410700
vn 1.000000 0.000000 0.000000
vn 0.866000 0.000000 -0.500000
vn 0.500000 0.000000 -0.866000
s off
f 40/5/2 46/6/2 48/7/2
f 52/8/3 50/9/3 49/10/3
f 48/7/2 37/11/2 40/5/2
f 38/12/2 39/13/2 40/5/2
f 40/5/2 41/14/2 42/15/2
f 42/15/2 43/16/2 40/5/2
f 44/17/2 45/18/2 46/6/2
f 46/6/2 47/19/2 48/7/2
f 37/11/2 38/12/2 40/5/2
f 40/5/2 43/16/2 44/17/2
f 44/17/2 46/6/2 40/5/2
f 51/20/3 52/8/3 49/10/3
s 1
f 6/21/4 8/22/5 54/23/6
f 54/24/6 8/22/5 10/25/7
f 10/25/7 12/26/8 56/27/9
f 56/28/9 12/26/8 14/29/10
f 14/29/10 16/30/11 58/31/12
f 16/30/11 18/32/13 59/33/14
f 18/32/13 20/34/15 60/35/16
f 20/34/15 22/36/17 61/37/18
f 61/38/18 22/36/17 24/39/19
f 24/39/19 26/40/20 63/41/21
f 28/42/22 6/21/4 53/43/23
f 63/44/21 26/40/20 28/42/22
f 32/10/24 31/45/24 29/46/25
f 36/20/26 35/46/26 31/45/24
f 34/10/27 33/45/27 35/46/26
f 30/20/25 29/46/25 33/45/27
f 26/40/20 18/32/13 10/25/7
f 63/47/21 64/48/28 27/49/29
f 64/48/28 53/50/23 5/51/30
f 62/52/31 63/47/21 25/53/32
f 61/47/18 62/52/31 23/54/33
f 60/48/16 61/47/18 21/55/34
f 59/50/14 60/48/16 19/56/35
f 58/47/12 59/52/14 17/54/36
f 57/48/37 58/47/12 15/55/38
f 56/50/9 57/48/37 13/56/39
f 55/47/40 56/52/9 11/54/41
f 54/48/6 55/47/40 9/55/42
f 53/50/23 54/48/6 7/56/43
f 53/57/23 6/21/4 54/23/6
f 55/58/40 54/24/6 10/25/7
f 55/59/40 10/25/7 56/27/9
f 57/60/37 56/28/9 14/29/10
f 57/61/37 14/29/10 58/31/12
f 58/62/12 16/30/11 59/33/14
f 59/63/14 18/32/13 60/35/16
f 60/64/16 20/34/15 61/37/18
f 62/65/31 61/38/18 24/39/19
f 62/66/31 24/39/19 63/41/21
f 64/67/28 28/42/22 53/43/23
f 64/67/28 63/44/21 28/42/22
f 30/20/25 32/10/24 29/46/25
f 32/10/24 36/20/26 31/45/24
f 36/20/26 34/10/27 35/46/26
f 34/10/27 30/20/25 33/45/27
f 10/25/7 8/22/5 6/21/4
f 6/21/4 28/42/22 10/25/7
f 26/40/20 24/39/19 22/36/17
f 22/36/17 20/34/15 18/32/13
f 18/32/13 16/30/11 14/29/10
f 14/29/10 12/26/8 18/32/13
f 10/25/7 28/42/22 26/40/20
f 26/40/20 22/36/17 18/32/13
f 18/32/13 12/26/8 10/25/7
f 25/53/32 63/47/21 27/49/29
f 27/49/29 64/48/28 5/51/30
f 23/46/33 62/52/31 25/53/32
f 21/55/34 61/47/18 23/54/33
f 19/56/35 60/48/16 21/55/34
f 17/68/36 59/50/14 19/56/35
f 15/55/38 58/47/12 17/54/36
f 13/56/39 57/48/37 15/55/38
f 11/68/41 56/50/9 13/56/39
f 9/55/42 55/47/40 11/54/41
f 7/56/43 54/48/6 9/55/42
f 5/68/30 53/50/23 7/56/43
