# Blender v2.76 (sub 0) OBJ File: 'flag.blend'
# www.blender.org
o Flag
v -0.000000 5.000000 -0.062500
v 0.000000 4.250000 -0.062500
v -0.000000 5.000000 -1.187500
v 0.000000 4.250000 -1.187500
vt 0.000000 0.000000
vt 1.000000 0.000000
vt 1.000000 1.000000
vt 0.000000 1.000000
vn 1.000000 0.000000 0.000000
s off
f 2/1/1 4/2/1 3/3/1
f 1/4/1 2/1/1 3/3/1
o Pole
v 0.000000 0.000000 -0.500000
v 0.000000 0.125000 -0.500000
v 0.250000 0.000000 -0.433013
v 0.250000 0.125000 -0.433013
v 0.433013 0.000000 -0.250000
v 0.433013 0.125000 -0.250000
v 0.500000 0.000000 0.000000
v 0.500000 0.125000 0.000000
v 0.433013 0.000000 0.250000
v 0.433013 0.125000 0.250000
v 0.250000 0.000000 0.433013
v 0.250000 0.125000 0.433013
v 0.000000 0.000000 0.500000
v 0.000000 0.125000 0.500000
v -0.250000 0.000000 0.433013
v -0.250000 0.125000 0.433013
v -0.433013 0.000000 0.250000
v -0.433013 0.125000 0.250000
v -0.500000 0.000000 0.000000
v -0.500000 0.125000 0.000000
v -0.433013 0.000000 -0.250000
v -0.433013 0.125000 -0.250000
v -0.250000 0.000000 -0.433013
v -0.250000 0.125000 -0.433013
v -0.062500 0.125000 0.062500
v -0.062500 5.125000 0.062500
v -0.062500 0.125000 -0.062500
v -0.062500 5.125000 -0.062500
v 0.062500 0.125000 0.062500
v 0.062500 5.125000 0.062500
v 0.062500 0.125000 -0.062500
v 0.062500 5.125000 -0.062500
v 0.000000 0.000000 -0.500000
v 0.000000 0.125000 -0.500000
v 0.250000 0.000000 -0.433013
v 0.250000 0.125000 -0.433013
v 0.433013 0.000000 -0.250000
v 0.433013 0.125000 -0.250000
v 0.500000 0.000000 0.000000
v 0.500000 0.125000 0.000000
v 0.433013 0.000000 0.250000
v 0.433013 0.125000 0.250000
v 0.250000 0.000000 0.433013
v 0.250000 0.125000 0.433013
v 0.000000 0.000000 0.500000
v 0.000000 0.125000 0.500000
v -0.250000 0.000000 0.433013
v -0.250000 0.125000 0.433013
v -0.433013 0.000000 0.250000
v -0.433013 0.125000 0.250000
v -0.500000 0.000000 0.000000
v -0.500000 0.125000 0.000000
v -0.433013 0.000000 -0.250000
v -0.433013 0.125000 -0.250000
v -0.250000 0.000000 -0.433013
v -0.250000 0.125000 -0.433013
v -0.062500 5.125000 0.062500
v -0.062500 5.125000 -0.062500
v 0.062500 5.125000 0.062500
v 0.062500 5.125000 -0.062500
vt 0.257071 0.147322
vt 0.257071 0.012678
vt 0.985858 0.080000
vt 0.014142 0.080000
vt 0.125000 1.000000
vt -0.000000 1.000000
vt -0.000000 0.980000
vt 0.920765 0.118869
vt 0.742929 0.147322
vt 0.499999 0.157737
vt 0.079235 0.118869
vt 0.079235 0.041131
vt 0.500000 0.002263
vt 0.742929 0.012678
vt 0.920765 0.041131
vt 0.125000 0.980000
vt 0.875000 0.180000
vt 0.625000 0.180000
vt 0.625000 0.160000
vt 0.375000 0.180000
vt 0.375000 0.160000
vt 0.125000 0.180000
vt 0.125000 0.160000
vt 0.875000 0.160000
vt -0.000000 0.180000
vn 0.000000 1.000000 0.000000
vn 0.000000 -1.000000 0.000000
vn 0.000000 0.000000 -1.000000
vn 0.500000 0.000000 -0.866000
vn 0.866000 0.000000 -0.500000
vn 1.000000 0.000000 0.000000
vn 0.866000 0.000000 0.500000
vn 0.500000 0.000000 0.866000
vn 0.000000 0.000000 1.000000
vn -0.500000 0.000000 0.866000
vn -0.866000 0.000000 0.500000
vn -1.000000 0.000000 0.000000
vn -0.866000 0.000000 -0.500000
vn -0.500000 0.000000 -0.866000
vn -0.707100 0.000000 -0.707100
vn -0.707100 0.000000 0.707100
vn 0.707100 0.000000 -0.707100
vn 0.707100 0.000000 0.707100
s off
f 58/5/2 50/6/2 42/7/2
f 43/7/3 55/8/3 59/6/3
f 64/9/2 62/10/2 61/11/2
f 42/7/2 40/12/2 38/13/2
f 38/13/2 60/14/2 58/5/2
f 58/5/2 56/15/2 54/8/2
f 54/8/2 52/16/2 50/6/2
f 50/6/2 48/17/2 46/18/2
f 46/18/2 44/19/2 42/7/2
f 42/7/2 38/13/2 58/5/2
f 58/5/2 54/8/2 50/6/2
f 50/6/2 46/18/2 42/7/2
f 59/6/3 37/17/3 39/18/3
f 39/18/3 41/19/3 43/7/3
f 43/7/3 45/12/3 47/13/3
f 47/13/3 49/14/3 51/5/3
f 51/5/3 53/15/3 55/8/3
f 55/8/3 57/16/3 59/6/3
f 59/6/3 39/18/3 43/7/3
f 43/7/3 47/13/3 51/5/3
f 51/5/3 55/8/3 43/7/3
f 63/20/2 64/9/2 61/11/2
s 1
f 6/21/4 8/22/5 7/23/5
f 8/22/5 10/24/6 9/25/6
f 10/24/6 12/26/7 11/27/7
f 12/21/7 14/22/8 13/23/8
f 14/22/8 16/24/9 15/25/9
f 16/24/9 18/26/10 17/27/10
f 18/21/10 20/22/11 19/23/11
f 20/22/11 22/24/12 21/25/12
f 22/24/12 24/26/13 23/27/13
f 24/27/13 26/25/14 25/24/14
f 28/23/15 6/28/4 5/21/4
f 26/25/14 28/23/15 27/22/15
f 32/11/16 31/29/16 29/26/17
f 36/20/18 35/26/18 31/29/16
f 34/11/19 33/29/19 35/26/18
f 30/20/17 29/26/17 33/29/19
f 5/28/4 6/21/4 7/23/5
f 7/23/5 8/22/5 9/25/6
f 9/25/6 10/24/6 11/27/7
f 11/28/7 12/21/7 13/23/8
f 13/23/8 14/22/8 15/25/9
f 15/25/9 16/24/9 17/27/10
f 17/28/10 18/21/10 19/23/11
f 19/23/11 20/22/11 21/25/12
f 21/25/12 22/24/12 23/27/13
f 23/26/13 24/27/13 25/24/14
f 27/22/15 28/23/15 5/21/4
f 25/24/14 26/25/14 27/22/15
f 30/20/17 32/11/16 29/26/17
f 32/11/16 36/20/18 31/29/16
f 36/20/18 34/11/19 35/26/18
f 34/11/19 30/20/17 33/29/19
