# Blender v2.76 (sub 0) OBJ File: 'MissileV2.blend'
# www.blender.org
o Cylinder
v -0.416943 1.750000 -0.275969
v -0.312707 0.250000 -0.206976
v -0.368110 0.250000 -0.071553
v 0.414519 1.750000 -0.279596
v 0.310889 0.250000 -0.209697
v 0.206976 0.250000 -0.312707
v -0.275968 1.750000 0.416943
v -0.414519 1.750000 0.279597
v -0.310889 0.250000 0.209697
v 0.099684 1.750000 0.489962
v 0.074763 0.250000 0.367472
v 0.209697 0.250000 0.310889
v -0.279596 1.750000 -0.414519
v -0.099684 1.750000 -0.489962
v -0.074763 0.250000 -0.367472
v 0.095404 1.750000 -0.490814
v 0.275968 1.750000 -0.416943
v -0.095404 1.750000 0.490814
v -0.206976 0.250000 0.312707
v 0.279597 1.750000 0.414519
v 0.312707 0.250000 0.206976
v -0.209697 0.250000 -0.310889
v 0.489962 1.750000 -0.099684
v 0.367472 0.250000 -0.074763
v -0.489962 1.750000 0.099684
v -0.367472 0.250000 0.074763
v 0.489962 3.250000 -0.099684
v 0.490814 3.250000 0.095405
v 0.157273 -0.000000 0.233167
v 0.490814 1.750000 0.095405
v 0.416943 1.750000 0.275968
v -0.275968 3.250000 0.416943
v -0.206976 4.250000 0.312707
v -0.310889 4.250000 0.209697
v -0.279596 3.250000 -0.414519
v -0.099684 3.250000 -0.489962
v 0.095405 3.250000 -0.490814
v 0.279597 3.250000 0.414519
v 0.099684 3.250000 0.489962
v -0.414519 3.250000 0.279597
v 0.275968 3.250000 -0.416943
v 0.414519 3.250000 -0.279596
v -0.490814 1.750000 -0.095405
v -0.490814 3.250000 -0.095405
v -0.416943 3.250000 -0.275969
v 0.416943 3.250000 0.275968
v -0.489962 3.250000 0.099684
v -0.095404 3.250000 0.490814
v 0.074763 4.250000 0.367472
v -0.071553 4.250000 0.368110
v 0.312707 4.250000 0.206976
v 0.209697 4.250000 0.310889
v 0.367472 4.250000 -0.074763
v 0.368110 4.250000 0.071553
v -0.209697 4.250000 -0.310889
v -0.074763 4.250000 -0.367472
v 0.206976 4.250000 -0.312707
v 0.310889 4.250000 -0.209697
v -0.368110 4.250000 -0.071553
v -0.312707 4.250000 -0.206976
v 0.071553 4.250000 -0.368110
v -0.367472 4.250000 0.074763
v 0.000000 5.250000 0.000000
v -0.489962 1.750000 0.051186
v -0.368110 0.250000 -0.034432
v 0.071553 0.250000 -0.368110
v 0.367472 0.250000 -0.038726
v 0.489962 1.750000 -0.051186
v 0.038726 0.250000 0.367472
v 0.051186 1.750000 0.489962
v 0.368110 0.250000 0.071553
v -0.071553 0.250000 0.368110
v 0.056072 -0.000000 0.275604
v -0.053665 -0.000000 0.276083
v -0.276083 0.000000 -0.053665
v -0.056072 0.000000 -0.275604
v -0.157273 0.000000 -0.233167
v 0.053665 0.000000 -0.276083
v -0.155232 -0.000000 0.234530
v -0.233167 -0.000000 0.157273
v 0.275604 0.000000 -0.056072
v 0.233167 0.000000 -0.157273
v 0.276083 -0.000000 0.053665
v -0.234530 0.000000 -0.155232
v 0.155232 0.000000 -0.234530
v -0.275604 -0.000000 0.056072
v 0.234530 -0.000000 0.155232
v -0.051186 1.750000 -0.489962
v -0.038726 0.250000 -0.367472
v 0.046358 1.750000 -0.490814
v -0.040084 0.000000 -0.990064
v 0.033074 0.000000 -0.990702
v 0.034432 0.250000 -0.368110
v -0.367472 0.250000 0.038726
v -0.490814 1.750000 -0.046358
v -0.990702 0.000000 -0.033074
v -0.990064 -0.000000 0.040084
v -0.046358 1.750000 0.490814
v -0.033074 -0.000000 0.990703
v 0.040084 -0.000000 0.990064
v -0.034432 0.250000 0.368110
v 0.490814 1.750000 0.046358
v 0.990064 0.000000 -0.040084
v 0.990702 -0.000000 0.033074
v 0.368110 0.250000 0.034432
vt 0.601459 0.261980
vt 0.604770 0.057671
vt 0.624633 0.057671
vt 0.696990 0.261981
vt 0.700300 0.057672
vt 0.720163 0.057672
vt 0.967508 0.261981
vt 0.941023 0.261981
vt 0.944335 0.057671
vt 0.792523 0.261982
vt 0.795834 0.057673
vt 0.815697 0.057673
vt 0.574975 0.261980
vt 0.548491 0.261980
vt 0.551801 0.057671
vt 0.749959 0.261981
vt 0.723475 0.261981
vt 0.726785 0.057672
vt 0.993992 0.261981
vt 0.970819 0.057671
vt 0.819007 0.261982
vt 0.822318 0.057673
vt 0.842181 0.057673
vt 0.578285 0.057671
vt 0.670506 0.261981
vt 0.673816 0.057672
vt 0.914539 0.261980
vt 0.917851 0.057671
vt 0.670507 0.465612
vt 0.644022 0.465612
vt 0.824801 0.021512
vt 0.871975 0.261982
vt 0.845491 0.261982
vt 0.848802 0.057673
vt 0.967507 0.465611
vt 0.964196 0.602381
vt 0.944333 0.602381
vt 0.574974 0.465611
vt 0.548490 0.465611
vt 0.522006 0.465611
vt 0.819006 0.465613
vt 0.792522 0.465613
vt 0.941023 0.465611
vt 0.723475 0.465612
vt 0.696991 0.465612
vt 0.627943 0.261980
vt 0.627943 0.465611
vt 0.601459 0.465611
vt 0.871975 0.465613
vt 0.845491 0.465613
vt 0.766038 0.261982
vt 0.914538 0.465611
vt 0.993991 0.465611
vt 0.749959 0.465612
vt 0.888054 0.465611
vt 0.789211 0.602382
vt 0.769348 0.602382
vt 0.842180 0.602383
vt 0.822316 0.602383
vt 0.667197 0.602382
vt 0.647334 0.602382
vt 0.571664 0.602380
vt 0.551801 0.602380
vt 0.720165 0.602381
vt 0.700302 0.602381
vt 0.624632 0.602381
vt 0.604769 0.602381
vt 0.545180 0.602380
vt 0.525317 0.602381
vt 0.937711 0.602381
vt 0.990680 0.602381
vt 0.970817 0.602381
vt 0.815695 0.602383
vt 0.795832 0.602383
vt 0.868664 0.602383
vt 0.693681 0.602381
vt 0.598148 0.602381
vt 0.746649 0.602382
vt 0.911227 0.602381
vt 0.891364 0.602381
vt 0.858732 0.747027
vt 0.848801 0.602382
vt 0.683750 0.747025
vt 0.673818 0.602381
vt 0.657266 0.747026
vt 0.832248 0.747027
vt 0.710234 0.747024
vt 0.736718 0.747027
vt 0.726786 0.602382
vt 0.535248 0.747025
vt 0.561732 0.747025
vt 0.805763 0.747028
vt 0.779279 0.747026
vt 0.980747 0.747026
vt 0.954264 0.747024
vt 0.927779 0.747025
vt 0.917848 0.602381
vt 0.588216 0.747025
vt 0.578285 0.602381
vt 0.614700 0.747025
vt 0.901295 0.747025
vt 0.422370 0.713895
vt 0.423581 0.466820
vt 0.435612 0.713895
vt 0.251725 0.359662
vt 0.252936 0.112587
vt 0.264967 0.359662
vt 0.424134 0.021510
vt 0.434067 0.021510
vt 0.423581 0.112591
vt 0.505927 0.522061
vt 0.433513 0.466820
vt 0.351361 0.522314
vt 0.424134 0.375743
vt 0.435613 0.359665
vt 0.422370 0.359665
vt 0.433513 0.112591
vt 0.505927 0.167831
vt 0.263420 0.021510
vt 0.262868 0.112587
vt 0.253488 0.021510
vt 0.888055 0.261980
vt 0.891366 0.057671
vt 0.911230 0.057671
vt 0.180716 0.168081
vt 0.335282 0.167827
vt 0.431033 0.759972
vt 0.436734 0.746209
vt 0.489692 0.735675
vt 0.554284 0.021510
vt 0.569181 0.021510
vt 0.525317 0.057671
vt 0.527800 0.021510
vt 0.542697 0.021510
vt 0.990682 0.057672
vt 0.973302 0.021510
vt 0.946818 0.021510
vt 0.961715 0.021510
vt 0.676299 0.021511
vt 0.691196 0.021511
vt 0.647332 0.057671
vt 0.649814 0.021510
vt 0.664712 0.021510
vt 0.607252 0.021510
vt 0.622150 0.021510
vt 0.580768 0.021510
vt 0.595666 0.021510
vt 0.798317 0.021512
vt 0.813214 0.021512
vt 0.769350 0.057671
vt 0.771832 0.021510
vt 0.786730 0.021510
vt 0.729267 0.021511
vt 0.744165 0.021511
vt 0.702783 0.021511
vt 0.717680 0.021511
vt 0.920334 0.021510
vt 0.935231 0.021510
vt 0.893849 0.021510
vt 0.908747 0.021510
vt 0.851285 0.021512
vt 0.866183 0.021512
vt 0.964198 0.057671
vt 0.571664 0.057671
vt 0.746648 0.057672
vt 0.598149 0.057671
vt 0.693679 0.057672
vt 0.937714 0.057671
vt 0.644022 0.261981
vt 0.839699 0.021512
vt 0.868665 0.057673
vt 0.522006 0.261980
vt 0.766038 0.465612
vt 0.351361 0.168085
vt 0.545180 0.057671
vt 0.667195 0.057671
vt 0.789213 0.057671
vt 0.489692 0.799167
vt 0.475929 0.804868
vt 0.500226 0.788633
vt 0.431033 0.774870
vt 0.461031 0.804868
vt 0.447268 0.799167
vt 0.436734 0.788633
vt 0.447268 0.735675
vt 0.475929 0.729974
vt 0.461032 0.729974
vt 0.505927 0.774870
vt 0.505927 0.759972
vt 0.500226 0.746209
vt 0.988200 0.021510
vt 0.262744 0.466032
vt 0.252812 0.466032
vt 0.253365 0.374955
vt 0.264843 0.713106
vt 0.251601 0.713106
vt 0.180592 0.521526
vt 0.335159 0.521272
vt 0.263297 0.374955
vt 0.434066 0.375743
vn -0.833200 -0.041300 -0.551500
vn -0.814300 -0.215600 -0.539000
vn -0.958500 -0.215600 -0.186300
vn 0.828300 -0.041300 -0.558700
vn 0.809500 -0.215600 -0.546000
vn 0.539000 -0.215600 -0.814300
vn -0.551500 -0.041300 0.833200
vn -0.828300 -0.041300 0.558700
vn -0.809500 -0.215600 0.546000
vn 0.199200 -0.041300 0.979100
vn 0.194700 -0.215600 0.956900
vn 0.546000 -0.215600 0.809500
vn -0.558700 -0.041300 -0.828300
vn -0.199200 -0.041300 -0.979100
vn -0.194700 -0.215600 -0.956900
vn 0.190600 -0.041300 -0.980800
vn 0.551500 -0.041300 -0.833200
vn -0.190600 -0.041300 0.980800
vn -0.539000 -0.215600 0.814300
vn 0.558700 -0.041300 0.828300
vn 0.814300 -0.215600 0.539000
vn -0.546000 -0.215600 -0.809500
vn 0.979100 -0.041300 -0.199200
vn 0.956900 -0.215600 -0.194700
vn -0.979100 -0.041300 0.199200
vn -0.956900 -0.215600 0.194700
vn 0.978100 0.061700 -0.199000
vn 0.979800 0.061700 0.190400
vn 0.523600 -0.351100 0.776300
vn 0.980800 -0.041300 0.190600
vn 0.833200 -0.041300 0.551500
vn -0.550900 0.061700 0.832300
vn -0.536400 0.235900 0.810300
vn -0.805600 0.235900 0.543400
vn -0.558100 0.061700 -0.827500
vn -0.199000 0.061700 -0.978100
vn 0.190400 0.061700 -0.979800
vn 0.558100 0.061700 0.827500
vn 0.199000 0.061700 0.978100
vn -0.827500 0.061700 0.558100
vn 0.550900 0.061700 -0.832300
vn 0.827500 0.061700 -0.558100
vn -0.980800 -0.041300 -0.190600
vn -0.979800 0.061700 -0.190400
vn -0.832300 0.061700 -0.550900
vn 0.832300 0.061700 0.550900
vn -0.978100 0.061700 0.199000
vn -0.190400 0.061700 0.979800
vn 0.193700 0.235900 0.952300
vn -0.185400 0.235900 0.953900
vn 0.810300 0.235900 0.536400
vn 0.543400 0.235900 0.805600
vn 0.952300 0.235900 -0.193700
vn 0.953900 0.235900 0.185400
vn -0.543400 0.235900 -0.805600
vn -0.193700 0.235900 -0.952300
vn 0.536400 0.235900 -0.810300
vn 0.805600 0.235900 -0.543400
vn -0.953900 0.235900 -0.185400
vn -0.810300 0.235900 -0.536400
vn 0.185400 0.235900 -0.953900
vn -0.952300 0.235900 0.193700
vn -0.000000 1.000000 0.000000
vn -0.961500 0.274700 0.008400
vn 0.961500 0.274700 -0.008400
vn -0.003200 -0.928000 -0.372600
vn -0.003300 -0.928000 -0.372600
vn 0.005300 -0.007900 1.000000
vn 0.001000 -0.007900 -1.000000
vn 0.372600 -0.928000 -0.003200
vn 0.008400 0.274700 0.961500
vn 1.000000 -0.007900 -0.005300
vn -0.372600 -0.928000 0.003200
vn -0.001000 -0.007900 1.000000
vn -0.005300 -0.007900 -1.000000
vn 0.000000 -1.000000 -0.000000
vn -0.186700 -0.351100 -0.917500
vn -0.523600 -0.351100 -0.776300
vn 0.186300 -0.215600 -0.958500
vn 0.178700 -0.351100 -0.919100
vn -0.186300 -0.215600 0.958500
vn -0.516800 -0.351100 0.780800
vn -0.776300 -0.351100 0.523600
vn 0.917500 -0.351100 -0.186700
vn 0.776300 -0.351100 -0.523600
vn 0.958500 -0.215600 0.186300
vn 0.919100 -0.351100 0.178700
vn -0.780800 -0.351100 -0.516800
vn -0.919100 -0.351100 -0.178700
vn 0.186700 -0.351100 0.917500
vn -0.178700 -0.351100 0.919100
vn 0.516800 -0.351100 -0.780800
vn -0.917500 -0.351100 0.186700
vn 0.780800 -0.351100 0.516800
vn -1.000000 -0.007900 -0.001000
vn 0.003200 -0.928000 0.372600
vn -0.008400 0.274700 -0.961500
vn 1.000000 -0.007900 0.001000
vn -1.000000 -0.007900 0.005300
s 1
f 1/1/1 2/2/2 3/3/3
f 4/4/4 5/5/5 6/6/6
f 7/7/7 8/8/8 9/9/9
f 10/10/10 11/11/11 12/12/12
f 13/13/13 14/14/14 15/15/15
f 16/16/16 17/17/17 6/18/6
f 18/19/18 7/7/7 19/20/19
f 20/21/20 12/22/12 21/23/21
f 1/1/1 13/13/13 22/24/22
f 4/4/4 23/25/23 24/26/24
f 8/8/8 25/27/25 26/28/26
f 23/25/23 27/29/27 28/30/28
f 21/23/21 12/22/12 29/31/29
f 30/32/30 31/33/31 21/34/21
f 32/35/32 33/36/33 34/37/34
f 13/13/13 35/38/35 36/39/36
f 14/14/14 36/39/36 37/40/37
f 20/21/20 38/41/38 39/42/39
f 7/7/7 32/35/32 40/43/40
f 17/17/17 41/44/41 42/45/42
f 43/46/43 44/47/44 45/48/45
f 30/32/30 28/49/28 46/50/46
f 18/51/18 10/10/10 39/42/39
f 8/8/8 40/43/40 47/52/47
f 4/4/4 42/45/42 27/29/27
f 1/1/1 45/48/45 35/38/35
f 20/21/20 31/33/31 46/50/46
f 18/19/18 48/53/48 32/35/32
f 16/16/16 37/54/37 41/44/41
f 25/27/25 47/52/47 44/55/44
f 39/42/39 49/56/49 50/57/50
f 46/50/46 51/58/51 52/59/52
f 27/29/27 53/60/53 54/61/54
f 35/38/35 55/62/55 56/63/56
f 41/44/41 57/64/57 58/65/58
f 44/47/44 59/66/59 60/67/60
f 36/39/36 56/68/56 61/69/61
f 47/52/47 40/43/40 34/70/34
f 48/53/48 50/71/50 33/72/33
f 38/41/38 52/73/52 49/74/49
f 46/50/46 28/49/28 54/75/54
f 27/29/27 42/45/42 58/76/58
f 35/38/35 45/48/45 60/77/60
f 41/44/41 37/54/37 61/78/61
f 47/52/47 62/79/62 59/80/59
f 54/75/54 63/81/63 51/82/51
f 58/76/58 63/83/63 53/84/53
f 53/60/53 63/85/63 54/61/54
f 52/59/52 51/58/51 63/86/63
f 57/64/57 63/87/63 58/65/58
f 61/78/61 63/88/63 57/89/57
f 56/68/56 63/90/63 61/69/61
f 55/62/55 63/91/63 56/63/56
f 52/73/52 63/92/63 49/74/49
f 49/56/49 63/93/63 50/57/50
f 50/71/50 63/94/63 33/72/33
f 33/36/33 63/95/63 34/37/34
f 34/70/34 63/96/63 62/97/62
f 60/77/60 63/98/63 55/99/55
f 59/66/59 63/100/63 60/67/60
f 62/79/62 63/101/63 59/80/59
f 95/102/64 96/103/64 64/104/64
f 102/105/65 104/106/65 68/107/65
f 101/108/66 69/109/66 99/110/67
f 94/111/68 64/104/68 97/112/68
f 65/113/69 96/103/69 95/102/69
f 97/112/70 96/103/70 65/114/70
f 70/115/71 98/116/71 100/117/71
f 70/115/72 100/117/72 69/118/72
f 69/109/66 100/117/67 99/110/67
f 67/119/73 103/120/73 105/121/73
f 43/122/43 3/123/3 26/124/26
f 105/125/74 104/106/74 102/105/74
f 67/126/75 68/107/75 103/120/75
f 73/127/76 74/128/76 75/129/76
f 15/15/15 76/130/77 77/131/78
f 66/132/79 78/133/80 76/134/77
f 72/135/81 19/20/19 79/136/82
f 9/9/9 80/137/83 79/138/82
f 24/26/24 81/139/84 82/140/85
f 71/141/86 83/142/87 81/143/84
f 2/2/2 84/144/88 75/145/89
f 22/24/22 77/146/78 84/147/88
f 11/11/11 73/148/90 29/149/29
f 72/150/81 74/151/91 73/152/90
f 6/18/6 85/153/92 78/154/80
f 5/5/5 82/155/85 85/156/92
f 26/28/26 86/157/93 80/158/83
f 3/123/3 75/159/89 86/160/93
f 21/34/21 87/161/94 83/162/87
f 43/46/43 1/1/1 3/3/3
f 17/17/17 4/4/4 6/6/6
f 19/163/19 7/7/7 9/9/9
f 20/21/20 10/10/10 12/12/12
f 22/164/22 13/13/13 15/15/15
f 66/165/79 16/16/16 6/18/6
f 72/135/81 18/19/18 19/20/19
f 31/33/31 20/21/20 21/23/21
f 2/166/2 1/1/1 22/24/22
f 5/167/5 4/4/4 24/26/24
f 9/168/9 8/8/8 26/28/26
f 30/169/30 23/25/23 28/30/28
f 87/170/94 21/23/21 29/31/29
f 71/171/86 30/32/30 21/34/21
f 40/43/40 32/35/32 34/37/34
f 14/14/14 13/13/13 36/39/36
f 16/172/16 14/14/14 37/40/37
f 10/10/10 20/21/20 39/42/39
f 8/8/8 7/7/7 40/43/40
f 4/4/4 17/17/17 42/45/42
f 1/1/1 43/46/43 45/48/45
f 31/33/31 30/32/30 46/50/46
f 48/173/48 18/51/18 39/42/39
f 25/27/25 8/8/8 47/52/47
f 23/25/23 4/4/4 27/29/27
f 13/13/13 1/1/1 35/38/35
f 38/41/38 20/21/20 46/50/46
f 7/7/7 18/19/18 32/35/32
f 17/17/17 16/16/16 41/44/41
f 43/122/43 25/27/25 44/55/44
f 48/173/48 39/42/39 50/57/50
f 38/41/38 46/50/46 52/59/52
f 28/30/28 27/29/27 54/61/54
f 36/39/36 35/38/35 56/63/56
f 42/45/42 41/44/41 58/65/58
f 45/48/45 44/47/44 60/67/60
f 37/40/37 36/39/36 61/69/61
f 62/97/62 47/52/47 34/70/34
f 32/35/32 48/53/48 33/72/33
f 39/42/39 38/41/38 49/74/49
f 51/82/51 46/50/46 54/75/54
f 53/84/53 27/29/27 58/76/58
f 55/99/55 35/38/35 60/77/60
f 57/89/57 41/44/41 61/78/61
f 44/55/44 47/52/47 59/80/59
f 96/103/64 97/112/64 64/104/64
f 104/106/65 103/120/65 68/107/65
f 101/174/95 99/110/95 98/116/95
f 66/132/79 15/175/15 14/14/14
f 24/176/24 23/25/23 30/169/30
f 11/177/11 10/10/10 18/51/18
f 98/116/71 99/110/71 100/117/71
f 103/120/73 104/106/73 105/121/73
f 85/178/76 82/179/76 78/180/76
f 29/181/76 81/182/76 83/183/76
f 87/184/76 29/181/76 83/183/76
f 73/127/76 81/182/76 29/181/76
f 79/185/76 86/186/76 74/128/76
f 79/185/76 80/187/76 86/186/76
f 15/175/15 66/132/79 76/134/77
f 76/188/76 75/129/76 77/189/76
f 78/180/76 81/182/76 73/127/76
f 78/180/76 82/179/76 81/182/76
f 74/128/76 86/186/76 75/129/76
f 75/129/76 76/188/76 73/127/76
f 76/188/76 78/180/76 73/127/76
f 22/164/22 15/15/15 77/131/78
f 75/129/76 84/190/76 77/189/76
f 74/191/91 72/135/81 79/136/82
f 19/163/19 9/9/9 79/138/82
f 5/167/5 24/26/24 82/140/85
f 24/176/24 71/141/86 81/143/84
f 3/3/3 2/2/2 75/145/89
f 2/166/2 22/24/22 84/147/88
f 12/12/12 11/11/11 29/149/29
f 11/177/11 72/150/81 73/152/90
f 66/165/79 6/18/6 78/154/80
f 6/6/6 5/5/5 85/156/92
f 9/168/9 26/28/26 80/158/83
f 26/124/26 3/123/3 86/160/93
f 71/171/86 21/34/21 83/162/87
f 91/192/96 92/193/96 93/194/96
f 92/193/97 91/192/97 88/195/97
f 90/196/98 93/197/98 92/193/98
f 89/198/99 88/195/99 91/192/99
f 89/199/96 91/192/96 93/194/96
f 90/196/97 92/193/97 88/195/97
f 94/200/70 97/112/70 65/114/70
f 25/27/25 43/122/43 26/124/26
f 16/172/16 66/132/79 14/14/14
f 71/141/86 24/176/24 30/169/30
f 72/150/81 11/177/11 18/51/18
