# Blender v2.76 (sub 0) OBJ File: 'pak_rocket.blend'
# www.blender.org
o Sphere
v -0.125000 0.716506 0.000000
v -0.216506 0.625000 0.000000
v -0.250000 0.500000 0.000000
v -0.088388 0.716506 -0.088388
v -0.153093 0.625000 -0.153093
v -0.176777 0.500000 -0.176777
v -0.000000 0.716506 -0.125000
v -0.000000 0.625000 -0.216506
v -0.000000 0.500000 -0.250000
v -0.000000 0.750000 0.000000
v 0.088388 0.716506 -0.088388
v 0.153093 0.625000 -0.153093
v 0.176777 0.500000 -0.176777
v 0.125000 0.716506 0.000000
v 0.216506 0.625000 -0.000000
v 0.250000 0.500000 -0.000000
v 0.088388 0.716506 0.088388
v 0.153093 0.625000 0.153093
v 0.176777 0.500000 0.176777
v -0.000000 0.716506 0.125000
v -0.000000 0.625000 0.216506
v -0.000000 0.500000 0.250000
v -0.088388 0.716506 0.088388
v -0.153093 0.625000 0.153093
v -0.176777 0.500000 0.176777
v -0.250000 -0.500000 0.000000
v -0.176777 -0.500000 -0.176777
v -0.000000 -0.500000 -0.250000
v 0.176777 -0.500000 -0.176777
v 0.250000 -0.500000 -0.000000
v 0.176777 -0.500000 0.176777
v -0.000000 -0.500000 0.250000
v -0.176777 -0.500000 0.176777
v -0.176777 -0.750000 -0.176777
v 0.176777 -0.750000 -0.176777
v 0.176777 -0.750000 0.176777
v -0.176777 -0.750000 0.176777
v -0.176777 -0.250000 -0.176777
v 0.176777 -0.250000 -0.176777
v 0.176777 -0.250000 0.176777
v -0.176777 -0.250000 0.176777
v -0.353553 -0.750000 -0.353553
v 0.353553 -0.750000 -0.353553
v 0.353553 -0.750000 0.353553
v -0.353553 -0.750000 0.353553
v -0.353553 -0.500000 -0.353553
v 0.353553 -0.500000 -0.353553
v 0.353553 -0.500000 0.353553
v -0.353553 -0.500000 0.353553
v -0.125000 -0.500000 -0.000000
v -0.088388 -0.500000 -0.088388
v -0.000000 -0.500000 -0.125000
v 0.088388 -0.500000 -0.088388
v 0.125000 -0.500000 -0.000000
v 0.088388 -0.500000 0.088388
v -0.000000 -0.500000 0.125000
v -0.088388 -0.500000 0.088388
v -0.187500 -0.750000 0.000000
v -0.132583 -0.750000 -0.132583
v -0.000000 -0.750000 -0.187500
v 0.132582 -0.750000 -0.132583
v 0.187500 -0.750000 -0.000000
v 0.132582 -0.750000 0.132582
v -0.000000 -0.750000 0.187500
v -0.132583 -0.750000 0.132582
vt 0.729510 0.616620
vt 0.682458 0.616620
vt 0.665236 0.555350
vt 0.746732 0.555350
vt 0.658933 0.492018
vt 0.652629 0.555350
vt 0.571134 0.555350
vt 0.564830 0.492018
vt 0.635407 0.616620
vt 0.588355 0.616620
vt 0.558526 0.555350
vt 0.477031 0.555350
vt 0.470727 0.492018
vt 0.541304 0.616620
vt 0.494253 0.616620
vt 0.464423 0.555350
vt 0.382928 0.555350
vt 0.447201 0.616620
vt 0.400150 0.616620
vt 0.370320 0.555350
vt 0.288825 0.555350
vt 0.282521 0.492018
vt 0.353098 0.616620
vt 0.306047 0.616620
vt 0.258995 0.616620
vt 0.211944 0.616619
vt 0.194722 0.555350
vt 0.276217 0.555350
vt 0.164892 0.616619
vt 0.117841 0.616619
vt 0.100619 0.555350
vt 0.182114 0.555350
vt 0.094315 0.492018
vt 0.705984 0.675756
vt 0.611881 0.675756
vt 0.517778 0.675756
vt 0.423675 0.675756
vt 0.329572 0.675756
vt 0.235469 0.675756
vt 0.141366 0.675756
vt 0.070789 0.616619
vt 0.023738 0.616619
vt 0.006516 0.555349
vt 0.282521 0.000212
vt 0.376624 0.000212
vt 0.088011 0.555350
vt 0.000212 0.492018
vt 0.047264 0.675756
vt 0.742568 0.836825
vt 0.581925 0.903366
vt 0.676028 0.676181
vt 0.000212 0.000212
vt 0.094315 0.000212
vt 0.658933 0.000212
vt 0.753036 0.000212
vt 0.470727 0.000212
vt 0.564830 0.000212
vt 0.188418 0.000212
vt 0.188418 0.492018
vt 0.376624 0.492018
vt 0.753461 0.123164
vt 0.753461 0.000212
vt 0.876412 0.000212
vt 0.876836 0.123164
vt 0.876836 0.000212
vt 0.999788 0.000212
vt 0.753461 0.369491
vt 0.753461 0.246540
vt 0.876412 0.246540
vt 0.865944 0.676181
vt 0.988896 0.676181
vt 0.988896 0.799132
vt 0.923849 0.542773
vt 0.873943 0.663256
vt 0.803366 0.492867
vt 0.257586 0.802916
vt 0.210737 0.807283
vt 0.187313 0.682731
vt 0.304434 0.807284
vt 0.327858 0.682732
vt 0.395710 0.702158
vt 0.429168 0.869821
vt 0.391729 0.841322
vt 0.458801 0.733790
vt 0.086003 0.869821
vt 0.000212 0.776538
vt 0.056370 0.733790
vt 0.165503 0.820234
vt 0.119462 0.702157
vt 0.257586 0.676181
vt 0.349668 0.820234
vt 0.123442 0.841322
vt 0.753036 0.492018
vt 0.515384 0.742722
vt 0.581925 0.676181
vt 0.742568 0.742722
vt 0.676028 0.903366
vt 0.515384 0.836825
vt 0.876412 0.246115
vt 0.999788 0.246115
vt 0.876412 0.492443
vt 0.742993 0.799132
vt 0.753461 0.613350
vt 0.753461 0.542773
vt 0.873943 0.492867
vt 0.923849 0.613350
vt 0.803366 0.663256
vt 0.514959 0.776538
vn -0.678600 0.678600 -0.281100
vn -0.896800 0.240300 -0.371500
vn -0.371500 0.240300 -0.896800
vn -0.281100 0.678600 -0.678600
vn 0.371500 0.240300 -0.896800
vn 0.281100 0.678600 -0.678600
vn 0.896800 0.240300 -0.371500
vn 0.678600 0.678600 -0.281100
vn 0.896800 0.240300 0.371500
vn 0.678600 0.678600 0.281100
vn 0.281100 0.678600 0.678600
vn 0.371500 0.240300 0.896800
vn -0.281100 0.678600 0.678600
vn -0.371500 0.240300 0.896800
vn -0.257300 0.960400 -0.106600
vn -0.106600 0.960400 -0.257300
vn 0.106600 0.960400 -0.257300
vn 0.257300 0.960400 -0.106600
vn 0.257300 0.960400 0.106600
vn 0.106600 0.960400 0.257300
vn -0.106600 0.960400 0.257300
vn -0.678600 0.678600 0.281100
vn 0.923900 0.000000 0.382700
vn -0.896800 0.240300 0.371500
vn -0.257300 0.960400 0.106600
vn 0.000000 -1.000000 -0.000000
vn -0.923900 0.000000 0.382700
vn -0.923900 0.000000 -0.382700
vn 0.382700 0.000000 -0.923900
vn -0.382700 0.000000 0.923900
vn 0.382700 0.000000 0.923900
vn -0.382700 0.000000 -0.923900
vn 0.923900 0.000000 -0.382700
vn -0.707100 0.000000 0.707100
vn 0.707100 0.000000 0.707100
vn 0.707100 0.000000 -0.707100
vn -0.707100 0.000000 -0.707100
vn 0.900200 0.225000 0.372900
vn 0.372900 0.225000 -0.900200
vn -0.900200 0.225000 -0.372900
vn -0.900200 0.225000 0.372900
vn 0.372900 0.225000 0.900200
vn 0.900200 0.225000 -0.372900
vn -0.372900 0.225000 -0.900200
vn -0.372900 0.225000 0.900200
s off
f 1/1/1 4/2/1 5/3/1
f 2/4/2 5/3/2 6/5/2
f 5/6/3 8/7/3 9/8/3
f 5/6/4 4/9/4 7/10/4
f 8/11/5 12/12/5 13/13/5
f 7/14/6 11/15/6 12/12/6
f 13/13/7 12/16/7 15/17/7
f 11/18/8 14/19/8 15/17/8
f 15/20/9 18/21/9 19/22/9
f 14/23/10 17/24/10 18/21/10
f 17/25/11 20/26/11 21/27/11
f 19/22/12 18/28/12 21/27/12
f 20/29/13 23/30/13 24/31/13
f 21/32/14 24/31/14 25/33/14
f 1/1/15 10/34/15 4/2/15
f 4/9/16 10/35/16 7/10/16
f 7/14/17 10/36/17 11/15/17
f 11/18/18 10/37/18 14/19/18
f 14/23/19 10/38/19 17/24/19
f 17/25/20 10/39/20 20/26/20
f 20/29/21 10/40/21 23/30/21
f 23/41/22 1/42/22 2/43/22
f 19/22/23 31/44/23 30/45/23
f 24/46/24 2/43/24 3/47/24
f 23/41/25 10/48/25 1/42/25
f 30/49/26 32/50/26 28/51/26
f 3/47/27 26/52/27 33/53/27
f 6/5/28 27/54/28 26/55/28
f 13/13/29 29/56/29 28/57/29
f 25/33/30 33/53/30 32/58/30
f 22/59/31 32/58/31 31/44/31
f 9/8/32 28/57/32 27/54/32
f 16/60/33 30/45/33 29/56/33
f 46/61/34 42/62/34 34/63/34
f 49/64/35 45/65/35 37/66/35
f 48/67/36 44/68/36 36/69/36
f 47/70/37 43/71/37 35/72/37
f 62/73/26 64/74/26 60/75/26
f 54/76/38 55/77/38 63/78/38
f 53/79/39 61/80/39 60/81/39
f 50/82/40 51/83/40 59/84/40
f 50/85/41 58/86/41 65/87/41
f 56/88/42 64/89/42 63/78/42
f 54/76/43 62/90/43 61/80/43
f 51/83/44 52/91/44 60/81/44
f 57/92/45 65/87/45 64/89/45
f 2/4/1 1/1/1 5/3/1
f 3/93/2 2/4/2 6/5/2
f 6/5/3 5/6/3 9/8/3
f 8/7/4 5/6/4 7/10/4
f 9/8/5 8/11/5 13/13/5
f 8/11/6 7/14/6 12/12/6
f 16/60/7 13/13/7 15/17/7
f 12/16/8 11/18/8 15/17/8
f 16/60/9 15/20/9 19/22/9
f 15/20/10 14/23/10 18/21/10
f 18/28/11 17/25/11 21/27/11
f 22/59/12 19/22/12 21/27/12
f 21/32/13 20/29/13 24/31/13
f 22/59/14 21/32/14 25/33/14
f 24/46/22 23/41/22 2/43/22
f 16/60/23 19/22/23 30/45/23
f 25/33/24 24/46/24 3/47/24
f 26/94/26 27/95/26 28/51/26
f 28/51/26 29/96/26 30/49/26
f 30/49/26 31/97/26 32/50/26
f 32/50/26 33/98/26 26/94/26
f 26/94/26 28/51/26 32/50/26
f 25/33/27 3/47/27 33/53/27
f 3/93/28 6/5/28 26/55/28
f 9/8/29 13/13/29 28/57/29
f 22/59/30 25/33/30 32/58/30
f 19/22/31 22/59/31 31/44/31
f 6/5/32 9/8/32 27/54/32
f 13/13/33 16/60/33 29/56/33
f 38/99/34 46/61/34 34/63/34
f 41/100/35 49/64/35 37/66/35
f 40/101/36 48/67/36 36/69/36
f 39/102/37 47/70/37 35/72/37
f 58/103/26 59/104/26 60/75/26
f 60/75/26 61/105/26 62/73/26
f 62/73/26 63/106/26 64/74/26
f 64/74/26 65/107/26 58/103/26
f 58/103/26 60/75/26 64/74/26
f 62/90/38 54/76/38 63/78/38
f 52/91/39 53/79/39 60/81/39
f 58/108/40 50/82/40 59/84/40
f 57/92/41 50/85/41 65/87/41
f 55/77/42 56/88/42 63/78/42
f 53/79/43 54/76/43 61/80/43
f 59/84/44 51/83/44 60/81/44
f 56/88/45 57/92/45 64/89/45
