# Blender v2.76 (sub 0) OBJ File: 'rbmk_rods.blend'
# www.blender.org
o Cube_Cube.001
v -0.500000 0.000000 0.500000
v -0.500000 1.000000 0.500000
v -0.500000 0.000000 -0.500000
v -0.500000 1.000000 -0.500000
v 0.500000 0.000000 0.500000
v 0.500000 1.000000 0.500000
v 0.500000 0.000000 -0.500000
v 0.500000 1.000000 -0.500000
v -0.437500 1.125000 0.437500
v -0.437500 1.125000 0.062500
v -0.062500 1.125000 0.437500
v -0.062500 1.125000 0.062500
v -0.437500 1.000000 0.437500
v -0.437500 1.000000 0.062500
v -0.062500 1.000000 0.437500
v -0.062500 1.000000 0.062500
v -0.437500 1.125000 -0.062500
v -0.437500 1.125000 -0.437500
v -0.062500 1.125000 -0.062500
v -0.062500 1.125000 -0.437500
v -0.437500 1.000000 -0.062500
v -0.437500 1.000000 -0.437500
v -0.062500 1.000000 -0.062500
v -0.062500 1.000000 -0.437500
v 0.062500 1.125000 -0.062500
v 0.062500 1.125000 -0.437500
v 0.437500 1.125000 -0.062500
v 0.437500 1.125000 -0.437500
v 0.062500 1.000000 -0.062500
v 0.062500 1.000000 -0.437500
v 0.437500 1.000000 -0.062500
v 0.437500 1.000000 -0.437500
v 0.062500 1.125000 0.437500
v 0.062500 1.125000 0.062500
v 0.437500 1.125000 0.437500
v 0.437500 1.125000 0.062500
v 0.062500 1.000000 0.437500
v 0.062500 1.000000 0.062500
v 0.437500 1.000000 0.437500
v 0.437500 1.000000 0.062500
vt 0.500000 -0.000000
vt 0.500000 0.500000
vt 0.000000 0.500000
vt 0.000000 0.000000
vt 0.000100 0.500100
vt 0.499900 0.500100
vt 0.499900 0.999900
vt 0.500000 1.000000
vt -0.000000 1.000000
vt 0.500000 0.125000
vt 0.687500 0.125000
vt 0.687500 0.312500
vt 0.500000 0.062500
vt 0.687500 0.062500
vt 0.000100 0.999900
vt 0.500000 0.312500
vn -1.000000 0.000000 0.000000
vn 0.000000 0.000000 -1.000000
vn 1.000000 0.000000 0.000000
vn 0.000000 0.000000 1.000000
vn 0.000000 -1.000000 0.000000
vn 0.000000 1.000000 0.000000
s off
f 4/1/1 3/2/1 1/3/1
f 8/1/2 7/2/2 3/3/2
f 6/3/3 5/4/3 7/1/3
f 2/3/4 1/4/4 5/1/4
f 3/5/5 7/6/5 5/7/5
f 8/8/6 4/9/6 2/3/6
f 9/10/6 11/11/6 12/12/6
f 9/10/4 13/13/4 15/14/4
f 10/14/1 14/11/1 13/10/1
f 12/14/2 16/11/2 14/10/2
f 11/10/3 15/13/3 16/14/3
f 17/10/6 19/11/6 20/12/6
f 17/10/4 21/13/4 23/14/4
f 18/14/1 22/11/1 21/10/1
f 20/14/2 24/11/2 22/10/2
f 19/10/3 23/13/3 24/14/3
f 25/10/6 27/11/6 28/12/6
f 25/10/4 29/13/4 31/14/4
f 26/14/1 30/11/1 29/10/1
f 28/14/2 32/11/2 30/10/2
f 27/10/3 31/13/3 32/14/3
f 33/10/6 35/11/6 36/12/6
f 33/10/4 37/13/4 39/14/4
f 34/14/1 38/11/1 37/10/1
f 36/14/2 40/11/2 38/10/2
f 35/10/3 39/13/3 40/14/3
f 2/4/1 4/1/1 1/3/1
f 4/4/2 8/1/2 3/3/2
f 8/2/3 6/3/3 7/1/3
f 6/2/4 2/3/4 5/1/4
f 1/15/5 3/5/5 5/7/5
f 6/2/6 8/8/6 2/3/6
f 10/16/6 9/10/6 12/12/6
f 11/11/4 9/10/4 15/14/4
f 9/13/1 10/14/1 13/10/1
f 10/13/2 12/14/2 14/10/2
f 12/11/3 11/10/3 16/14/3
f 18/16/6 17/10/6 20/12/6
f 19/11/4 17/10/4 23/14/4
f 17/13/1 18/14/1 21/10/1
f 18/13/2 20/14/2 22/10/2
f 20/11/3 19/10/3 24/14/3
f 26/16/6 25/10/6 28/12/6
f 27/11/4 25/10/4 31/14/4
f 25/13/1 26/14/1 29/10/1
f 26/13/2 28/14/2 30/10/2
f 28/11/3 27/10/3 32/14/3
f 34/16/6 33/10/6 36/12/6
f 35/11/4 33/10/4 39/14/4
f 33/13/1 34/14/1 37/10/1
f 34/13/2 36/14/2 38/10/2
f 36/11/3 35/10/3 40/14/3
