# Blender v2.90.0 OBJ File: 'fabricator_body.blend'
# www.blender.org
mtllib fabricator_body.mtl
o Cube_Cube.001
v -1.500000 0.250000 -1.500000
v -1.500000 0.000000 -1.500000
v -1.500000 -0.000000 1.500000
v 1.500000 0.250000 -1.500000
v 1.500000 0.000000 -1.500000
v 1.500000 0.250000 1.500000
v 1.500000 -0.000000 1.500000
v -1.500000 0.250000 1.500000
v 1.250000 0.500000 1.250000
v -1.250000 0.500000 1.250000
v -1.250000 0.500000 -1.250000
v -1.250000 1.000000 -1.250000
v 1.250000 1.000000 -1.250000
v 2.000000 0.701539 -0.702000
v 2.000000 0.311539 -0.702000
v 1.500000 0.311539 -0.702000
v 2.000000 0.360289 -0.653250
v 2.000000 0.360289 -0.360750
v 1.000000 0.604039 -0.409500
v 1.000000 0.435039 -0.409500
v 1.500000 0.311539 -0.312000
v 2.000000 0.311539 -0.312000
v 1.500000 0.701539 -0.702000
v 1.000000 0.604039 -0.604500
v 1.500000 0.701539 -0.312000
v 1.000000 0.435039 -0.604500
v 1.500000 0.433414 -0.433875
v 1.500000 0.579664 -0.433875
v 2.000000 0.701539 -0.312000
v 2.000000 0.652789 -0.360750
v 2.000000 0.652789 -0.653250
v 1.500000 0.433414 -0.580125
v 1.500000 0.579664 -0.580125
v -1.500000 0.312000 0.298000
v -2.000000 0.312000 0.298000
v -2.000000 0.702000 0.298000
v -2.000000 0.360750 0.639250
v -2.000000 0.360750 0.346750
v -1.500000 0.312000 0.688000
v -1.000000 0.409500 0.590500
v -1.000000 0.604500 0.590500
v -2.000000 0.312000 0.688000
v -1.000000 0.604500 0.395500
v -1.500000 0.702000 0.298000
v -1.500000 0.702000 0.688000
v -1.000000 0.409500 0.395500
v -1.500000 0.580125 0.566125
v -1.500000 0.433875 0.566125
v -2.000000 0.653250 0.346750
v -2.000000 0.653250 0.639250
v -2.000000 0.702000 0.688000
v -1.500000 0.433875 0.419875
v -1.500000 0.580125 0.419875
v 0.656250 0.343750 -1.250000
v 0.656250 0.343750 -2.000000
v 0.656250 0.656250 -2.000000
v 0.343750 0.656250 -1.250000
v 0.343750 0.656250 -2.000000
v 0.343750 0.343750 -2.000000
v 0.656250 0.656250 -1.250000
v 0.343750 0.343750 -1.250000
v -0.343750 0.343750 -1.250000
v -0.343750 0.343750 -2.000000
v -0.343750 0.656250 -2.000000
v -0.656250 0.656250 -1.250000
v -0.656250 0.656250 -2.000000
v -0.656250 0.343750 -2.000000
v -0.343750 0.656250 -1.250000
v -0.656250 0.343750 -1.250000
v -0.343750 0.656250 2.000000
v -0.343750 0.343750 2.000000
v -0.343750 0.343750 1.250000
v -0.656250 0.343750 2.000000
v -0.656250 0.656250 2.000000
v -0.656250 0.656250 1.250000
v -0.343750 0.656250 1.250000
v -0.656250 0.343750 1.250000
v 0.656250 0.656250 2.000000
v 0.656250 0.343750 2.000000
v 0.656250 0.343750 1.250000
v 0.343750 0.343750 2.000000
v 0.343750 0.656250 2.000000
v 0.343750 0.656250 1.250000
v 0.656250 0.656250 1.250000
v 0.343750 0.343750 1.250000
v 1.250000 1.000000 1.250000
v -1.250000 1.000000 1.250000
v 1.250000 0.500000 -1.250000
v 1.870834 0.652789 -0.741000
v 1.870834 0.360289 -0.741000
v 1.758334 0.506539 -0.741000
v 1.870834 0.652788 -0.273000
v 1.758334 0.506538 -0.273000
v 1.870834 0.360288 -0.273000
v -1.629166 0.653250 0.259000
v -1.629166 0.360750 0.259000
v -1.741666 0.507000 0.259000
v -1.629166 0.653250 0.727000
v -1.741666 0.507000 0.727000
v -1.629166 0.360750 0.727000
v 1.125000 1.000000 -1.125000
v 1.125000 1.000000 1.125000
v 1.125000 0.750000 -1.125000
v 1.125000 0.750000 1.125000
v -1.125000 1.000000 1.125000
v -1.125000 1.000000 -1.125000
v 0.812500 0.812500 0.375000
v 0.812500 0.812500 -0.375000
v -0.812500 0.812500 -0.375000
v 0.600000 1.500000 -0.625000
v 0.600000 0.750000 -0.625000
v 0.600000 0.750000 -0.500000
v 0.725000 1.500000 -0.625000
v 0.725000 0.750000 -0.625000
v 0.725000 1.500000 -0.500000
v 0.725000 0.750000 -0.500000
v 0.600000 1.500000 -0.500000
v -1.125000 0.750000 -1.125000
v -1.125000 0.750000 1.125000
v 0.600000 1.500000 0.500000
v 0.600000 0.750000 0.500000
v 0.600000 0.750000 0.625000
v 0.725000 1.500000 0.500000
v 0.725000 0.750000 0.500000
v 0.725000 1.500000 0.625000
v 0.725000 0.750000 0.625000
v 0.600000 1.500000 0.625000
v -0.725000 1.500000 -0.625000
v -0.725000 0.750000 -0.625000
v -0.725000 0.750000 -0.500000
v -0.600000 1.500000 -0.625000
v -0.600000 0.750000 -0.625000
v -0.600000 1.500000 -0.500000
v -0.600000 0.750000 -0.500000
v -0.725000 1.500000 -0.500000
v -0.725000 1.500000 0.500000
v -0.725000 0.750000 0.500000
v -0.725000 0.750000 0.625000
v -0.600000 1.500000 0.500000
v -0.600000 0.750000 0.500000
v -0.600000 1.500000 0.625000
v -0.600000 0.750000 0.625000
v -0.725000 1.500000 0.625000
v -0.875000 1.437500 -0.437500
v 0.875000 1.437500 -0.437500
v 0.875000 1.437500 -0.500000
v 0.812500 1.375000 -0.500000
v 0.812500 1.312500 -0.500000
v 0.812500 1.312500 -0.437500
v -0.812500 1.312500 -0.437500
v 0.875000 1.250000 -0.500000
v 0.875000 1.250000 -0.437500
v -0.875000 1.250000 -0.437500
v -0.875000 1.437500 -0.500000
v -0.875000 1.250000 -0.500000
v -0.875000 1.437500 0.500000
v 0.875000 1.437500 0.500000
v 0.875000 1.437500 0.437500
v -0.812500 1.312500 -0.500000
v -0.812500 1.375000 -0.500000
v 0.812500 1.375000 -0.437500
v -0.812500 1.375000 -0.437500
v 0.875000 1.250000 0.437500
v 0.875000 1.250000 0.500000
v -0.875000 1.250000 0.500000
v -0.875000 1.437500 0.437500
v -0.875000 1.250000 0.437500
v 0.812500 1.375000 0.437500
v 0.812500 1.312500 0.437500
v 0.812500 1.312500 0.500000
v -0.812500 1.312500 0.500000
v -0.812500 1.312500 0.437500
v -0.812500 1.375000 0.437500
v 0.812500 1.375000 0.500000
v -0.812500 1.375000 0.500000
v -0.750000 2.000000 -0.750000
v -0.750000 2.000000 0.750000
v 0.750000 2.000000 0.750000
v 0.750000 2.000000 -0.750000
v 1.250000 1.500000 1.250000
v -1.250000 1.500000 -1.250000
v -1.250000 1.500000 1.250000
v 1.250000 1.500000 -1.250000
v -0.812500 0.812500 0.375000
vt 0.000000 0.472727
vt 0.000000 0.436364
vt 0.436364 0.436364
vt 0.000000 0.472727
vt 0.000000 0.436364
vt 0.436364 0.436364
vt 0.000000 0.472727
vt 0.000000 0.436364
vt 0.436364 0.436364
vt 0.000000 0.472727
vt 0.000000 0.436364
vt 0.436364 0.436364
vt -0.000000 0.000000
vt 0.436364 -0.000000
vt 0.036364 0.527273
vt 0.436364 0.472727
vt 0.436364 0.472727
vt 0.400000 0.527273
vt 0.436364 0.472727
vt 0.400000 0.527273
vt 0.436364 0.472727
vt 0.400000 0.527273
vt 0.036364 0.527273
vt 0.400000 0.600000
vt 0.036364 0.600000
vt 0.618182 0.236364
vt 0.763636 0.236364
vt 0.763636 0.309091
vt 0.763636 0.090909
vt 0.745455 0.109091
vt 0.636364 0.109091
vt 0.727273 0.390909
vt 0.654545 0.390909
vt 0.618182 0.309091
vt 0.618182 0.309091
vt 0.618182 0.236364
vt 0.763636 0.236364
vt 0.763636 0.309091
vt 0.727273 0.390909
vt 0.654545 0.390909
vt 0.763636 0.236364
vt 0.618182 0.309091
vt 0.763636 0.309091
vt 0.618182 0.236364
vt 0.618182 0.309091
vt 0.727273 0.390909
vt 0.663636 0.136364
vt 0.663636 0.190909
vt 0.618182 0.236364
vt 0.636364 0.218182
vt 0.745455 0.218182
vt 0.618182 0.090909
vt 0.718182 0.136364
vt 0.718182 0.190909
vt 0.618182 0.309091
vt 0.618182 0.236364
vt 0.763636 0.236364
vt 0.745455 0.109091
vt 0.636364 0.109091
vt 0.618182 0.090909
vt 0.763636 0.309091
vt 0.727273 0.390909
vt 0.654545 0.390909
vt 0.618182 0.236364
vt 0.763636 0.236364
vt 0.763636 0.309091
vt 0.727273 0.390909
vt 0.654545 0.390909
vt 0.618182 0.309091
vt 0.763636 0.309091
vt 0.618182 0.236364
vt 0.763636 0.236364
vt 0.618182 0.309091
vt 0.654545 0.390909
vt 0.763636 0.309091
vt 0.718182 0.190909
vt 0.718182 0.136364
vt 0.636364 0.218182
vt 0.745455 0.218182
vt 0.763636 0.236364
vt 0.763636 0.090909
vt 0.663636 0.136364
vt 0.663636 0.190909
vt 0.945455 0.090909
vt 0.945455 0.200000
vt 0.900000 0.200000
vt 0.854545 0.090909
vt 0.854545 0.200000
vt 0.809091 0.200000
vt 0.900000 0.090909
vt 0.809091 0.090909
vt 0.763636 0.200000
vt 0.763636 0.245455
vt 0.945455 0.090909
vt 0.945455 0.200000
vt 0.900000 0.200000
vt 0.854545 0.090909
vt 0.854545 0.200000
vt 0.809091 0.200000
vt 0.900000 0.090909
vt 0.809091 0.090909
vt 0.763636 0.200000
vt 0.763636 0.245455
vt 0.854545 0.200000
vt 0.809091 0.200000
vt 0.809091 0.090909
vt 0.945455 0.200000
vt 0.900000 0.200000
vt 0.900000 0.090909
vt 0.854545 0.090909
vt 0.763636 0.200000
vt 0.763636 0.090909
vt 0.809091 0.245455
vt 0.854545 0.200000
vt 0.809091 0.200000
vt 0.809091 0.090909
vt 0.945455 0.200000
vt 0.900000 0.200000
vt 0.900000 0.090909
vt 0.854545 0.090909
vt 0.763636 0.200000
vt 0.763636 0.090909
vt 0.809091 0.245455
vt 0.400000 0.600000
vt 0.036364 0.600000
vt 0.400000 0.527273
vt 0.400000 0.600000
vt 0.036364 0.600000
vt 0.400000 0.600000
vt 0.036364 0.600000
vt 0.618182 0.163636
vt 0.618182 0.090909
vt 0.581818 0.127273
vt 0.618182 0.163636
vt 0.581818 0.127273
vt 0.618182 0.090909
vt 0.581818 0.163636
vt 0.581818 0.090909
vt 0.545455 0.127273
vt 0.581818 0.163636
vt 0.545455 0.127273
vt 0.581818 0.090909
vt 0.381818 0.618182
vt 0.054545 0.618182
vt 0.054545 1.000000
vt 0.054545 0.963636
vt 0.381818 0.963636
vt 0.036364 0.963636
vt 0.054545 0.945455
vt 0.381818 0.945455
vt 0.400000 0.963636
vt 0.436364 -0.000000
vt 0.545455 -0.000000
vt 0.545455 0.236364
vt 0.472727 0.309091
vt 0.472727 0.236364
vt 0.490909 0.236364
vt 0.454545 0.309091
vt 0.454545 0.236364
vt 0.436364 0.309091
vt 0.436364 0.236364
vt 0.490909 0.309091
vt 0.509091 0.236364
vt 0.454545 0.327273
vt 0.436364 0.327273
vt 0.436364 0.309091
vt 0.381818 0.945455
vt 0.054545 0.945455
vt 0.054545 0.618182
vt 0.054545 1.000000
vt 0.054545 0.963636
vt 0.381818 0.963636
vt 0.054545 1.000000
vt 0.054545 0.963636
vt 0.381818 0.963636
vt 0.054545 1.000000
vt 0.054545 0.963636
vt 0.381818 0.963636
vt 0.472727 0.309091
vt 0.472727 0.236364
vt 0.490909 0.236364
vt 0.454545 0.309091
vt 0.454545 0.236364
vt 0.436364 0.309091
vt 0.436364 0.236364
vt 0.490909 0.309091
vt 0.509091 0.236364
vt 0.454545 0.327273
vt 0.436364 0.327273
vt 0.436364 0.309091
vt 0.472727 0.309091
vt 0.472727 0.236364
vt 0.490909 0.236364
vt 0.454545 0.309091
vt 0.454545 0.236364
vt 0.436364 0.309091
vt 0.436364 0.236364
vt 0.490909 0.309091
vt 0.509091 0.236364
vt 0.454545 0.327273
vt 0.436364 0.327273
vt 0.436364 0.309091
vt 0.472727 0.309091
vt 0.472727 0.236364
vt 0.490909 0.236364
vt 0.454545 0.309091
vt 0.454545 0.236364
vt 0.436364 0.309091
vt 0.436364 0.236364
vt 0.490909 0.309091
vt 0.509091 0.236364
vt 0.454545 0.327273
vt 0.436364 0.327273
vt 0.436364 0.309091
vt 0.800000 0.072727
vt 0.545455 0.072727
vt 0.545455 0.063636
vt 0.790909 0.081818
vt 0.781818 0.081818
vt 0.781818 0.072727
vt 0.545455 0.072727
vt 0.800000 0.054545
vt 0.800000 0.063636
vt 0.545455 0.063636
vt 0.800000 0.063636
vt 0.827273 0.063636
vt 0.827273 0.072727
vt 0.827273 0.054545
vt 0.800000 0.072727
vt 0.545455 0.072727
vt 0.545455 0.063636
vt 0.790909 0.081818
vt 0.790909 0.090909
vt 0.781818 0.090909
vt 0.545455 0.090909
vt 0.545455 0.081818
vt 0.781818 0.081818
vt 0.800000 0.054545
vt 0.800000 0.063636
vt 0.545455 0.063636
vt 0.800000 0.063636
vt 0.827273 0.063636
vt 0.827273 0.072727
vt 0.827273 0.054545
vt 0.790909 0.081818
vt 0.781818 0.081818
vt 0.781818 0.072727
vt 0.545455 0.072727
vt 0.790909 0.081818
vt 0.790909 0.090909
vt 0.781818 0.090909
vt 0.545455 0.090909
vt 0.545455 0.081818
vt 0.781818 0.081818
vt 0.790909 0.009091
vt 0.554545 0.009091
vt 0.545455 -0.000000
vt 0.800000 0.027273
vt 0.790909 0.018182
vt 0.545455 0.027273
vt 0.554545 0.018182
vt 0.554545 0.045455
vt 0.790909 0.045455
vt 0.800000 0.054545
vt 0.554545 0.036364
vt 0.545455 0.054545
vt 0.800000 0.027273
vt 0.790909 0.036364
vt 0.554545 0.009091
vt 0.554545 0.018182
vt 0.545455 0.027273
vt 0.800000 0.000000
vt 0.790909 0.009091
vt 0.790909 0.018182
vt 0.800000 0.027273
vt 0.545455 0.054545
vt 0.554545 0.045455
vt 0.790909 0.045455
vt 0.800000 0.054545
vt 0.790909 0.036364
vt 0.554545 0.036364
vt 0.545455 0.027273
vt 0.727273 0.781818
vt 0.509091 0.781818
vt 0.509091 0.563636
vt 0.727273 0.563636
vt 0.436364 0.463636
vt 0.800000 0.463636
vt 0.727273 0.563636
vt 0.509091 0.563636
vt 0.800000 0.463636
vt 0.727273 0.563636
vt 0.509091 0.563636
vt 0.800000 0.463636
vt 0.727273 0.563636
vt 0.509091 0.563636
vt 0.436364 0.463636
vt 0.436364 0.390909
vt 0.800000 0.390909
vt 0.800000 0.390909
vt 0.800000 0.463636
vt 0.436364 0.463636
vt 0.436364 0.390909
vt 0.800000 0.390909
vt 0.436364 0.463636
vt 0.436364 0.390909
vt 0.800000 0.390909
vt 0.036364 0.527273
vt 0.036364 0.527273
vt 0.763636 0.309091
vt 0.763636 0.236364
vt 0.654545 0.390909
vt 0.618182 0.309091
vt 0.618182 0.236364
vt 0.727273 0.390909
vt 0.763636 0.090909
vt 0.809091 0.245455
vt 0.763636 0.090909
vt 0.809091 0.245455
vt 0.945455 0.090909
vt 0.763636 0.245455
vt 0.945455 0.090909
vt 0.763636 0.245455
vt 0.381818 1.000000
vt 0.436364 0.236364
vt 0.509091 0.309091
vt 0.454545 0.309091
vt 0.381818 0.618182
vt 0.381818 1.000000
vt 0.381818 1.000000
vt 0.381818 1.000000
vt 0.509091 0.309091
vt 0.454545 0.309091
vt 0.509091 0.309091
vt 0.454545 0.309091
vt 0.509091 0.309091
vt 0.454545 0.309091
vt 0.790909 0.072727
vt 0.545455 0.081818
vt 0.545455 0.054545
vt 0.827273 0.063636
vt 0.545455 0.054545
vt 0.827273 0.063636
vt 0.790909 0.072727
vt 0.545455 0.081818
vt 0.800000 0.000000
vt 0.545455 0.027273
vt 0.545455 -0.000000
vt 0.800000 0.027273
vt 0.436364 0.390909
vt 0.622757 0.237667
vt 0.622757 0.309091
vt 0.618182 0.236235
vn -1.0000 0.0000 0.0000
vn 0.0000 0.0000 -1.0000
vn 1.0000 0.0000 0.0000
vn 0.0000 0.0000 1.0000
vn 0.0000 -1.0000 -0.0000
vn 0.7071 0.7071 0.0000
vn -0.7071 0.7071 0.0000
vn 0.0000 0.7071 -0.7071
vn 0.0000 0.7071 0.7071
vn -0.1914 -0.0000 0.9815
vn -0.2976 -0.6616 0.6882
vn -0.1307 -0.9869 0.0942
vn -0.1914 0.9815 0.0000
vn 0.0000 1.0000 0.0000
vn -0.1914 0.0000 -0.9815
vn -0.2199 -0.8435 -0.4901
vn -0.2976 -0.6616 -0.6882
vn 0.1447 0.0000 -0.9895
vn 0.1447 -0.0000 0.9895
vn 0.1447 0.9895 0.0000
vn 0.1447 -0.9895 0.0000
vn 0.1107 -0.9877 0.1100
vn 0.2658 -0.6817 0.6817
vn 0.1914 0.0000 0.9815
vn 0.1618 -0.8954 -0.4149
vn 0.1914 0.9815 0.0000
vn 0.2658 -0.6817 -0.6817
vn 0.1914 0.0000 -0.9815
vn -0.1447 -0.0000 -0.9895
vn -0.1447 -0.0000 0.9895
vn -0.1447 0.9895 0.0000
vn -0.1447 -0.9895 0.0000
usemtl Default_OBJ
s 1
f 1/1/1 2/2/1 3/3/1
f 4/4/2 5/5/2 2/6/2
f 6/7/3 7/8/3 5/9/3
f 8/10/4 3/11/4 7/12/4
f 2/2/5 5/13/5 7/14/5
f 9/15/6 6/7/6 4/16/6
f 1/1/7 8/17/7 10/18/7
f 4/4/8 1/19/8 11/20/8
f 6/21/9 9/22/9 10/23/9
f 11/20/2 12/24/2 13/25/2
f 14/26/2 15/27/2 16/28/2
f 15/29/3 17/30/3 18/31/3
f 19/32/10 20/33/11 21/34/12
f 16/35/5 15/36/5 22/37/5
f 23/38/13 24/39/13 19/40/13
f 14/41/14 23/38/14 25/42/14
f 25/43/4 21/34/4 22/44/4
f 23/45/15 16/28/16 26/46/17
f 18/31/18 27/47/18 28/48/18
f 29/49/3 30/50/3 31/51/3
f 14/41/3 31/51/3 17/30/3
f 22/52/3 18/31/3 30/50/3
f 28/48/3 27/47/3 32/53/3
f 31/51/19 33/54/19 32/53/19
f 17/30/20 32/53/20 27/47/20
f 30/50/21 28/48/21 33/54/21
f 34/55/2 35/56/2 36/57/2
f 37/58/1 38/59/1 35/60/1
f 39/61/22 40/62/23 41/63/24
f 42/64/5 35/65/5 34/66/25
f 41/67/26 43/68/26 44/69/26
f 45/70/14 44/69/14 36/71/14
f 42/72/4 39/61/4 45/73/4
f 46/74/27 34/55/25 44/75/28
f 47/76/29 48/77/29 37/58/29
f 49/78/1 50/79/1 51/80/1
f 38/59/1 49/78/1 36/71/1
f 50/79/1 37/58/1 42/81/1
f 52/82/1 48/77/1 47/76/1
f 52/82/30 53/83/30 49/78/30
f 48/77/31 52/82/31 38/59/31
f 53/83/32 47/76/32 50/79/32
f 54/84/3 55/85/3 56/86/3
f 57/87/1 58/88/1 59/89/1
f 60/90/14 56/86/14 58/88/14
f 61/91/5 59/89/5 55/92/5
f 56/93/2 55/92/2 59/89/2
f 62/94/3 63/95/3 64/96/3
f 65/97/1 66/98/1 67/99/1
f 68/100/14 64/96/14 66/98/14
f 69/101/5 67/99/5 63/102/5
f 64/103/2 63/102/2 67/99/2
f 70/104/3 71/105/3 72/106/3
f 73/107/1 74/108/1 75/109/1
f 74/108/14 70/104/14 76/110/14
f 71/105/5 73/111/5 77/112/5
f 73/111/4 71/105/4 70/113/4
f 78/114/3 79/115/3 80/116/3
f 81/117/1 82/118/1 83/119/1
f 82/118/14 78/114/14 84/120/14
f 79/115/5 81/121/5 85/122/5
f 81/121/4 79/115/4 78/123/4
f 9/22/4 86/124/4 87/125/4
f 88/126/3 13/127/3 86/128/3
f 10/18/1 87/129/1 12/130/1
f 89/131/2 90/132/2 91/133/2
f 92/134/4 93/135/4 94/136/4
f 95/137/2 96/138/2 97/139/2
f 98/140/4 99/141/4 100/142/4
f 13/127/14 101/143/14 102/144/14
f 101/145/1 103/146/1 104/147/1
f 87/148/14 105/149/14 106/150/14
f 12/151/14 106/150/14 101/143/14
f 86/128/14 102/144/14 105/149/14
f 107/152/14 108/153/14 109/154/14
f 110/155/1 111/156/1 112/157/1
f 113/158/2 114/159/2 111/156/2
f 115/160/3 116/161/3 114/159/3
f 117/162/4 112/157/4 116/163/4
f 113/164/14 110/165/14 117/166/14
f 118/167/14 119/168/14 104/169/14
f 105/170/3 119/171/3 118/172/3
f 106/173/4 118/174/4 103/175/4
f 102/176/2 104/177/2 119/178/2
f 120/179/1 121/180/1 122/181/1
f 123/182/2 124/183/2 121/180/2
f 125/184/3 126/185/3 124/183/3
f 127/186/4 122/181/4 126/187/4
f 123/188/14 120/189/14 127/190/14
f 128/191/1 129/192/1 130/193/1
f 131/194/2 132/195/2 129/192/2
f 133/196/3 134/197/3 132/195/3
f 135/198/4 130/193/4 134/199/4
f 131/200/14 128/201/14 135/202/14
f 136/203/1 137/204/1 138/205/1
f 139/206/2 140/207/2 137/204/2
f 141/208/3 142/209/3 140/207/3
f 143/210/4 138/205/4 142/211/4
f 139/212/14 136/213/14 143/214/14
f 144/215/14 145/216/14 146/217/14
f 147/218/1 148/219/1 149/220/1
f 150/221/14 149/220/14 148/219/14
f 151/222/5 152/223/5 153/224/5
f 154/225/1 155/226/1 153/227/1
f 152/223/3 151/222/3 146/228/3
f 156/229/14 157/230/14 158/231/14
f 150/232/3 159/233/3 160/234/3
f 147/235/5 161/236/5 162/237/5
f 163/238/5 164/239/5 165/240/5
f 166/241/1 167/242/1 165/243/1
f 164/239/3 163/238/3 158/244/3
f 168/245/1 169/246/1 170/247/1
f 171/248/14 170/247/14 169/246/14
f 171/249/3 172/250/3 173/251/3
f 168/252/5 174/253/5 175/254/5
f 159/255/2 148/256/2 151/257/2
f 154/258/2 160/259/2 159/255/2
f 146/260/2 147/261/2 160/259/2
f 162/262/4 161/263/4 145/264/4
f 150/265/4 162/262/4 144/266/4
f 152/267/4 149/268/4 150/265/4
f 148/256/2 147/261/2 146/260/2
f 145/264/4 161/263/4 149/268/4
f 171/269/4 175/270/4 156/271/4
f 164/272/4 170/273/4 171/269/4
f 175/270/4 174/274/4 157/275/4
f 158/276/2 168/277/2 173/278/2
f 166/279/2 173/278/2 172/280/2
f 172/280/2 169/281/2 163/282/2
f 169/281/2 168/277/2 158/276/2
f 157/275/4 174/274/4 170/273/4
f 176/283/14 177/284/14 178/285/14
f 179/286/6 178/285/6 180/287/6
f 181/288/8 176/289/8 179/290/8
f 182/291/7 177/292/7 176/293/7
f 180/294/9 178/295/9 177/296/9
f 182/297/4 87/298/4 86/299/4
f 13/300/3 183/301/3 180/287/3
f 183/302/2 13/303/2 12/304/2
f 181/305/1 12/306/1 87/307/1
f 8/17/1 1/1/1 3/3/1
f 1/19/2 4/4/2 2/6/2
f 4/16/3 6/7/3 5/9/3
f 6/21/4 8/10/4 7/12/4
f 3/3/5 2/2/5 7/14/5
f 88/126/6 9/15/6 4/16/6
f 11/308/7 1/1/7 10/18/7
f 88/309/8 4/4/8 11/20/8
f 8/10/9 6/21/9 10/23/9
f 88/309/2 11/20/2 13/25/2
f 23/45/2 14/26/2 16/28/2
f 22/52/3 15/29/3 18/31/3
f 25/43/10 19/32/10 21/34/10
f 21/310/12 16/35/16 22/37/5
f 25/42/13 23/38/13 19/40/13
f 29/49/14 14/41/14 25/42/14
f 29/311/4 25/43/4 22/44/4
f 24/312/15 23/45/15 26/46/17
f 30/50/18 18/31/18 28/48/18
f 14/41/3 29/49/3 31/51/3
f 15/29/3 14/41/3 17/30/3
f 29/49/3 22/52/3 30/50/3
f 33/54/3 28/48/3 32/53/3
f 17/30/19 31/51/19 32/53/19
f 18/31/20 17/30/20 27/47/20
f 31/51/21 30/50/21 33/54/21
f 44/75/2 34/55/2 36/57/2
f 42/81/1 37/58/1 35/60/1
f 45/73/24 39/61/24 41/63/24
f 39/313/22 42/64/5 34/66/25
f 45/70/26 41/67/26 44/69/26
f 51/80/14 45/70/14 36/71/14
f 51/314/4 42/72/4 45/73/4
f 43/315/28 46/74/27 44/75/28
f 50/79/29 47/76/29 37/58/29
f 36/71/1 49/78/1 51/80/1
f 35/60/1 38/59/1 36/71/1
f 51/80/1 50/79/1 42/81/1
f 53/83/1 52/82/1 47/76/1
f 38/59/30 52/82/30 49/78/30
f 37/58/31 48/77/31 38/59/31
f 49/78/32 53/83/32 50/79/32
f 60/90/3 54/84/3 56/86/3
f 61/91/1 57/87/1 59/89/1
f 57/87/14 60/90/14 58/88/14
f 54/316/5 61/91/5 55/92/5
f 58/317/2 56/93/2 59/89/2
f 68/100/3 62/94/3 64/96/3
f 69/101/1 65/97/1 67/99/1
f 65/97/14 68/100/14 66/98/14
f 62/318/5 69/101/5 63/102/5
f 66/319/2 64/103/2 67/99/2
f 76/110/3 70/104/3 72/106/3
f 77/320/1 73/107/1 75/109/1
f 75/109/14 74/108/14 76/110/14
f 72/106/5 71/105/5 77/112/5
f 74/321/4 73/111/4 70/113/4
f 84/120/3 78/114/3 80/116/3
f 85/322/1 81/117/1 83/119/1
f 83/119/14 82/118/14 84/120/14
f 80/116/5 79/115/5 85/122/5
f 82/323/4 81/121/4 78/123/4
f 10/23/4 9/22/4 87/125/4
f 9/15/3 88/126/3 86/128/3
f 11/308/1 10/18/1 12/130/1
f 86/128/14 13/127/14 102/144/14
f 102/324/1 101/145/1 104/147/1
f 12/151/14 87/148/14 106/150/14
f 13/127/14 12/151/14 101/143/14
f 87/148/14 86/128/14 105/149/14
f 184/325/14 107/152/14 109/154/14
f 117/162/1 110/155/1 112/157/1
f 110/155/2 113/158/2 111/156/2
f 113/158/3 115/160/3 114/159/3
f 115/326/4 117/162/4 116/163/4
f 115/327/14 113/164/14 117/166/14
f 103/328/14 118/167/14 104/169/14
f 106/329/3 105/170/3 118/172/3
f 101/330/4 106/173/4 103/175/4
f 105/331/2 102/176/2 119/178/2
f 127/186/1 120/179/1 122/181/1
f 120/179/2 123/182/2 121/180/2
f 123/182/3 125/184/3 124/183/3
f 125/332/4 127/186/4 126/187/4
f 125/333/14 123/188/14 127/190/14
f 135/198/1 128/191/1 130/193/1
f 128/191/2 131/194/2 129/192/2
f 131/194/3 133/196/3 132/195/3
f 133/334/4 135/198/4 134/199/4
f 133/335/14 131/200/14 135/202/14
f 143/210/1 136/203/1 138/205/1
f 136/203/2 139/206/2 137/204/2
f 139/206/3 141/208/3 140/207/3
f 141/336/4 143/210/4 142/211/4
f 141/337/14 139/212/14 143/214/14
f 154/225/14 144/215/14 146/217/14
f 161/338/1 147/218/1 149/220/1
f 159/339/14 150/221/14 148/219/14
f 155/340/5 151/222/5 153/224/5
f 144/215/1 154/225/1 153/227/1
f 145/341/3 152/223/3 146/228/3
f 166/241/14 156/229/14 158/231/14
f 162/237/3 150/232/3 160/234/3
f 160/234/5 147/235/5 162/237/5
f 167/342/5 163/238/5 165/240/5
f 156/229/1 166/241/1 165/243/1
f 157/343/3 164/239/3 158/244/3
f 174/344/1 168/245/1 170/247/1
f 172/345/14 171/248/14 169/246/14
f 175/254/3 171/249/3 173/251/3
f 173/251/5 168/252/5 175/254/5
f 155/346/2 159/255/2 151/257/2
f 155/346/2 154/258/2 159/255/2
f 154/258/2 146/260/2 160/259/2
f 144/266/4 162/262/4 145/264/4
f 153/347/4 150/265/4 144/266/4
f 153/347/4 152/267/4 150/265/4
f 151/257/2 148/256/2 146/260/2
f 152/267/4 145/264/4 149/268/4
f 165/348/4 171/269/4 156/271/4
f 165/348/4 164/272/4 171/269/4
f 156/271/4 175/270/4 157/275/4
f 166/279/2 158/276/2 173/278/2
f 167/349/2 166/279/2 172/280/2
f 167/349/2 172/280/2 163/282/2
f 163/282/2 169/281/2 158/276/2
f 164/272/4 157/275/4 170/273/4
f 179/286/14 176/283/14 178/285/14
f 183/301/6 179/286/6 180/287/6
f 183/302/8 181/288/8 179/290/8
f 181/305/7 182/291/7 176/293/7
f 182/297/9 180/294/9 177/296/9
f 180/294/4 182/297/4 86/299/4
f 86/350/3 13/300/3 180/287/3
f 181/288/2 183/302/2 12/304/2
f 182/291/1 181/305/1 87/307/1
f 16/28/16 20/351/11 26/352/17
f 21/310/12 20/353/11 16/35/16
f 39/313/22 34/66/25 40/62/23
f 34/66/25 46/74/27 40/62/23
